{"glyphs":{"0":{"ha":894,"x_min":58,"x_max":839,"o":"m 58 501 q 151 136 58 271 q 449 1 244 1 q 745 136 651 1 q 839 501 839 271 q 745 865 839 731 q 449 999 651 999 q 151 865 244 999 q 58 501 58 731 m 603 501 q 572 298 603 369 q 449 226 540 226 q 324 298 356 226 q 292 501 292 369 q 324 703 292 632 q 449 774 356 774 q 572 703 540 774 q 603 501 603 633 z "},"1":{"ha":494,"x_min":15,"x_max":413,"o":"m 15 760 l 15 982 l 413 982 l 413 0 l 163 0 l 163 760 l 15 760 z "},"2":{"ha":786,"x_min":47,"x_max":747,"o":"m 47 189 q 489 690 489 504 q 390 804 489 804 q 309 765 335 804 q 281 644 283 726 l 49 644 q 157 914 57 824 q 410 1004 257 1004 q 651 924 569 1004 q 732 714 732 843 q 622 434 732 571 q 360 203 513 297 l 747 203 l 747 11 l 47 11 l 47 189 z "},"3":{"ha":840,"x_min":57,"x_max":764,"o":"m 419 1025 q 596 990 522 1025 q 708 892 669 954 q 746 753 746 831 q 697 599 746 657 q 574 525 647 540 l 574 518 q 764 281 764 457 q 725 130 764 196 q 612 27 686 64 q 433 -10 538 -10 q 165 74 264 -10 q 57 328 65 157 l 289 328 q 325 225 292 263 q 422 188 358 188 q 503 218 474 188 q 533 297 533 249 q 358 418 533 418 l 314 418 l 314 611 l 357 611 q 514 724 514 608 q 487 801 514 774 q 414 828 460 828 q 335 794 364 828 q 301 703 306 760 l 69 703 q 167 942 76 858 q 419 1025 257 1025 z "},"4":{"ha":933,"x_min":61,"x_max":883,"o":"m 61 181 l 61 379 l 510 994 l 765 994 l 765 388 l 883 388 l 883 181 l 765 181 l 765 0 l 525 0 l 525 181 l 61 181 m 544 719 l 303 388 l 544 388 l 544 719 z "},"5":{"ha":893,"x_min":121,"x_max":832,"o":"m 783 797 l 342 797 l 342 599 q 423 651 371 632 q 536 669 475 669 q 701 626 635 669 q 800 508 768 582 q 832 346 832 435 q 742 91 832 185 q 488 -3 651 -3 q 294 37 376 -3 q 168 147 213 76 q 121 311 124 218 l 353 311 q 391 233 360 264 q 476 203 422 203 q 570 243 539 203 q 601 350 601 283 q 568 449 601 414 q 475 483 535 483 q 399 463 429 483 q 357 411 368 443 l 126 411 l 126 1006 l 783 1006 l 783 797 z "},"6":{"ha":872,"x_min":79,"x_max":806,"o":"m 556 711 q 517 801 546 771 q 436 832 489 832 q 322 758 356 832 q 290 529 288 683 q 372 619 314 586 q 506 651 429 651 q 725 567 644 651 q 806 326 806 483 q 765 151 806 228 q 647 33 725 75 q 458 -10 568 -10 q 161 124 243 -10 q 79 493 79 257 q 167 894 79 765 q 451 1022 254 1022 q 688 934 607 1022 q 778 711 768 846 l 556 711 m 308 338 q 344 234 308 274 q 450 194 381 194 q 548 229 513 194 q 583 331 583 264 q 547 433 583 397 q 449 468 511 468 q 349 434 389 468 q 308 338 308 400 z "},"7":{"ha":708,"x_min":25,"x_max":683,"o":"m 683 815 l 332 0 l 86 0 l 442 788 l 25 788 l 25 992 l 683 992 l 683 815 z "},"8":{"ha":896,"x_min":69,"x_max":825,"o":"m 93 761 q 133 894 93 832 q 253 996 174 957 q 447 1035 333 1035 q 642 996 563 1035 q 762 894 722 957 q 801 761 801 832 q 765 628 801 683 q 660 544 729 574 q 825 296 825 471 q 775 124 825 196 q 640 16 725 53 q 447 -21 554 -21 q 256 16 342 -21 q 119 124 169 53 q 69 296 69 196 q 235 544 69 471 q 129 628 165 574 q 93 761 93 683 m 326 721 q 359 634 326 664 q 447 604 392 604 q 535 634 503 604 q 568 721 568 664 q 535 808 568 776 q 447 840 501 840 q 360 808 393 840 q 326 721 326 776 m 300 310 q 340 211 300 247 q 447 175 379 175 q 555 211 515 175 q 594 310 594 247 q 553 408 594 372 q 447 443 513 443 q 341 408 382 443 q 300 310 300 372 z "},"9":{"ha":835,"x_min":53,"x_max":779,"o":"m 303 301 q 425 181 322 181 q 538 254 506 181 q 568 483 571 328 q 487 394 544 426 q 353 361 429 361 q 133 445 214 361 q 53 686 53 529 q 93 861 53 785 q 212 980 133 938 q 400 1022 290 1022 q 632 960 549 1022 q 747 790 715 897 q 779 531 779 682 q 698 127 779 264 q 425 -10 617 -10 q 244 33 319 -10 q 127 146 168 75 q 81 301 86 217 l 303 301 m 550 675 q 514 778 550 739 q 408 818 478 818 q 310 783 346 818 q 275 682 275 749 q 311 580 275 615 q 410 544 347 544 q 510 578 469 544 q 550 675 550 613 z "},"\u0000":{"ha":0,"x_min":0,"x_max":0,"o":""},"\r":{"ha":278,"x_min":0,"x_max":0,"o":""}," ":{"ha":278,"x_min":0,"x_max":0,"o":""},"अ":{"ha":1167,"x_min":83,"x_max":1189,"o":"m 1189 1028 l 1189 846 l 1053 846 l 1053 0 l 835 0 l 835 365 l 699 365 l 699 353 q 619 156 699 229 q 410 82 540 82 q 239 119 313 82 q 124 222 165 156 q 83 375 83 289 l 288 375 q 317 300 288 331 q 396 269 347 269 q 473 299 444 269 q 501 375 501 328 q 469 454 501 422 q 372 486 436 486 l 310 486 l 310 661 l 372 661 q 459 688 426 661 q 492 758 492 715 q 465 829 492 803 q 394 856 438 856 q 322 830 350 856 q 293 763 293 804 l 93 763 q 131 908 93 844 q 236 1006 168 971 q 394 1040 304 1040 q 606 972 526 1040 q 685 788 685 903 q 647 658 685 713 q 539 581 608 604 l 539 576 q 608 544 578 567 l 835 544 l 835 1028 l 1189 1028 z "},"आ":{"ha":1604,"x_min":83,"x_max":1632,"o":"m 1189 1028 l 1189 846 l 1053 846 l 1053 0 l 835 0 l 835 365 l 699 365 l 699 353 q 619 156 699 229 q 410 82 540 82 q 239 119 313 82 q 124 222 165 156 q 83 375 83 289 l 288 375 q 317 300 288 331 q 396 269 347 269 q 473 299 444 269 q 501 375 501 328 q 469 454 501 422 q 372 486 436 486 l 310 486 l 310 661 l 372 661 q 459 688 426 661 q 492 758 492 715 q 465 829 492 803 q 394 856 438 856 q 322 830 350 856 q 293 763 293 804 l 93 763 q 131 908 93 844 q 236 1006 168 971 q 394 1040 304 1040 q 606 972 526 1040 q 685 788 685 903 q 647 658 685 713 q 539 581 608 604 l 539 576 q 608 544 578 567 l 835 544 l 835 1028 l 1189 1028 m 1278 846 l 1142 846 l 1142 1028 l 1632 1028 l 1632 846 l 1497 846 l 1497 0 l 1278 0 l 1278 846 z "},"इ":{"ha":803,"x_min":-31,"x_max":833,"o":"m 394 590 q 329 575 356 590 q 303 525 303 560 q 326 478 303 493 q 388 463 349 463 l 449 463 q 653 404 571 463 q 735 214 735 346 q 670 42 735 108 q 493 -25 606 -25 q 387 -3 431 -25 q 319 47 343 19 l 319 -117 l 113 -117 l 113 240 l 308 240 q 344 164 313 192 q 429 136 376 136 q 502 160 476 136 q 528 219 528 183 q 495 287 528 265 q 407 308 463 308 q 319 311 353 308 q 153 369 224 315 q 83 528 83 422 q 155 691 83 636 q 339 746 226 746 l 440 746 l 440 846 l -31 846 l -31 1028 l 833 1028 l 833 846 l 651 846 l 651 590 l 394 590 z "},"ई":{"ha":803,"x_min":-31,"x_max":996,"o":"m 394 590 q 329 575 356 590 q 303 525 303 560 q 326 478 303 493 q 388 463 349 463 l 449 463 q 653 404 571 463 q 735 214 735 346 q 670 42 735 108 q 493 -25 606 -25 q 387 -3 431 -25 q 319 47 343 19 l 319 -117 l 113 -117 l 113 240 l 308 240 q 344 164 313 192 q 429 136 376 136 q 502 160 476 136 q 528 219 528 183 q 495 287 528 265 q 407 308 463 308 q 319 311 353 308 q 153 369 224 315 q 83 528 83 422 q 155 691 83 636 q 339 746 226 746 l 440 746 l 440 846 l -31 846 l -31 1028 l 833 1028 l 833 846 l 651 846 l 651 590 l 394 590 m 443 1117 q 507 1331 443 1244 q 719 1418 571 1418 q 924 1342 853 1418 q 989 1133 996 1265 l 797 1133 q 779 1210 799 1183 q 724 1238 760 1238 q 664 1208 682 1238 q 646 1119 646 1179 l 646 993 l 443 993 l 443 1117 z "},"उ":{"ha":785,"x_min":-24,"x_max":808,"o":"m 688 763 q 652 625 688 679 q 560 557 617 571 l 560 554 q 677 466 632 533 q 722 307 722 399 q 685 150 722 218 q 576 44 647 82 q 406 6 504 6 q 224 45 303 6 q 100 158 144 85 q 56 331 56 232 l 264 331 q 301 237 264 274 q 394 200 338 200 q 483 235 450 200 q 517 325 517 269 q 483 417 517 379 q 385 454 450 454 l 300 454 l 300 644 l 353 644 q 444 677 410 644 q 478 774 478 710 l 478 846 l -24 846 l -24 1028 l 808 1028 l 808 846 l 688 846 l 688 763 z "},"ऊ":{"ha":1185,"x_min":-24,"x_max":1206,"o":"m 688 763 q 652 625 688 679 q 560 557 617 571 l 560 554 l 807 554 q 1044 485 957 554 q 1132 281 1132 417 q 1061 96 1132 165 q 867 26 990 26 q 785 35 828 26 l 785 199 l 828 197 q 897 220 871 197 q 922 289 922 243 q 892 358 922 335 q 810 382 861 382 l 707 382 q 719 294 719 343 q 682 147 719 213 q 573 43 644 81 q 406 6 501 6 q 224 45 303 6 q 100 158 144 85 q 56 331 56 232 l 264 331 q 301 237 264 274 q 394 200 338 200 q 483 235 450 200 q 517 325 517 269 q 483 417 517 379 q 385 454 450 454 l 300 454 l 300 644 l 353 644 q 444 677 410 644 q 478 774 478 710 l 478 846 l -24 846 l -24 1028 l 1206 1028 l 1206 846 l 688 846 l 688 763 z "},"ऋ":{"ha":1461,"x_min":-24,"x_max":1485,"o":"m 863 846 l 863 626 l 1065 626 q 1131 646 1108 626 q 1153 701 1153 665 l 1153 753 l 1340 753 l 1340 267 l 1303 267 q 1217 240 1246 267 q 1188 168 1188 213 q 1222 97 1188 119 q 1313 74 1257 74 q 1393 83 1351 74 l 1393 -90 q 1283 -100 1340 -100 q 1063 -35 1147 -100 q 978 149 978 31 q 1024 296 978 236 q 1153 382 1071 356 l 1153 474 q 1032 454 1094 454 l 863 454 l 863 0 l 663 0 l 663 238 l 403 0 l 125 0 l 125 10 l 658 449 q 598 526 640 497 q 496 554 556 554 q 356 501 407 554 q 306 358 306 447 l 88 358 q 128 557 88 471 q 247 691 169 643 q 431 739 324 739 q 663 642 581 739 l 663 846 l -24 846 l -24 1028 l 1485 1028 l 1485 846 l 863 846 z "},"ॠ":{"ha":1439,"x_min":-24,"x_max":1488,"o":"m 863 846 l 863 626 l 1065 626 q 1131 646 1108 626 q 1153 701 1153 665 l 1153 753 l 1340 753 l 1340 263 l 1290 263 q 1192 194 1192 263 q 1293 128 1192 128 l 1372 128 l 1372 -35 l 1303 -35 q 1190 -106 1190 -35 q 1306 -176 1190 -176 q 1384 -169 1344 -176 q 1447 -156 1424 -162 l 1447 -315 q 1368 -337 1417 -329 q 1272 -344 1319 -344 q 1065 -292 1150 -344 q 981 -129 981 -239 q 1019 -19 981 -65 q 1119 42 1057 26 l 1119 46 q 1019 99 1057 60 q 982 206 982 138 q 1031 323 982 282 q 1153 376 1079 364 l 1153 474 q 1032 454 1094 454 l 863 454 l 863 0 l 663 0 l 663 238 l 403 0 l 125 0 l 125 10 l 658 449 q 598 526 640 497 q 496 554 556 554 q 356 501 407 554 q 306 358 306 447 l 88 358 q 128 557 88 471 q 247 691 169 643 q 431 739 324 739 q 663 642 581 739 l 663 846 l -24 846 l -24 1028 l 1488 1028 l 1488 846 l 863 846 z "},"ऌ":{"ha":1258,"x_min":-24,"x_max":1282,"o":"m 996 846 l 996 715 q 1134 603 1082 683 q 1186 401 1186 524 q 1164 263 1186 329 l 1154 263 q 1010 161 1010 263 q 1047 92 1010 115 q 1142 69 1083 69 q 1222 79 1185 69 l 1222 -94 q 1113 -104 1169 -104 q 887 -37 972 -104 q 801 151 801 29 q 848 288 801 229 q 967 371 894 347 q 968 401 968 381 q 937 504 968 465 q 850 543 906 543 q 756 497 786 543 q 725 379 725 451 l 725 339 l 544 339 l 544 379 q 514 497 544 450 q 422 543 483 543 q 328 503 361 543 q 294 397 294 464 q 334 278 294 318 q 443 238 374 238 l 481 240 l 481 50 q 433 49 461 49 q 167 144 261 49 q 74 401 74 239 q 117 585 74 510 q 231 698 160 661 q 390 735 303 735 q 541 691 482 735 q 629 576 600 647 l 635 576 q 692 664 654 626 q 785 719 731 701 l 785 846 l -24 846 l -24 1028 l 1282 1028 l 1282 846 l 996 846 z "},"ॡ":{"ha":1274,"x_min":-24,"x_max":1294,"o":"m 996 846 l 996 715 q 1134 603 1082 683 q 1186 401 1186 524 q 1164 263 1186 329 l 1122 263 q 1022 194 1022 263 q 1125 128 1022 128 l 1204 128 l 1204 -35 l 1135 -35 q 1021 -106 1021 -35 q 1138 -176 1021 -176 q 1217 -169 1178 -176 q 1279 -156 1256 -162 l 1279 -315 q 1200 -337 1249 -329 q 1104 -344 1151 -344 q 897 -292 982 -344 q 813 -128 813 -239 q 851 -19 813 -65 q 951 42 890 26 l 951 46 q 851 99 889 60 q 814 206 814 138 q 857 317 814 276 q 967 374 900 358 q 968 401 968 382 q 937 504 968 465 q 850 543 906 543 q 756 497 786 543 q 725 379 725 451 l 725 339 l 544 339 l 544 379 q 514 497 544 450 q 422 543 483 543 q 328 503 361 543 q 294 397 294 464 q 334 278 294 318 q 443 238 374 238 l 481 240 l 481 50 q 433 49 461 49 q 167 144 261 49 q 74 401 74 239 q 117 585 74 510 q 231 698 160 661 q 390 735 303 735 q 541 691 482 735 q 629 576 600 647 l 635 576 q 692 664 654 626 q 785 719 731 701 l 785 846 l -24 846 l -24 1028 l 1294 1028 l 1294 846 l 996 846 z "},"ए":{"ha":907,"x_min":-24,"x_max":931,"o":"m 931 846 l 810 846 l 810 736 q 750 514 810 590 q 556 438 690 438 q 481 443 515 438 l 481 639 q 508 638 490 638 q 576 663 554 638 q 597 742 597 689 l 597 846 l 332 846 l 332 365 q 367 252 332 292 q 464 213 403 213 q 556 247 522 213 q 590 340 590 281 l 803 340 q 712 109 803 192 q 468 26 621 26 q 206 121 296 26 q 115 374 115 215 l 114 846 l -24 846 l -24 1028 l 931 1028 l 931 846 z "},"ऐ":{"ha":907,"x_min":-24,"x_max":931,"o":"m 931 846 l 810 846 l 810 736 q 750 514 810 590 q 556 438 690 438 q 481 443 515 438 l 481 639 q 508 638 490 638 q 576 663 554 638 q 597 742 597 689 l 597 846 l 332 846 l 332 365 q 367 252 332 292 q 464 213 403 213 q 556 247 522 213 q 590 340 590 281 l 803 340 q 712 109 803 192 q 468 26 621 26 q 206 121 296 26 q 115 374 115 215 l 114 846 l -24 846 l -24 1028 l 931 1028 l 931 846 m 596 1022 q 504 1149 539 1110 q 432 1201 469 1188 q 331 1214 394 1214 l 257 1214 l 257 1389 l 326 1389 q 511 1363 443 1388 q 644 1263 579 1339 q 800 1022 708 1188 l 596 1022 z "},"ओ":{"ha":1608,"x_min":83,"x_max":1632,"o":"m 1283 1022 q 1192 1149 1226 1110 q 1119 1201 1157 1188 q 1018 1214 1082 1214 l 944 1214 l 944 1389 l 1014 1389 q 1199 1363 1131 1388 q 1331 1263 1267 1339 q 1488 1022 1396 1188 l 1283 1022 m 1189 1028 l 1189 846 l 1053 846 l 1053 0 l 835 0 l 835 365 l 699 365 l 699 353 q 619 156 699 229 q 410 82 540 82 q 239 119 313 82 q 124 222 165 156 q 83 375 83 289 l 288 375 q 317 300 288 331 q 396 269 347 269 q 473 299 444 269 q 501 375 501 328 q 469 454 501 422 q 372 486 436 486 l 310 486 l 310 661 l 372 661 q 459 688 426 661 q 492 758 492 715 q 465 829 492 803 q 394 856 438 856 q 322 830 350 856 q 293 763 293 804 l 93 763 q 131 908 93 844 q 236 1006 168 971 q 394 1040 304 1040 q 606 972 526 1040 q 685 788 685 903 q 647 658 685 713 q 539 581 608 604 l 539 576 q 608 544 578 567 l 835 544 l 835 1028 l 1189 1028 m 1278 846 l 1142 846 l 1142 1028 l 1632 1028 l 1632 846 l 1497 846 l 1497 0 l 1278 0 l 1278 846 z "},"औ":{"ha":1608,"x_min":83,"x_max":1632,"o":"m 1000 1489 q 1177 1464 1117 1489 q 1302 1346 1238 1439 q 1486 1024 1367 1253 l 1299 1024 l 1272 1040 q 1172 1099 1201 1085 q 1110 1118 1142 1114 q 1001 1122 1078 1122 l 926 1122 l 926 1258 l 996 1258 q 1107 1254 1071 1258 q 1178 1234 1143 1250 q 1264 1179 1214 1218 q 1176 1297 1215 1260 q 1101 1342 1136 1333 q 1006 1351 1065 1351 l 926 1351 l 926 1489 l 1000 1489 m 1189 1028 l 1189 846 l 1053 846 l 1053 0 l 835 0 l 835 365 l 699 365 l 699 353 q 619 156 699 229 q 410 82 540 82 q 239 119 313 82 q 124 222 165 156 q 83 375 83 289 l 288 375 q 317 300 288 331 q 396 269 347 269 q 473 299 444 269 q 501 375 501 328 q 469 454 501 422 q 372 486 436 486 l 310 486 l 310 661 l 372 661 q 459 688 426 661 q 492 758 492 715 q 465 829 492 803 q 394 856 438 856 q 322 830 350 856 q 293 763 293 804 l 93 763 q 131 908 93 844 q 236 1006 168 971 q 394 1040 304 1040 q 606 972 526 1040 q 685 788 685 903 q 647 658 685 713 q 539 581 608 604 l 539 576 q 608 544 578 567 l 835 544 l 835 1028 l 1189 1028 m 1278 846 l 1142 846 l 1142 1028 l 1632 1028 l 1632 846 l 1497 846 l 1497 0 l 1278 0 l 1278 846 z "},"ऍ":{"ha":907,"x_min":-24,"x_max":931,"o":"m 931 846 l 810 846 l 810 736 q 750 514 810 590 q 556 438 690 438 q 481 443 515 438 l 481 639 q 508 638 490 638 q 576 663 554 638 q 597 742 597 689 l 597 846 l 332 846 l 332 365 q 367 252 332 292 q 464 213 403 213 q 556 247 522 213 q 590 340 590 281 l 803 340 q 712 109 803 192 q 468 26 621 26 q 206 121 296 26 q 115 374 115 215 l 114 846 l -24 846 l -24 1028 l 931 1028 l 931 846 m 454 1138 q 205 1217 288 1138 q 122 1431 122 1297 l 310 1431 q 345 1335 310 1372 q 454 1299 381 1299 q 564 1335 528 1299 q 600 1431 600 1372 l 788 1431 q 704 1217 788 1297 q 454 1138 621 1138 z "},"ॲ":{"ha":1171,"x_min":83,"x_max":1288,"o":"m 1189 1028 l 1189 846 l 1053 846 l 1053 0 l 835 0 l 835 365 l 699 365 l 699 353 q 619 156 699 229 q 410 82 540 82 q 239 119 313 82 q 124 222 165 156 q 83 375 83 289 l 288 375 q 317 300 288 331 q 396 269 347 269 q 473 299 444 269 q 501 375 501 328 q 469 454 501 422 q 372 486 436 486 l 310 486 l 310 661 l 372 661 q 459 688 426 661 q 492 758 492 715 q 465 829 492 803 q 394 856 438 856 q 322 830 350 856 q 293 763 293 804 l 93 763 q 131 908 93 844 q 236 1006 168 971 q 394 1040 304 1040 q 606 972 526 1040 q 685 788 685 903 q 647 658 685 713 q 539 581 608 604 l 539 576 q 608 544 578 567 l 835 544 l 835 1028 l 1189 1028 m 954 1144 q 705 1224 788 1144 q 622 1438 622 1304 l 810 1438 q 845 1342 810 1379 q 954 1306 881 1306 q 1064 1342 1028 1306 q 1100 1438 1100 1379 l 1288 1438 q 1204 1224 1288 1304 q 954 1144 1121 1144 z "},"ऑ":{"ha":1608,"x_min":83,"x_max":1632,"o":"m 1189 1028 l 1189 846 l 1053 846 l 1053 0 l 835 0 l 835 365 l 699 365 l 699 353 q 619 156 699 229 q 410 82 540 82 q 239 119 313 82 q 124 222 165 156 q 83 375 83 289 l 288 375 q 317 300 288 331 q 396 269 347 269 q 473 299 444 269 q 501 375 501 328 q 469 454 501 422 q 372 486 436 486 l 310 486 l 310 661 l 372 661 q 459 688 426 661 q 492 758 492 715 q 465 829 492 803 q 394 856 438 856 q 322 830 350 856 q 293 763 293 804 l 93 763 q 131 908 93 844 q 236 1006 168 971 q 394 1040 304 1040 q 606 972 526 1040 q 685 788 685 903 q 647 658 685 713 q 539 581 608 604 l 539 576 q 608 544 578 567 l 835 544 l 835 1028 l 1189 1028 m 1278 846 l 1142 846 l 1142 1028 l 1632 1028 l 1632 846 l 1497 846 l 1497 0 l 1278 0 l 1278 846 m 1169 1138 q 920 1217 1003 1138 q 838 1431 838 1297 l 1025 1431 q 1060 1335 1025 1372 q 1169 1299 1096 1299 q 1279 1335 1243 1299 q 1315 1431 1315 1372 l 1503 1431 q 1419 1217 1503 1297 q 1169 1138 1336 1138 z "},"ा":{"ha":443,"x_min":-24,"x_max":467,"o":"m 113 846 l -24 846 l -24 1028 l 467 1028 l 467 846 l 332 846 l 332 0 l 113 0 l 113 846 z "},"ि":{"ha":443,"x_min":-24,"x_max":1272,"o":"m 693 1432 q 998 1378 867 1432 q 1201 1226 1129 1324 q 1272 1004 1272 1129 l 1272 979 l 1054 979 l 1054 1000 q 1004 1140 1054 1083 q 872 1226 954 1197 q 693 1254 789 1254 q 442 1197 546 1254 q 331 1028 339 1140 l 467 1028 l 467 846 l 332 846 l 332 0 l 113 0 l 113 846 l -24 846 l -24 1028 l 113 1028 q 192 1242 119 1150 q 394 1383 265 1333 q 693 1432 522 1432 z "},"ी":{"ha":443,"x_min":-332,"x_max":467,"o":"m 467 1028 l 467 846 l 332 846 l 332 0 l 113 0 l 113 846 l -24 846 l -24 1028 l 119 1028 l 119 1081 q 3 1249 119 1249 q -119 1081 -119 1249 l -119 981 l -332 981 l -332 1069 q -252 1335 -332 1238 q 3 1432 -172 1432 q 255 1334 178 1432 q 332 1069 332 1236 l 332 1028 l 467 1028 z "},"ु":{"ha":0,"x_min":-654,"x_max":13,"o":"m -293 -472 q -472 -440 -390 -472 q -604 -335 -554 -407 q -653 -149 -654 -262 l -460 -149 q -417 -264 -461 -226 q -299 -301 -374 -301 q -206 -276 -239 -301 q -172 -203 -172 -250 q -201 -136 -172 -162 q -282 -110 -229 -110 l -332 -110 l -332 60 l -282 60 q -62 -10 -137 60 q 13 -206 13 -81 q -70 -401 13 -329 q -293 -472 -153 -472 z "},"ू":{"ha":0,"x_min":-531,"x_max":142,"o":"m -265 -451 q -455 -387 -379 -451 q -531 -206 -531 -324 q -447 -16 -531 -85 q -229 53 -364 53 q 56 -66 -29 53 q 142 -365 142 -185 l 140 -443 l -39 -443 l -39 -356 q -87 -172 -39 -235 q -232 -110 -135 -110 q -320 -134 -285 -110 q -356 -206 -356 -158 q -325 -272 -356 -249 q -250 -296 -294 -296 q -212 -294 -226 -296 l -212 -450 q -265 -451 -231 -451 z "},"ृ":{"ha":0,"x_min":-496,"x_max":-39,"o":"m -190 -467 q -406 -402 -317 -467 q -496 -203 -496 -337 q -415 -15 -496 -86 q -193 56 -335 56 l -112 54 l -112 -94 l -175 -94 q -257 -122 -228 -94 q -286 -194 -286 -150 q -249 -269 -286 -246 q -154 -293 -212 -293 q -39 -275 -100 -293 l -39 -444 q -190 -467 -110 -467 z "},"ॄ":{"ha":0,"x_min":-450,"x_max":17,"o":"m -158 -668 q -365 -616 -281 -668 q -450 -454 -450 -564 q -411 -344 -450 -390 q -311 -285 -372 -299 l -311 -279 q -411 -227 -374 -265 q -449 -121 -449 -189 q -381 13 -449 -29 q -226 56 -312 56 l -112 56 l -112 -62 l -140 -62 q -240 -131 -240 -62 q -212 -183 -240 -167 q -139 -199 -183 -199 l -58 -199 l -58 -358 l -128 -358 q -210 -374 -179 -358 q -240 -431 -240 -389 q -125 -500 -240 -500 q -47 -493 -86 -500 q 17 -479 -7 -486 l 17 -642 q -64 -661 -15 -654 q -158 -668 -112 -668 z "},"ॢ":{"ha":0,"x_min":-642,"x_max":225,"o":"m 164 -529 q 225 -521 196 -529 l 225 -656 q 142 -662 179 -662 q -31 -612 35 -662 q -96 -468 -96 -561 q -60 -365 -96 -408 q 29 -303 -25 -321 l 29 -283 q 6 -208 29 -236 q -57 -179 -17 -179 q -125 -213 -103 -179 q -147 -299 -147 -247 l -147 -329 l -287 -329 l -287 -299 q -310 -212 -287 -246 q -376 -179 -332 -179 q -445 -208 -421 -179 q -469 -286 -469 -237 q -440 -372 -469 -343 q -361 -401 -411 -401 q -333 -399 -343 -401 l -333 -547 l -369 -547 q -570 -476 -499 -547 q -642 -283 -642 -404 q -609 -144 -642 -201 q -522 -58 -576 -86 q -403 -31 -468 -31 q -289 -63 -333 -31 q -222 -149 -244 -96 l -219 -149 q -149 -63 -197 -96 q -31 -31 -101 -31 q 85 -59 32 -31 q 169 -144 138 -87 q 201 -283 201 -201 q 185 -387 201 -340 l 176 -387 q 67 -461 67 -387 q 94 -512 67 -494 q 164 -529 122 -529 z "},"ॣ":{"ha":0,"x_min":-642,"x_max":267,"o":"m 161 -712 q 221 -708 190 -712 q 267 -697 251 -703 l 267 -822 q 207 -837 243 -832 q 135 -842 171 -842 q -22 -803 42 -842 q -85 -681 -85 -764 q -56 -597 -85 -631 q 19 -553 -28 -562 l 19 -550 q -56 -508 -28 -539 q -85 -426 -85 -478 q -53 -342 -85 -374 q 29 -300 -21 -311 l 29 -283 q 6 -208 29 -236 q -57 -179 -17 -179 q -125 -213 -103 -179 q -147 -299 -147 -247 l -147 -329 l -287 -329 l -287 -299 q -310 -212 -287 -246 q -376 -179 -332 -179 q -445 -208 -421 -179 q -469 -286 -469 -237 q -440 -372 -469 -343 q -361 -401 -411 -401 q -333 -399 -343 -401 l -333 -547 l -369 -547 q -570 -476 -499 -547 q -642 -283 -642 -404 q -609 -144 -642 -201 q -522 -58 -576 -86 q -403 -31 -468 -31 q -289 -63 -333 -31 q -222 -149 -244 -96 l -219 -149 q -149 -63 -197 -96 q -31 -31 -101 -31 q 85 -59 32 -31 q 169 -144 138 -87 q 201 -283 201 -201 q 185 -387 201 -340 l 150 -387 q 76 -436 76 -387 q 97 -473 76 -461 q 153 -485 118 -485 l 211 -485 l 211 -610 l 161 -610 q 98 -621 121 -610 q 75 -664 75 -632 q 161 -712 75 -712 z "},"े":{"ha":0,"x_min":-658,"x_max":-115,"o":"m -319 1022 q -411 1149 -376 1110 q -483 1201 -446 1188 q -585 1214 -521 1214 l -658 1214 l -658 1389 l -589 1389 q -404 1363 -472 1388 q -272 1263 -336 1339 q -115 1022 -207 1188 l -319 1022 z "},"ै":{"ha":0,"x_min":-675,"x_max":-115,"o":"m -601 1489 q -424 1464 -485 1489 q -299 1346 -364 1439 q -115 1024 -235 1253 l -303 1024 l -329 1040 q -430 1099 -400 1085 q -492 1118 -460 1114 q -600 1122 -524 1122 l -675 1122 l -675 1258 l -606 1258 q -494 1254 -531 1258 q -423 1234 -458 1250 q -337 1179 -387 1218 q -426 1297 -386 1260 q -501 1342 -465 1333 q -596 1351 -536 1351 l -675 1351 l -675 1489 l -601 1489 z "},"ो":{"ha":444,"x_min":-214,"x_max":467,"o":"m 113 846 l -24 846 l -24 1028 l 467 1028 l 467 846 l 332 846 l 332 0 l 113 0 l 113 846 m 125 1022 q 33 1149 68 1110 q -39 1201 -1 1188 q -140 1214 -76 1214 l -214 1214 l -214 1389 l -144 1389 q 40 1363 -28 1388 q 173 1263 108 1339 q 329 1022 238 1188 l 125 1022 z "},"ौ":{"ha":443,"x_min":-237,"x_max":467,"o":"m 113 846 l -24 846 l -24 1028 l 467 1028 l 467 846 l 332 846 l 332 0 l 113 0 l 113 846 m -164 1489 q 13 1464 -47 1489 q 138 1346 74 1439 q 322 1024 203 1253 l 135 1024 l 108 1040 q 8 1099 38 1085 q -54 1118 -22 1114 q -162 1122 -86 1122 l -237 1122 l -237 1258 l -168 1258 q -57 1254 -93 1258 q 15 1234 -21 1250 q 100 1179 50 1218 q 12 1297 51 1260 q -63 1342 -28 1333 q -158 1351 -99 1351 l -237 1351 l -237 1489 l -164 1489 z "},"ॅ":{"ha":0,"x_min":-565,"x_max":100,"o":"m -233 1126 q -483 1206 -400 1126 q -565 1419 -565 1286 l -378 1419 q -342 1324 -378 1361 q -233 1288 -307 1288 q -124 1324 -160 1288 q -87 1419 -87 1361 l 100 1419 q 17 1206 100 1286 q -233 1126 -67 1126 z "},"ॉ":{"ha":446,"x_min":-110,"x_max":556,"o":"m 114 846 l -22 846 l -22 1028 l 468 1028 l 468 846 l 333 846 l 333 0 l 114 0 l 114 846 m 222 1126 q -27 1206 56 1126 q -110 1419 -110 1286 l 78 1419 q 113 1324 78 1361 q 222 1288 149 1288 q 332 1324 296 1288 q 368 1419 368 1361 l 556 1419 q 472 1206 556 1286 q 222 1126 389 1126 z "},"क":{"ha":1340,"x_min":-24,"x_max":1364,"o":"m 786 846 l 786 640 q 867 712 817 686 q 986 738 918 738 q 1136 695 1072 738 q 1233 581 1200 653 q 1267 419 1267 508 q 1230 249 1267 321 q 1128 140 1193 178 q 981 103 1064 103 q 886 114 931 103 l 886 285 q 922 281 901 281 q 1011 317 976 281 q 1046 414 1046 353 q 1010 513 1046 474 q 917 551 975 551 q 819 508 853 551 q 786 400 786 465 l 786 0 l 576 0 l 576 192 q 490 116 544 143 q 360 89 435 89 q 208 130 274 89 q 108 245 143 171 q 74 414 74 319 q 153 649 74 560 q 368 738 232 738 q 492 713 440 738 q 576 642 544 688 l 576 846 l -24 846 l -24 1028 l 1364 1028 l 1364 846 l 786 846 m 435 272 q 538 315 500 272 q 576 414 576 357 q 539 512 576 471 q 436 553 501 553 q 335 514 375 553 q 294 414 294 475 q 333 311 294 350 q 435 272 372 272 z "},"ख":{"ha":1333,"x_min":-24,"x_max":1357,"o":"m 1357 1028 l 1357 846 l 1222 846 l 1222 0 l 1004 0 l 1004 219 q 840 154 946 154 q 797 157 825 154 q 667 35 747 81 q 482 -10 588 -10 q 197 94 301 -10 q 92 383 92 197 l 92 560 l 126 560 q 268 603 222 560 q 314 740 314 646 l 314 846 l -24 846 l -24 1028 l 1357 1028 m 488 179 q 638 247 590 179 q 574 443 574 329 q 608 588 574 524 q 703 690 642 653 q 840 726 764 726 q 1004 660 947 726 l 1004 846 l 533 846 l 533 710 q 472 498 533 575 q 307 408 411 421 l 307 358 q 355 229 307 279 q 488 179 403 179 m 889 321 q 974 356 943 321 q 1004 442 1004 392 q 975 526 1004 490 q 889 561 946 561 q 803 529 838 561 q 768 443 768 497 q 802 353 768 385 q 889 321 836 321 z "},"ग":{"ha":1132,"x_min":-24,"x_max":1156,"o":"m 1156 1028 l 1156 846 l 1019 846 l 1019 0 l 801 0 l 801 846 l 626 846 l 626 532 q 556 317 626 399 q 342 236 485 236 q 126 310 203 236 q 50 521 50 383 q 51 567 50 551 l 263 567 l 263 522 q 336 421 263 421 q 407 524 407 421 l 407 846 l -24 846 l -24 1028 l 1156 1028 z "},"घ":{"ha":971,"x_min":-24,"x_max":994,"o":"m 994 846 l 860 846 l 860 0 l 640 0 l 640 238 q 533 158 597 186 q 392 131 469 131 q 176 197 261 131 q 92 385 92 264 q 135 514 92 461 q 240 585 178 567 l 240 589 q 144 651 181 604 q 108 781 108 699 l 108 846 l -24 846 l -24 1028 l 994 1028 l 994 846 m 640 846 l 326 846 l 326 792 q 356 706 326 736 q 451 676 385 676 l 506 676 l 506 501 l 435 501 q 343 476 374 501 q 313 407 313 450 q 349 333 313 358 q 444 308 386 308 q 585 360 529 308 q 640 496 640 411 l 640 846 z "},"ङ":{"ha":975,"x_min":-24,"x_max":999,"o":"m 999 1028 l 999 846 l 657 846 l 657 590 l 400 590 q 335 575 361 590 q 310 526 310 560 q 333 478 310 493 q 392 463 356 463 l 454 463 q 659 405 576 463 q 742 219 742 347 q 660 39 742 106 q 428 -28 578 -28 q 175 43 274 -28 q 71 240 76 114 l 288 240 q 326 163 289 190 q 421 136 364 136 q 505 159 475 136 q 535 221 535 182 q 502 287 535 265 q 414 308 469 308 l 365 308 q 174 358 258 308 q 90 533 90 407 q 162 690 90 638 q 344 743 233 743 l 447 743 l 447 846 l -24 846 l -24 1028 l 999 1028 m 846 626 q 927 594 894 626 q 960 513 960 561 q 926 433 960 465 q 846 400 893 400 q 765 433 799 400 q 732 513 732 465 q 765 594 732 561 q 846 626 799 626 z "},"च":{"ha":1046,"x_min":-24,"x_max":1069,"o":"m 1069 846 l 933 846 l 933 0 l 715 0 l 715 222 q 614 143 676 171 q 474 115 551 115 q 328 147 393 115 q 226 238 264 178 q 189 378 189 297 q 206 468 189 426 q 256 540 224 510 l 71 540 l 71 713 l 583 713 l 583 540 l 526 540 q 431 507 468 540 q 393 418 393 474 q 433 328 393 361 q 535 296 474 296 q 667 355 619 296 q 715 511 715 414 l 715 846 l -24 846 l -24 1028 l 1069 1028 l 1069 846 z "},"छ":{"ha":1144,"x_min":-24,"x_max":1168,"o":"m 907 846 l 907 733 q 1038 633 990 706 q 1085 451 1085 560 q 1022 228 1085 324 q 841 80 960 132 q 558 28 722 28 q 215 106 343 28 q 86 336 86 185 q 126 472 86 418 q 238 551 167 526 l 238 556 q 142 617 178 571 q 107 747 107 664 l 107 846 l -24 846 l -24 1028 l 1168 1028 l 1168 846 l 907 846 m 706 846 l 325 846 l 325 757 q 436 643 325 643 l 464 643 l 464 468 l 440 468 q 341 437 375 468 q 307 357 307 406 q 369 251 307 288 q 560 214 431 214 q 808 278 721 214 q 894 463 894 342 q 869 554 894 519 q 806 589 844 589 q 743 560 768 589 q 718 479 718 531 q 736 372 718 429 l 557 372 q 538 503 538 431 q 583 654 538 596 q 706 735 628 713 l 706 846 z "},"ज":{"ha":1194,"x_min":-24,"x_max":1218,"o":"m 1218 846 l 1082 846 l 1082 0 l 864 0 l 864 492 l 704 492 l 704 450 q 666 289 704 360 q 557 178 628 218 q 390 139 486 139 q 155 224 238 139 q 72 450 72 310 l 72 678 l 292 678 l 292 457 q 318 363 292 397 q 392 329 344 329 q 465 363 439 329 q 490 457 490 397 l 490 678 l 864 678 l 864 846 l -24 846 l -24 1028 l 1218 1028 l 1218 846 z "},"झ":{"ha":1207,"x_min":-24,"x_max":1231,"o":"m 1231 846 l 1094 846 l 1094 0 l 881 0 l 881 299 l 706 299 q 729 190 729 254 q 669 38 729 97 q 501 -21 608 -21 q 322 46 393 -21 l 322 -118 l 117 -118 l 117 235 l 313 235 q 347 165 315 192 q 432 139 379 139 q 503 162 479 139 q 528 219 528 185 q 498 285 528 261 q 407 308 468 308 q 319 311 353 308 q 153 369 224 315 q 83 528 83 422 q 155 691 83 636 q 339 746 226 746 l 440 746 l 440 846 l -24 846 l -24 1028 l 1231 1028 l 1231 846 m 881 463 l 881 846 l 651 846 l 651 590 l 394 590 q 329 575 356 590 q 303 525 303 560 q 326 478 303 493 q 388 463 349 463 l 449 463 l 881 463 z "},"ञ":{"ha":1160,"x_min":-24,"x_max":1183,"o":"m 1183 846 l 1049 846 l 1049 0 l 829 0 l 829 325 l 717 325 q 609 142 693 208 q 399 75 525 75 q 172 149 261 75 q 74 346 83 222 l 279 346 q 323 282 290 306 q 400 258 356 258 q 495 301 461 258 q 529 408 529 344 q 495 514 529 471 q 400 557 461 557 q 322 533 354 557 q 279 469 290 510 l 74 469 q 171 667 82 593 q 399 742 260 742 q 603 679 519 742 q 714 508 686 617 l 829 508 l 829 846 l -24 846 l -24 1028 l 1183 1028 l 1183 846 z "},"ट":{"ha":897,"x_min":-24,"x_max":921,"o":"m 490 557 q 348 512 404 557 q 292 382 292 467 q 340 263 292 308 q 468 217 389 217 q 599 265 550 217 q 649 393 649 314 l 857 393 q 810 201 857 283 q 676 73 763 118 q 474 28 589 28 q 266 72 357 28 q 124 198 175 117 q 74 385 74 279 q 121 570 74 490 q 257 694 168 650 q 467 740 346 739 l 467 846 l -24 846 l -24 1028 l 921 1028 l 921 846 l 681 846 l 681 557 l 490 557 z "},"ठ":{"ha":932,"x_min":-24,"x_max":956,"o":"m 572 846 l 572 739 q 779 622 699 711 q 860 396 860 533 q 808 208 860 288 q 667 85 757 128 q 467 42 578 42 q 266 85 356 42 q 125 208 176 128 q 74 396 74 288 q 153 622 74 533 q 357 738 232 710 l 357 846 l -24 846 l -24 1028 l 956 1028 l 956 846 l 572 846 m 643 396 q 594 519 643 471 q 467 567 546 567 q 339 519 388 567 q 290 396 290 471 q 339 272 290 321 q 467 224 388 224 q 594 272 546 224 q 643 396 643 319 z "},"ड":{"ha":786,"x_min":-24,"x_max":810,"o":"m 400 590 q 335 575 361 590 q 310 526 310 560 q 333 478 310 493 q 392 463 356 463 l 454 463 q 659 405 576 463 q 742 219 742 347 q 660 39 742 106 q 428 -28 578 -28 q 175 43 274 -28 q 71 240 76 114 l 288 240 q 326 163 289 190 q 421 136 364 136 q 505 159 475 136 q 535 221 535 182 q 502 287 535 265 q 414 308 469 308 l 365 308 q 174 358 258 308 q 90 533 90 407 q 162 690 90 638 q 344 743 233 743 l 443 743 l 443 846 l -24 846 l -24 1028 l 810 1028 l 810 846 l 654 846 l 654 590 l 400 590 z "},"ढ":{"ha":910,"x_min":-24,"x_max":933,"o":"m 547 601 q 358 541 431 601 q 285 369 285 481 q 347 207 285 269 q 525 144 408 144 q 653 178 604 144 q 703 271 703 211 q 682 328 703 306 q 628 350 661 350 q 577 331 597 350 q 557 282 557 311 q 561 260 557 268 l 406 260 q 400 313 400 296 q 465 453 400 403 q 636 504 531 504 q 822 440 754 504 q 889 271 889 376 q 793 63 889 138 q 521 -12 697 -12 q 292 34 393 -12 q 132 169 190 81 q 74 378 74 257 q 126 580 74 496 q 269 708 178 664 q 476 751 360 751 l 504 751 l 504 846 l -24 846 l -24 1028 l 933 1028 l 933 846 l 708 846 l 708 601 l 547 601 z "},"ण":{"ha":1244,"x_min":-24,"x_max":1268,"o":"m 1268 846 l 1132 846 l 1132 0 l 913 0 l 913 846 l 728 846 l 728 507 q 649 286 728 371 q 421 201 569 201 q 251 242 321 201 q 147 351 182 282 q 113 507 113 421 l 113 846 l -24 846 l -24 1028 l 1268 1028 l 1268 846 m 513 846 l 326 846 l 326 488 q 352 413 326 442 q 421 385 378 385 q 489 413 465 385 q 513 488 513 440 l 513 846 z "},"त":{"ha":983,"x_min":-24,"x_max":1007,"o":"m 1007 846 l 871 846 l 871 0 l 653 0 l 653 496 l 479 496 q 344 454 394 496 q 294 336 294 413 q 339 217 294 260 q 469 174 383 174 l 494 174 l 494 1 l 435 1 q 174 86 275 1 q 74 342 74 171 q 184 598 74 513 q 468 683 294 683 l 653 683 l 653 846 l -24 846 l -24 1028 l 1007 1028 l 1007 846 z "},"थ":{"ha":1103,"x_min":76,"x_max":1126,"o":"m 1126 1028 l 1126 846 l 990 846 l 990 0 l 772 0 l 772 264 q 659 158 738 201 q 471 115 581 115 q 264 163 353 115 q 126 299 175 210 q 76 510 76 389 q 83 610 76 567 l 204 610 q 393 644 325 610 q 461 764 461 679 q 439 828 461 803 q 378 854 417 854 q 314 828 338 854 q 290 758 290 803 q 296 710 290 740 l 99 710 q 93 764 93 746 q 132 915 93 853 q 236 1009 171 978 q 381 1040 301 1040 q 530 1006 465 1040 q 631 907 594 971 q 667 757 667 843 q 570 536 667 618 q 292 454 474 454 l 289 454 q 350 341 297 386 q 504 296 403 296 q 640 328 579 296 q 737 426 701 361 q 772 582 772 490 l 772 1028 l 1126 1028 z "},"द":{"ha":850,"x_min":-24,"x_max":874,"o":"m 467 549 q 344 509 390 549 q 297 400 297 469 q 334 300 297 338 q 433 263 371 263 q 522 297 486 263 q 558 390 558 331 l 761 390 l 761 -46 l 547 -46 l 547 160 q 472 108 518 126 q 369 90 426 90 q 222 126 289 90 q 114 233 154 161 q 74 406 74 304 q 121 585 74 510 q 252 698 168 660 q 443 736 336 736 l 496 736 l 496 846 l -24 846 l -24 1028 l 874 1028 l 872 846 l 715 846 l 715 549 l 467 549 z "},"ध":{"ha":1017,"x_min":89,"x_max":1050,"o":"m 1050 846 l 919 846 l 919 0 l 700 0 l 700 231 q 583 140 656 172 q 413 108 510 108 q 189 174 278 108 q 100 360 100 240 q 148 494 100 443 q 260 560 196 544 l 260 565 q 138 644 188 586 q 89 796 89 703 q 161 974 89 907 q 347 1040 233 1040 q 531 976 465 1040 q 597 806 597 911 q 596 749 597 764 l 435 749 l 436 778 q 414 836 436 814 q 356 858 392 858 q 296 835 318 858 q 274 772 274 811 q 325 683 274 713 q 449 654 376 654 l 532 654 l 532 479 l 458 479 q 358 455 394 479 q 321 385 321 431 q 360 312 321 338 q 468 286 400 286 q 637 353 574 286 q 700 528 700 419 l 700 1028 l 1050 1028 l 1050 846 z "},"न":{"ha":1143,"x_min":-24,"x_max":1167,"o":"m 1167 846 l 1031 846 l 1031 0 l 813 0 l 813 508 l 635 508 q 672 364 672 444 q 633 218 672 279 q 528 126 594 157 q 381 96 461 96 q 226 131 297 96 q 112 234 154 167 q 69 392 69 301 q 113 555 69 488 q 232 656 157 622 q 399 689 307 689 l 813 689 l 813 846 l -24 846 l -24 1028 l 1167 1028 l 1167 846 m 383 281 q 467 312 435 281 q 499 394 499 343 q 467 475 499 443 q 383 507 435 507 q 299 475 332 507 q 265 393 265 443 q 298 312 265 343 q 383 281 331 281 z "},"प":{"ha":940,"x_min":-24,"x_max":964,"o":"m 964 846 l 829 846 l 829 0 l 610 0 l 610 303 q 404 222 536 222 q 175 322 256 222 q 94 581 94 421 l 94 846 l -24 846 l -24 1028 l 964 1028 l 964 846 m 610 846 l 313 846 l 313 581 q 349 453 313 500 q 461 406 386 406 q 571 451 532 406 q 610 568 610 497 l 610 846 z "},"फ":{"ha":1368,"x_min":-24,"x_max":1392,"o":"m 806 846 l 806 642 q 892 713 839 688 q 1015 738 946 738 q 1165 697 1101 738 q 1262 584 1228 656 q 1296 425 1296 513 q 1260 252 1296 325 q 1158 141 1224 179 q 1010 103 1093 103 q 907 117 954 103 l 907 285 q 951 279 928 279 q 1041 317 1007 279 q 1075 414 1075 354 q 1040 513 1075 474 q 946 551 1004 551 q 841 503 876 551 q 806 378 806 456 l 806 0 l 586 0 l 586 300 q 393 222 517 222 q 172 318 250 222 q 94 569 94 414 l 94 846 l -24 846 l -24 1028 l 1392 1028 l 1392 846 l 806 846 m 586 846 l 313 846 l 313 569 q 347 450 313 494 q 449 406 381 406 q 550 449 514 406 q 586 557 586 492 l 586 846 z "},"ब":{"ha":956,"x_min":-24,"x_max":979,"o":"m 979 1028 l 979 846 l 843 846 l 843 0 l 633 0 l 633 176 q 542 107 600 132 q 411 82 483 82 q 238 125 315 82 q 117 246 161 168 q 74 422 74 324 q 117 593 74 518 q 238 710 161 668 q 411 751 315 751 q 537 729 481 751 q 633 667 593 707 l 633 846 l -24 846 l -24 1028 l 979 1028 m 457 613 q 336 574 386 613 l 631 349 q 646 424 646 386 q 594 557 646 501 q 457 613 543 613 m 264 422 q 320 288 264 339 q 457 238 376 238 q 576 276 526 238 l 279 500 q 264 422 264 463 z "},"भ":{"ha":1185,"x_min":76,"x_max":1208,"o":"m 1208 1028 l 1208 846 l 1071 846 l 1071 0 l 853 0 l 853 467 l 682 467 l 682 401 q 605 169 682 253 q 382 85 528 85 q 222 119 292 85 q 115 218 153 154 q 76 367 76 282 q 165 574 76 503 q 390 646 254 646 l 478 646 l 478 750 q 401 854 478 854 q 347 830 367 854 q 326 765 326 806 q 331 721 326 744 l 113 721 q 107 774 107 751 q 181 966 107 892 q 393 1040 256 1040 q 614 951 546 1040 q 682 710 682 861 l 682 646 l 853 646 l 853 1028 l 1208 1028 m 478 467 l 397 467 q 312 441 344 467 q 279 368 279 415 q 307 296 279 322 q 378 269 335 269 q 453 302 428 269 q 478 390 478 335 l 478 467 z "},"म":{"ha":1171,"x_min":-24,"x_max":1194,"o":"m 1194 846 l 1058 846 l 1058 0 l 839 0 l 839 467 l 660 467 l 660 401 q 583 169 660 253 q 360 85 506 85 q 200 119 269 85 q 93 218 131 154 q 56 367 56 282 q 144 574 56 503 q 368 646 232 646 l 457 646 l 457 846 l -24 846 l -24 1028 l 1194 1028 l 1194 846 m 839 846 l 660 846 l 660 646 l 839 646 l 839 846 m 457 467 l 375 467 q 290 441 322 467 q 258 368 258 415 q 285 295 258 321 q 356 269 313 269 q 431 302 406 269 q 457 390 457 335 l 457 467 z "},"य":{"ha":1051,"x_min":-24,"x_max":1075,"o":"m 1075 846 l 939 846 l 939 0 l 719 0 l 719 217 q 608 141 675 168 q 453 114 540 114 q 175 219 274 114 q 76 506 76 325 q 82 589 76 533 l 97 589 q 256 638 210 589 q 301 783 301 688 l 301 846 l -24 846 l -24 1028 l 1075 1028 l 1075 846 m 719 846 l 517 846 l 517 743 q 463 560 517 631 q 293 478 410 490 q 350 346 296 396 q 500 296 404 296 q 660 358 601 296 q 719 518 719 419 l 719 846 z "},"र":{"ha":738,"x_min":-24,"x_max":761,"o":"m 303 417 l 303 278 q 324 202 303 231 q 388 174 346 174 q 449 201 426 174 q 471 272 471 228 l 471 311 l 681 311 l 681 281 q 604 67 681 146 q 392 -12 528 -12 q 226 27 294 -12 q 122 135 157 67 q 88 289 88 203 l 88 592 l 228 592 q 380 638 335 592 q 425 774 425 685 l 425 846 l -24 846 l -24 1028 l 761 1028 l 761 846 l 643 846 l 643 774 q 566 512 643 607 q 310 417 489 417 l 303 417 z "},"ल":{"ha":1269,"x_min":-24,"x_max":1293,"o":"m 1024 846 l 1024 699 q 1149 585 1103 663 q 1196 393 1196 507 q 1154 211 1196 290 q 1031 87 1113 132 q 836 42 950 42 q 789 43 808 42 l 789 233 l 826 231 q 934 274 893 231 q 975 390 975 317 q 942 496 975 456 q 850 536 910 536 q 756 490 786 536 q 725 372 725 444 l 725 339 l 544 339 l 544 372 q 514 490 544 443 q 422 536 483 536 q 328 497 361 536 q 294 390 294 457 q 335 274 294 317 q 443 231 376 231 l 481 233 l 481 43 q 433 42 461 42 q 238 87 319 42 q 115 211 157 132 q 74 393 74 290 q 117 578 74 503 q 231 690 160 653 q 390 728 303 728 q 542 684 483 728 q 632 569 601 640 l 636 569 q 810 719 690 692 l 810 846 l -24 846 l -24 1028 l 1293 1028 l 1293 846 l 1024 846 z "},"व":{"ha":926,"x_min":-24,"x_max":950,"o":"m 950 1028 l 950 846 l 814 846 l 814 0 l 601 0 l 601 186 q 510 112 565 138 q 385 86 456 86 q 219 129 289 86 q 111 249 149 172 q 74 421 74 325 q 111 587 74 514 q 219 701 149 660 q 385 743 290 743 q 510 718 454 743 q 601 646 565 693 l 601 846 l -24 846 l -24 1028 l 950 1028 m 444 261 q 560 307 518 261 q 601 415 601 353 q 560 524 601 479 q 444 568 518 568 q 331 526 375 568 q 288 415 288 483 q 331 304 288 347 q 444 261 375 261 z "},"श":{"ha":1189,"x_min":93,"x_max":1213,"o":"m 313 400 l 313 303 q 338 213 313 247 q 421 178 364 178 q 494 209 468 178 q 521 290 521 240 l 521 313 l 733 313 l 733 288 q 651 69 733 149 q 426 -10 568 -10 q 182 78 271 -10 q 93 315 93 165 l 93 582 l 286 582 q 458 619 390 582 q 526 743 526 657 q 501 822 526 792 q 429 851 475 851 q 358 822 383 851 q 332 742 332 793 q 333 694 332 710 l 115 694 q 113 749 113 731 q 151 900 113 833 q 261 1003 189 967 q 429 1040 333 1040 q 660 958 574 1040 q 747 729 747 876 q 641 483 747 567 q 368 400 535 400 l 313 400 m 1213 1028 l 1213 846 l 1076 846 l 1076 0 l 856 0 l 856 1028 l 1213 1028 z "},"ष":{"ha":960,"x_min":-24,"x_max":983,"o":"m 983 846 l 847 846 l 847 0 l 633 0 l 633 292 q 418 206 561 206 q 178 309 263 206 q 94 581 94 413 l 94 846 l -24 846 l -24 1028 l 983 1028 l 983 846 m 633 846 l 307 846 l 633 626 l 633 846 m 464 389 q 562 415 522 389 q 619 486 601 442 l 306 696 l 306 575 q 346 440 306 490 q 464 389 386 389 z "},"स":{"ha":1150,"x_min":-24,"x_max":1174,"o":"m 1174 846 l 1038 846 l 1038 0 l 819 0 l 819 417 l 303 417 l 303 281 q 326 203 303 233 q 393 174 349 174 q 458 201 435 174 q 481 272 481 229 l 481 290 l 690 290 q 692 260 692 278 q 613 61 692 135 q 397 -12 535 -12 q 228 27 299 -12 q 123 135 158 67 q 88 292 88 204 l 88 572 l 190 572 q 343 620 297 572 q 389 754 389 668 l 389 846 l -24 846 l -24 1028 l 1174 1028 l 1174 846 m 819 846 l 607 846 l 607 754 q 574 596 607 663 l 819 596 l 819 846 z "},"ह":{"ha":813,"x_min":-24,"x_max":836,"o":"m 417 594 q 355 578 379 594 q 331 528 331 563 q 368 468 331 488 q 429 472 397 472 q 658 401 576 472 q 753 214 739 331 l 544 214 q 504 274 536 249 q 424 300 472 300 q 332 263 368 300 q 296 163 296 225 q 331 62 296 99 q 424 25 367 25 q 503 49 471 25 q 544 107 535 72 l 753 107 q 652 -84 742 -12 q 424 -156 563 -156 q 243 -116 321 -156 q 124 -3 165 -76 q 82 167 82 71 q 115 310 82 247 q 208 411 147 372 q 114 572 114 468 q 174 701 114 653 q 339 750 235 750 l 450 750 l 450 846 l -24 846 l -24 1028 l 836 1028 l 836 846 l 658 846 l 658 594 l 417 594 z "},"ळ":{"ha":1335,"x_min":-24,"x_max":1358,"o":"m 1075 846 l 1075 693 q 1210 580 1160 657 q 1261 396 1261 503 q 1219 226 1261 299 q 1103 113 1176 153 q 943 74 1031 74 q 778 116 850 74 q 671 235 706 158 l 664 235 q 557 116 629 158 q 393 74 485 74 q 231 113 304 74 q 116 226 158 153 q 74 396 74 299 q 116 567 74 493 q 231 680 158 640 q 392 719 304 719 q 549 681 479 719 q 665 561 619 643 l 669 561 q 864 711 738 682 l 864 846 l -24 846 l -24 1028 l 1358 1028 l 1358 846 l 1075 846 m 425 260 q 523 298 485 260 q 561 396 561 336 q 523 496 561 457 q 425 535 485 535 q 325 497 364 535 q 286 394 286 458 q 325 297 286 333 q 425 260 364 260 m 910 260 q 1010 297 971 260 q 1049 394 1049 333 q 1010 496 1049 457 q 911 535 972 535 q 812 496 850 535 q 774 396 774 457 q 812 298 774 336 q 910 260 850 260 z "},"क़":{"ha":1340,"x_min":-24,"x_max":1364,"o":"m 786 846 l 786 640 q 867 712 817 686 q 986 738 918 738 q 1136 695 1072 738 q 1233 581 1200 653 q 1267 419 1267 508 q 1230 249 1267 321 q 1128 140 1193 178 q 981 103 1064 103 q 886 114 931 103 l 886 285 q 922 281 901 281 q 1011 317 976 281 q 1046 414 1046 353 q 1010 513 1046 474 q 917 551 975 551 q 819 508 853 551 q 786 400 786 465 l 786 0 l 576 0 l 576 192 q 490 116 544 143 q 360 89 435 89 q 208 130 274 89 q 108 245 143 171 q 74 414 74 319 q 153 649 74 560 q 368 738 232 738 q 492 713 440 738 q 576 642 544 688 l 576 846 l -24 846 l -24 1028 l 1364 1028 l 1364 846 l 786 846 m 435 272 q 538 315 500 272 q 576 414 576 357 q 539 512 576 471 q 436 553 501 553 q 335 514 375 553 q 294 414 294 475 q 333 311 294 350 q 435 272 372 272 m 329 -244 q 240 -208 276 -244 q 203 -119 203 -172 q 240 -28 203 -65 q 329 10 276 10 q 419 -28 382 10 q 456 -119 456 -65 q 419 -208 456 -172 q 329 -244 382 -244 z "},"ख़":{"ha":1333,"x_min":-24,"x_max":1357,"o":"m 1357 1028 l 1357 846 l 1222 846 l 1222 0 l 1004 0 l 1004 219 q 840 154 946 154 q 797 157 825 154 q 667 35 747 81 q 482 -10 588 -10 q 197 94 301 -10 q 92 383 92 197 l 92 560 l 126 560 q 268 603 222 560 q 314 740 314 646 l 314 846 l -24 846 l -24 1028 l 1357 1028 m 488 179 q 638 247 590 179 q 574 443 574 329 q 608 588 574 524 q 703 690 642 653 q 840 726 764 726 q 1004 660 947 726 l 1004 846 l 533 846 l 533 710 q 472 498 533 575 q 307 408 411 421 l 307 358 q 355 229 307 279 q 488 179 403 179 m 889 321 q 974 356 943 321 q 1004 442 1004 392 q 975 526 1004 490 q 889 561 946 561 q 803 529 838 561 q 768 443 768 497 q 802 353 768 385 q 889 321 836 321 m 451 -339 q 362 -303 399 -339 q 325 -214 325 -267 q 362 -122 325 -160 q 451 -85 399 -85 q 541 -122 504 -85 q 578 -214 578 -160 q 541 -303 578 -267 q 451 -339 504 -339 z "},"ग़":{"ha":1131,"x_min":-24,"x_max":1156,"o":"m 1156 1028 l 1156 846 l 1019 846 l 1019 0 l 801 0 l 801 846 l 626 846 l 626 532 q 556 317 626 399 q 342 236 485 236 q 126 310 203 236 q 50 521 50 383 q 51 567 50 551 l 263 567 l 263 522 q 336 421 263 421 q 407 524 407 421 l 407 846 l -24 846 l -24 1028 l 1156 1028 m 343 -100 q 253 -64 290 -100 q 217 25 217 -28 q 253 117 217 79 q 343 154 290 154 q 433 117 396 154 q 469 25 469 79 q 433 -64 469 -28 q 343 -100 396 -100 z "},"ज़":{"ha":1194,"x_min":-24,"x_max":1218,"o":"m 1218 846 l 1082 846 l 1082 0 l 864 0 l 864 492 l 704 492 l 704 450 q 666 289 704 360 q 557 178 628 218 q 390 139 486 139 q 155 224 238 139 q 72 450 72 310 l 72 678 l 292 678 l 292 457 q 318 363 292 397 q 392 329 344 329 q 465 363 439 329 q 490 457 490 397 l 490 678 l 864 678 l 864 846 l -24 846 l -24 1028 l 1218 1028 l 1218 846 m 392 -193 q 302 -157 339 -193 q 265 -68 265 -121 q 302 24 265 -14 q 392 61 339 61 q 481 24 444 61 q 518 -68 518 -14 q 481 -157 518 -121 q 392 -193 444 -193 z "},"ड़":{"ha":786,"x_min":-24,"x_max":810,"o":"m 400 590 q 335 575 361 590 q 310 526 310 560 q 333 478 310 493 q 392 463 356 463 l 454 463 q 659 405 576 463 q 742 219 742 347 q 660 39 742 106 q 428 -28 578 -28 q 175 43 274 -28 q 71 240 76 114 l 288 240 q 326 163 289 190 q 421 136 364 136 q 505 159 475 136 q 535 221 535 182 q 502 287 535 265 q 414 308 469 308 l 365 308 q 174 358 258 308 q 90 533 90 407 q 162 690 90 638 q 344 743 233 743 l 443 743 l 443 846 l -24 846 l -24 1028 l 810 1028 l 810 846 l 654 846 l 654 590 l 400 590 m 425 -360 q 335 -324 372 -360 q 299 -235 299 -287 q 335 -143 299 -181 q 425 -106 372 -106 q 515 -143 478 -106 q 551 -235 551 -181 q 515 -324 551 -287 q 425 -360 478 -360 z "},"ढ़":{"ha":910,"x_min":-24,"x_max":933,"o":"m 547 601 q 358 541 431 601 q 285 369 285 481 q 347 207 285 269 q 525 144 408 144 q 653 178 604 144 q 703 271 703 211 q 682 328 703 306 q 628 350 661 350 q 577 331 597 350 q 557 282 557 311 q 561 260 557 268 l 406 260 q 400 313 400 296 q 465 453 400 403 q 636 504 531 504 q 822 440 754 504 q 889 271 889 376 q 793 63 889 138 q 521 -12 697 -12 q 292 34 393 -12 q 132 169 190 81 q 74 378 74 257 q 126 580 74 496 q 269 708 178 664 q 476 751 360 751 l 504 751 l 504 846 l -24 846 l -24 1028 l 933 1028 l 933 846 l 708 846 l 708 601 l 547 601 m 493 -343 q 403 -307 440 -343 q 367 -218 367 -271 q 403 -126 367 -164 q 493 -89 440 -89 q 583 -126 546 -89 q 619 -218 619 -164 q 583 -307 619 -271 q 493 -343 546 -343 z "},"फ़":{"ha":1368,"x_min":-24,"x_max":1392,"o":"m 806 846 l 806 642 q 892 713 839 688 q 1015 738 946 738 q 1165 697 1101 738 q 1262 584 1228 656 q 1296 425 1296 513 q 1260 252 1296 325 q 1158 141 1224 179 q 1010 103 1093 103 q 907 117 954 103 l 907 285 q 951 279 928 279 q 1041 317 1007 279 q 1075 414 1075 354 q 1040 513 1075 474 q 946 551 1004 551 q 841 503 876 551 q 806 378 806 456 l 806 0 l 586 0 l 586 300 q 393 222 517 222 q 172 318 250 222 q 94 569 94 414 l 94 846 l -24 846 l -24 1028 l 1392 1028 l 1392 846 l 806 846 m 586 846 l 313 846 l 313 569 q 347 450 313 494 q 449 406 381 406 q 550 449 514 406 q 586 557 586 492 l 586 846 m 315 -104 q 226 -68 263 -104 q 189 21 189 -32 q 226 113 189 75 q 315 150 263 150 q 405 113 368 150 q 442 21 442 75 q 405 -68 442 -32 q 315 -104 368 -104 z "},"ऱ":{"ha":738,"x_min":-24,"x_max":761,"o":"m 303 417 l 303 278 q 324 202 303 231 q 388 174 346 174 q 449 201 426 174 q 471 272 471 228 l 471 311 l 681 311 l 681 281 q 604 67 681 146 q 392 -12 528 -12 q 226 27 294 -12 q 122 135 157 67 q 88 289 88 203 l 88 592 l 228 592 q 380 638 335 592 q 425 774 425 685 l 425 846 l -24 846 l -24 1028 l 761 1028 l 761 846 l 643 846 l 643 774 q 566 512 643 607 q 310 417 489 417 l 303 417 m 151 -296 q 62 -260 99 -296 q 25 -171 25 -224 q 62 -79 25 -117 q 151 -42 99 -42 q 241 -79 204 -42 q 278 -171 278 -117 q 241 -260 278 -224 q 151 -296 204 -296 z "},"ं":{"ha":0,"x_min":-350,"x_max":-96,"o":"m -224 1129 q -313 1166 -276 1129 q -350 1256 -350 1203 q -313 1345 -350 1308 q -224 1382 -276 1382 q -133 1345 -171 1382 q -96 1256 -96 1308 q -133 1166 -96 1203 q -224 1129 -171 1129 z "},"ँ":{"ha":0,"x_min":-565,"x_max":100,"o":"m -235 1369 q -294 1394 -269 1369 q -318 1454 -318 1419 q -294 1514 -318 1489 q -235 1539 -269 1539 q -173 1515 -197 1539 q -149 1454 -149 1490 q -173 1394 -149 1418 q -235 1369 -197 1369 m -233 1126 q -479 1204 -393 1126 q -565 1419 -565 1282 l -392 1419 q -349 1322 -392 1361 q -233 1282 -307 1282 q -118 1322 -160 1282 q -76 1419 -76 1361 l 100 1419 q 14 1204 100 1282 q -233 1126 -72 1126 z "},"ः":{"ha":389,"x_min":67,"x_max":322,"o":"m 194 524 q 104 560 142 524 q 67 650 67 597 q 104 740 67 703 q 194 778 142 778 q 285 740 247 778 q 322 650 322 703 q 285 560 322 597 q 194 524 247 524 m 194 122 q 104 159 142 122 q 67 247 67 196 q 104 337 67 300 q 194 374 142 374 q 285 337 247 374 q 322 247 322 300 q 285 159 322 196 q 194 122 247 122 z "},"ऽ":{"ha":829,"x_min":79,"x_max":717,"o":"m 79 247 l 407 247 q 462 262 443 247 q 481 301 481 276 q 453 359 481 331 q 369 432 426 388 q 267 519 308 479 q 197 613 226 558 q 167 735 167 668 q 231 883 167 832 q 401 933 294 933 l 717 933 l 717 750 l 456 750 q 389 701 389 750 q 415 644 389 672 q 500 572 442 617 q 603 486 563 525 q 673 392 643 447 q 703 269 703 338 q 637 120 703 175 q 463 65 571 65 l 79 65 l 79 247 z "},"्":{"ha":0,"x_min":-326,"x_max":76,"o":"m -326 -76 l -110 -76 l 76 -386 l -147 -386 l -326 -76 z "},"़":{"ha":0,"x_min":-519,"x_max":-267,"o":"m -393 -365 q -483 -329 -446 -365 q -519 -240 -519 -293 q -483 -149 -519 -186 q -393 -111 -446 -111 q -303 -149 -340 -111 q -267 -240 -267 -186 q -303 -329 -267 -293 q -393 -365 -340 -365 z "},"०":{"ha":894,"x_min":58,"x_max":839,"o":"m 58 501 q 151 136 58 271 q 449 1 244 1 q 745 136 651 1 q 839 501 839 271 q 745 865 839 731 q 449 999 651 999 q 151 865 244 999 q 58 501 58 731 m 603 501 q 572 298 603 369 q 449 226 540 226 q 324 298 356 226 q 292 501 292 369 q 324 703 292 632 q 449 774 356 774 q 572 703 540 774 q 603 501 603 633 z "},"१":{"ha":494,"x_min":15,"x_max":413,"o":"m 15 760 l 15 982 l 413 982 l 413 0 l 163 0 l 163 760 l 15 760 z "},"२":{"ha":786,"x_min":47,"x_max":747,"o":"m 47 189 q 489 690 489 504 q 390 804 489 804 q 309 765 335 804 q 281 644 283 726 l 49 644 q 157 914 57 824 q 410 1004 257 1004 q 651 924 569 1004 q 732 714 732 843 q 622 434 732 571 q 360 203 513 297 l 747 203 l 747 11 l 47 11 l 47 189 z "},"३":{"ha":840,"x_min":57,"x_max":764,"o":"m 419 1025 q 596 990 522 1025 q 708 892 669 954 q 746 753 746 831 q 697 599 746 657 q 574 525 647 540 l 574 518 q 764 281 764 457 q 725 130 764 196 q 612 27 686 64 q 433 -10 538 -10 q 165 74 264 -10 q 57 328 65 157 l 289 328 q 325 225 292 263 q 422 188 358 188 q 503 218 474 188 q 533 297 533 249 q 358 418 533 418 l 314 418 l 314 611 l 357 611 q 514 724 514 608 q 487 801 514 774 q 414 828 460 828 q 335 794 364 828 q 301 703 306 760 l 69 703 q 167 942 76 858 q 419 1025 257 1025 z "},"४":{"ha":933,"x_min":61,"x_max":883,"o":"m 61 181 l 61 379 l 510 994 l 765 994 l 765 388 l 883 388 l 883 181 l 765 181 l 765 0 l 525 0 l 525 181 l 61 181 m 544 719 l 303 388 l 544 388 l 544 719 z "},"५":{"ha":893,"x_min":121,"x_max":832,"o":"m 783 797 l 342 797 l 342 599 q 423 651 371 632 q 536 669 475 669 q 701 626 635 669 q 800 508 768 582 q 832 346 832 435 q 742 91 832 185 q 488 -3 651 -3 q 294 37 376 -3 q 168 147 213 76 q 121 311 124 218 l 353 311 q 391 233 360 264 q 476 203 422 203 q 570 243 539 203 q 601 350 601 283 q 568 449 601 414 q 475 483 535 483 q 399 463 429 483 q 357 411 368 443 l 126 411 l 126 1006 l 783 1006 l 783 797 z "},"६":{"ha":872,"x_min":79,"x_max":806,"o":"m 556 711 q 517 801 546 771 q 436 832 489 832 q 322 758 356 832 q 290 529 288 683 q 372 619 314 586 q 506 651 429 651 q 725 567 644 651 q 806 326 806 483 q 765 151 806 228 q 647 33 725 75 q 458 -10 568 -10 q 161 124 243 -10 q 79 493 79 257 q 167 894 79 765 q 451 1022 254 1022 q 688 934 607 1022 q 778 711 768 846 l 556 711 m 308 338 q 344 234 308 274 q 450 194 381 194 q 548 229 513 194 q 583 331 583 264 q 547 433 583 397 q 449 468 511 468 q 349 434 389 468 q 308 338 308 400 z "},"७":{"ha":708,"x_min":25,"x_max":683,"o":"m 683 815 l 332 0 l 86 0 l 442 788 l 25 788 l 25 992 l 683 992 l 683 815 z "},"८":{"ha":896,"x_min":69,"x_max":825,"o":"m 93 761 q 133 894 93 832 q 253 996 174 957 q 447 1035 333 1035 q 642 996 563 1035 q 762 894 722 957 q 801 761 801 832 q 765 628 801 683 q 660 544 729 574 q 825 296 825 471 q 775 124 825 196 q 640 16 725 53 q 447 -21 554 -21 q 256 16 342 -21 q 119 124 169 53 q 69 296 69 196 q 235 544 69 471 q 129 628 165 574 q 93 761 93 683 m 326 721 q 359 634 326 664 q 447 604 392 604 q 535 634 503 604 q 568 721 568 664 q 535 808 568 776 q 447 840 501 840 q 360 808 393 840 q 326 721 326 776 m 300 310 q 340 211 300 247 q 447 175 379 175 q 555 211 515 175 q 594 310 594 247 q 553 408 594 372 q 447 443 513 443 q 341 408 382 443 q 300 310 300 372 z "},"९":{"ha":835,"x_min":53,"x_max":779,"o":"m 303 301 q 425 181 322 181 q 538 254 506 181 q 568 483 571 328 q 487 394 544 426 q 353 361 429 361 q 133 445 214 361 q 53 686 53 529 q 93 861 53 785 q 212 980 133 938 q 400 1022 290 1022 q 632 960 549 1022 q 747 790 715 897 q 779 531 779 682 q 698 127 779 264 q 425 -10 617 -10 q 244 33 319 -10 q 127 146 168 75 q 81 301 86 217 l 303 301 m 550 675 q 514 778 550 739 q 408 818 478 818 q 310 783 346 818 q 275 682 275 749 q 311 580 275 615 q 410 544 347 544 q 510 578 469 544 q 550 675 550 613 z "},"ॐ":{"ha":1489,"x_min":94,"x_max":1390,"o":"m 779 1251 q 720 1276 744 1251 q 696 1336 696 1300 q 720 1396 696 1371 q 779 1421 744 1421 q 840 1397 815 1421 q 864 1336 864 1372 q 840 1276 864 1300 q 779 1251 815 1251 m 781 1008 q 534 1086 619 1008 q 449 1301 449 1164 l 621 1301 q 663 1203 621 1243 q 781 1164 706 1164 q 897 1203 854 1164 q 939 1301 939 1243 l 1114 1301 q 1028 1086 1114 1164 q 781 1008 942 1008 m 1086 949 q 1318 861 1246 949 q 1390 604 1390 774 l 1390 436 q 1294 128 1390 233 q 1015 22 1199 22 q 874 36 947 22 l 874 217 q 975 207 942 207 q 1134 267 1089 207 q 1179 443 1179 326 l 1179 633 q 1158 730 1179 696 q 1086 764 1136 764 q 996 644 996 764 q 969 471 996 536 q 881 375 943 406 q 710 342 818 344 q 714 288 714 315 q 676 144 714 206 q 572 48 639 82 q 419 14 506 14 q 247 51 321 14 q 134 153 174 88 q 94 307 94 219 l 299 307 q 328 232 299 263 q 407 201 358 201 q 484 231 456 201 q 513 310 513 261 q 481 391 513 358 q 383 424 449 424 l 321 424 l 321 607 l 383 607 q 470 635 438 607 q 503 708 503 664 q 475 781 503 754 q 404 808 447 808 q 333 783 361 808 q 306 715 306 757 l 103 715 q 141 861 103 797 q 249 960 179 925 q 408 994 318 994 q 621 925 542 994 q 700 738 700 856 q 662 603 700 660 q 553 525 624 547 l 553 519 q 575 513 561 518 l 657 513 q 761 541 731 513 q 792 647 792 569 q 860 872 792 794 q 1086 949 929 949 z "},"॰":{"ha":661,"x_min":92,"x_max":569,"o":"m 569 467 q 503 299 569 364 q 333 235 438 235 q 208 265 264 235 q 122 347 153 294 q 92 467 92 400 q 159 635 92 569 q 333 700 226 700 q 503 635 438 700 q 569 467 569 569 m 224 467 q 254 392 224 421 q 333 364 285 364 q 407 392 378 364 q 436 467 436 421 q 407 542 436 513 q 333 571 378 571 q 254 542 285 571 q 224 467 224 513 z "},"।":{"ha":478,"x_min":204,"x_max":421,"o":"m 421 0 l 204 0 l 204 1029 l 421 1029 l 421 0 z "},"॥":{"ha":857,"x_min":204,"x_max":800,"o":"m 421 0 l 204 0 l 204 1029 l 421 1029 l 421 0 m 800 0 l 582 0 l 582 1029 l 800 1029 l 800 0 z "},"₨":{"ha":1624,"x_min":82,"x_max":1582,"o":"m 846 671 q 787 489 846 564 q 615 386 728 414 l 849 0 l 586 0 l 374 371 l 319 371 l 319 0 l 82 0 l 82 982 l 488 982 q 685 942 604 982 q 806 831 765 901 q 846 671 846 761 m 1113 543 q 1151 494 1113 510 q 1278 458 1190 478 q 1432 419 1371 440 q 1538 352 1493 399 q 1582 226 1582 306 q 1547 106 1582 160 q 1443 22 1511 53 q 1281 -10 1375 -10 q 1024 60 1122 -10 q 906 258 925 129 l 1139 258 q 1182 191 1144 215 q 1278 167 1219 167 q 1344 185 1322 167 q 1367 232 1367 203 q 1326 285 1367 268 q 1200 319 1286 303 q 1049 358 1108 338 q 945 426 989 379 q 901 551 901 472 q 938 670 901 617 q 1044 754 974 724 q 1211 785 1114 785 q 1459 711 1367 785 q 1574 517 1551 638 l 1340 517 q 1297 584 1332 560 q 1208 608 1261 608 q 1138 591 1164 608 q 1113 543 1113 574 m 319 533 l 467 533 q 571 565 538 533 q 604 657 604 596 q 570 749 604 715 q 467 782 536 782 l 319 782 l 319 533 z "},"₹":{"ha":835,"x_min":54,"x_max":782,"o":"m 663 825 l 663 733 l 782 733 l 782 597 l 657 597 q 296 344 618 344 l 296 281 q 388 164 296 164 q 456 193 435 164 q 476 283 476 222 l 697 283 q 615 65 690 144 q 399 -14 539 -14 q 74 318 74 -14 l 74 499 q 291 506 219 499 q 395 533 363 513 q 436 597 428 554 l 54 597 l 54 733 l 440 733 l 440 825 l 54 825 l 54 982 l 782 982 l 782 825 l 663 825 z "},"‌":{"ha":0,"x_min":-32,"x_max":33,"o":"m -32 1126 l 33 1126 l 33 -319 l -32 -319 l -32 1126 z "},"‍":{"ha":0,"x_min":-178,"x_max":178,"o":"m 32 882 l 32 -319 l -33 -319 l -33 882 l -129 781 l -175 826 l -46 956 l -178 1088 l -132 1133 l 0 1001 l 133 1133 l 178 1089 l 44 956 l 178 824 l 132 778 l 32 882 z "},"◌":{"ha":904,"x_min":69,"x_max":835,"o":"m 418 633 q 375 649 392 633 q 358 692 358 665 q 375 734 358 718 q 418 750 392 750 q 461 734 444 750 q 478 692 478 718 q 461 649 478 665 q 418 633 444 633 m 586 613 q 543 628 560 613 q 526 671 526 644 q 543 713 526 697 q 586 729 560 729 q 629 713 613 729 q 646 671 646 697 q 629 628 646 644 q 586 613 613 613 m 256 575 q 213 591 229 575 q 196 633 196 607 q 213 676 196 660 q 256 692 229 692 q 299 676 282 692 q 315 633 315 660 q 299 591 315 607 q 256 575 282 575 m 714 510 q 671 526 688 510 q 654 568 654 542 q 671 610 654 594 q 714 626 688 626 q 757 610 740 626 q 774 568 774 594 q 757 526 774 542 q 714 510 740 510 m 150 438 q 107 453 124 438 q 90 496 90 469 q 107 538 90 522 q 150 554 124 554 q 193 538 176 554 q 210 496 210 522 q 193 453 210 469 q 150 438 176 438 m 775 351 q 732 367 749 351 q 715 410 715 383 q 732 452 715 436 q 775 468 749 468 q 818 452 801 468 q 835 410 835 436 q 818 367 835 383 q 775 351 801 351 m 129 269 q 86 285 103 269 q 69 328 69 301 q 86 370 69 354 q 129 386 103 386 q 172 370 156 386 q 189 328 189 354 q 172 285 189 301 q 129 269 156 269 m 761 185 q 718 201 735 185 q 701 243 701 217 q 718 285 701 269 q 761 301 735 301 q 804 285 788 301 q 821 243 821 269 q 804 201 821 217 q 761 185 788 185 m 192 113 q 149 128 165 113 q 132 171 132 144 q 149 213 132 197 q 192 229 165 229 q 235 213 218 229 q 251 171 251 197 q 235 128 251 144 q 192 113 218 113 m 660 51 q 617 67 633 51 q 600 110 600 83 q 617 152 600 136 q 660 168 633 168 q 703 152 686 168 q 719 110 719 136 q 703 67 719 83 q 660 51 686 51 m 328 7 q 285 23 301 7 q 268 65 268 39 q 285 108 268 92 q 328 124 301 124 q 371 108 354 124 q 388 65 388 92 q 371 23 388 39 q 328 7 354 7 m 500 -12 q 457 3 474 -12 q 440 46 440 19 q 457 88 440 72 q 500 104 474 104 q 543 88 526 104 q 560 46 560 72 q 543 3 560 19 q 500 -12 526 -12 z "},"!":{"ha":531,"x_min":147,"x_max":407,"o":"m 407 1031 l 378 351 l 176 351 l 147 1031 l 407 1031 m 401 238 l 401 0 l 154 0 l 154 238 l 401 238 z "},"\"":{"ha":579,"x_min":61,"x_max":518,"o":"m 254 1113 l 238 806 l 78 806 l 61 1113 l 254 1113 m 518 1113 l 501 806 l 342 806 l 325 1113 l 518 1113 z "},"#":{"ha":1231,"x_min":25,"x_max":1206,"o":"m 985 600 l 949 432 l 1118 432 l 1118 215 l 903 215 l 857 0 l 635 0 l 681 215 l 449 215 l 403 0 l 182 0 l 228 215 l 25 215 l 25 432 l 274 432 l 310 600 l 113 600 l 113 817 l 357 817 l 401 1028 l 622 1028 l 578 817 l 810 817 l 854 1028 l 1076 1028 l 1032 817 l 1206 817 l 1206 600 l 985 600 m 763 600 l 531 600 l 494 432 l 726 432 l 763 600 z "},"$":{"ha":879,"x_min":53,"x_max":829,"o":"m 829 276 q 788 133 829 199 q 664 29 746 68 q 467 -10 582 -10 l 467 -121 l 407 -121 l 407 -7 q 160 85 256 6 q 56 296 65 164 l 308 296 q 338 221 313 251 q 407 179 364 190 l 407 400 q 376 410 383 407 q 210 469 275 439 q 99 558 146 499 q 53 714 53 617 q 99 863 53 799 q 226 960 146 926 q 407 997 307 994 l 407 1111 l 467 1111 l 467 996 q 710 909 619 986 q 811 706 800 832 l 554 706 q 526 774 549 747 q 467 810 504 800 l 467 593 l 510 579 q 674 517 611 547 q 783 429 738 488 q 829 276 829 371 m 307 724 q 333 660 307 686 q 407 614 358 635 l 407 815 q 333 789 360 813 q 307 724 307 765 m 467 172 q 546 201 517 174 q 575 271 575 228 q 547 335 575 310 q 467 381 519 361 l 467 172 z "},"%":{"ha":1117,"x_min":35,"x_max":1082,"o":"m 268 999 q 434 938 369 999 q 499 765 499 876 q 434 593 499 654 q 268 532 369 532 q 99 593 164 532 q 35 765 35 654 q 99 938 35 876 q 268 999 164 999 m 942 985 l 406 0 l 176 0 l 713 985 l 942 985 m 193 765 q 213 698 193 722 q 265 674 232 674 q 321 698 300 674 q 342 765 342 722 q 321 833 342 808 q 265 857 300 857 q 213 833 232 857 q 193 765 193 808 m 851 454 q 1018 393 954 454 q 1082 221 1082 332 q 1018 48 1082 110 q 851 -14 954 -14 q 685 48 750 -14 q 621 221 621 110 q 685 393 621 332 q 851 454 750 454 m 778 221 q 797 152 778 176 q 851 128 817 128 q 905 152 885 128 q 925 221 925 176 q 905 288 925 264 q 851 313 885 313 q 797 288 817 313 q 778 221 778 264 z "},"&":{"ha":963,"x_min":40,"x_max":960,"o":"m 721 0 l 607 138 q 583 103 593 115 q 494 21 553 51 q 357 -10 435 -10 q 187 31 258 -10 q 78 140 115 71 q 40 294 40 208 q 104 492 40 415 q 268 582 168 569 l 251 610 q 218 679 229 644 q 207 756 207 714 q 240 872 207 818 q 338 959 274 926 q 493 992 403 992 q 689 938 619 992 q 783 799 758 885 q 799 664 803 738 l 578 664 q 575 715 578 688 q 497 794 571 794 q 448 776 467 794 q 429 731 429 758 q 440 688 429 707 q 474 636 450 668 l 960 0 l 721 0 m 360 188 q 440 218 408 188 q 471 296 471 249 q 436 376 471 344 q 353 408 401 408 q 274 381 304 408 q 244 301 244 353 q 277 219 244 250 q 360 188 310 188 z "},"'":{"ha":318,"x_min":61,"x_max":257,"o":"m 257 1113 l 239 806 l 79 806 l 61 1113 l 257 1113 z "},"(":{"ha":571,"x_min":36,"x_max":643,"o":"m 36 558 q 140 1035 36 824 q 414 1378 243 1246 l 643 1378 l 643 1354 q 358 998 451 1196 q 264 558 264 800 q 643 -237 264 78 l 643 -260 l 414 -260 q 140 82 243 -129 q 36 558 36 293 z "},")":{"ha":574,"x_min":-71,"x_max":539,"o":"m 539 560 q 435 83 539 294 q 161 -260 331 -129 l -71 -260 l -71 -237 q 310 558 310 78 q 215 998 310 800 q -71 1354 121 1196 l -71 1378 l 161 1378 q 435 1035 331 1246 q 539 560 539 824 z "},"*":{"ha":733,"x_min":101,"x_max":643,"o":"m 564 965 l 643 824 l 471 764 l 643 707 l 558 560 l 421 682 l 456 500 l 293 500 l 326 682 l 189 557 l 101 707 l 272 767 l 104 824 l 183 965 l 326 846 l 290 1028 l 456 1028 l 421 846 l 564 965 z "},"+":{"ha":779,"x_min":35,"x_max":744,"o":"m 744 376 l 504 376 l 504 132 l 275 132 l 275 376 l 35 376 l 35 594 l 275 594 l 275 840 l 504 840 l 504 594 l 744 594 l 744 376 z "},",":{"ha":329,"x_min":39,"x_max":276,"o":"m 235 147 q 276 -28 276 67 q 226 -186 276 -124 q 68 -249 175 -249 l 68 -161 q 123 -144 106 -161 q 140 -81 140 -128 l 140 -67 l 39 -67 l 39 147 l 235 147 z "},"-":{"ha":754,"x_min":8,"x_max":621,"o":"m 621 586 l 621 389 l 8 389 l 8 586 l 621 586 z "},".":{"ha":328,"x_min":40,"x_max":286,"o":"m 286 238 l 286 0 l 40 0 l 40 238 l 286 238 z "},"/":{"ha":540,"x_min":-28,"x_max":575,"o":"m 575 1319 l 201 -261 l -28 -261 l 346 1319 l 575 1319 z "},":":{"ha":385,"x_min":75,"x_max":322,"o":"m 322 803 l 322 565 l 75 565 l 75 803 l 322 803 m 322 238 l 322 0 l 75 0 l 75 238 l 322 238 z "},";":{"ha":500,"x_min":138,"x_max":386,"o":"m 383 793 l 383 556 l 138 556 l 138 793 l 383 793 m 344 147 q 386 -28 386 67 q 335 -186 386 -124 q 178 -249 285 -249 l 178 -161 q 233 -144 215 -161 q 250 -81 250 -128 l 250 -67 l 149 -67 l 149 147 l 344 147 z "},"<":{"ha":650,"x_min":35,"x_max":615,"o":"m 318 181 l 35 486 l 318 794 l 615 794 l 332 486 l 615 181 l 318 181 z "},"=":{"ha":849,"x_min":35,"x_max":814,"o":"m 814 771 l 814 554 l 35 554 l 35 771 l 814 771 m 814 417 l 814 201 l 35 201 l 35 417 l 814 417 z "},">":{"ha":650,"x_min":35,"x_max":615,"o":"m 35 794 l 332 794 l 615 486 l 332 181 l 35 181 l 318 486 l 35 794 z "},"?":{"ha":728,"x_min":29,"x_max":693,"o":"m 371 1053 q 606 977 518 1053 q 693 760 693 901 q 608 553 693 628 q 379 475 522 478 l 379 351 l 156 351 l 156 628 l 249 628 q 404 656 349 628 q 460 758 460 685 q 433 832 460 806 q 363 858 407 858 q 284 828 313 858 q 256 753 256 799 l 32 753 q 67 905 29 836 q 183 1013 106 974 q 371 1053 261 1053 m 392 238 l 392 0 l 144 0 l 144 238 l 392 238 z "},"@":{"ha":1765,"x_min":63,"x_max":1725,"o":"m 983 1142 q 1376 1066 1210 1142 q 1634 845 1543 990 q 1725 494 1725 700 q 1665 240 1725 356 q 1506 56 1606 124 q 1293 -11 1406 -11 q 1131 33 1194 -11 q 1053 167 1067 76 q 938 35 1007 81 q 769 -11 869 -11 q 619 30 685 -11 q 516 145 553 71 q 479 317 479 219 q 482 371 479 335 q 553 584 492 490 q 715 731 615 678 q 933 783 814 783 q 1177 705 1085 783 q 1269 486 1269 626 q 1265 431 1269 460 l 1247 301 q 1244 268 1244 276 q 1260 213 1244 229 q 1310 197 1276 197 q 1394 230 1354 197 q 1458 328 1433 263 q 1483 486 1483 393 q 1422 729 1483 625 q 1239 890 1360 833 q 946 947 1118 947 q 592 864 739 947 q 369 638 444 781 q 293 318 293 496 q 437 -55 293 79 q 868 -187 581 -189 l 824 -381 q 408 -293 578 -378 q 150 -53 238 -208 q 63 318 63 103 q 187 756 63 569 q 522 1042 311 943 q 983 1142 732 1142 m 1039 425 q 997 539 1039 501 q 892 576 956 576 q 803 552 844 576 q 735 477 761 528 q 708 351 708 426 q 750 236 708 275 q 853 197 792 197 q 942 222 900 197 q 1012 297 985 246 q 1039 425 1039 349 z "},"A":{"ha":1014,"x_min":11,"x_max":1004,"o":"m 690 179 l 322 179 l 261 0 l 11 0 l 371 975 l 644 975 l 1004 0 l 751 0 l 690 179 m 629 360 l 507 721 l 383 360 l 629 360 z "},"B":{"ha":907,"x_min":82,"x_max":864,"o":"m 671 506 q 812 419 760 485 q 864 268 864 354 q 780 71 864 142 q 539 0 696 0 l 82 0 l 82 982 l 528 982 q 760 917 678 982 q 842 731 842 851 q 794 583 842 642 q 671 506 747 524 m 319 581 l 475 581 q 599 686 599 581 q 472 792 599 792 l 319 792 l 319 581 m 489 193 q 621 301 621 193 q 586 384 621 354 q 488 414 551 414 l 319 414 l 319 193 l 489 193 z "},"C":{"ha":1051,"x_min":53,"x_max":1000,"o":"m 531 992 q 841 893 718 992 q 1000 626 964 794 l 749 626 q 663 733 721 694 q 526 772 606 772 q 358 696 422 772 q 294 492 294 619 q 358 288 294 364 q 526 213 422 213 q 663 251 606 213 q 749 357 721 290 l 1000 357 q 841 91 964 190 q 531 -8 718 -8 q 279 55 388 -8 q 112 232 171 118 q 53 492 53 346 q 112 751 53 638 q 279 928 171 865 q 531 992 388 992 z "},"D":{"ha":1018,"x_min":82,"x_max":965,"o":"m 965 493 q 903 237 965 349 q 726 63 842 125 q 453 0 610 0 l 82 0 l 82 982 l 453 982 q 726 921 611 982 q 903 749 842 860 q 965 493 965 638 m 432 213 q 648 286 571 213 q 725 493 725 360 q 648 700 725 626 q 432 774 571 774 l 319 774 l 319 213 l 432 213 z "},"E":{"ha":746,"x_min":82,"x_max":693,"o":"m 319 793 l 319 588 l 651 588 l 651 408 l 319 408 l 319 190 l 693 190 l 693 0 l 82 0 l 82 982 l 693 982 l 693 793 l 319 793 z "},"F":{"ha":763,"x_min":82,"x_max":722,"o":"m 722 982 l 722 793 l 319 793 l 319 578 l 631 578 l 631 397 l 319 397 l 319 0 l 82 0 l 82 982 l 722 982 z "},"G":{"ha":1058,"x_min":53,"x_max":1007,"o":"m 542 992 q 846 901 726 992 q 994 657 965 811 l 743 657 q 667 741 718 710 q 543 772 615 772 q 363 697 431 772 q 294 492 294 621 q 366 276 294 351 q 569 201 438 201 q 718 248 654 201 q 808 381 782 294 l 508 381 l 508 551 l 1007 551 l 1007 317 q 918 157 979 231 q 762 38 857 83 q 544 -8 667 -8 q 285 55 396 -8 q 113 232 174 118 q 53 492 53 346 q 113 751 53 638 q 284 928 174 865 q 542 992 394 992 z "},"H":{"ha":1013,"x_min":82,"x_max":931,"o":"m 931 982 l 931 0 l 692 0 l 692 410 l 319 410 l 319 0 l 82 0 l 82 982 l 319 982 l 319 601 l 692 601 l 692 982 l 931 982 z "},"I":{"ha":401,"x_min":82,"x_max":319,"o":"m 319 982 l 319 0 l 82 0 l 82 982 l 319 982 z "},"J":{"ha":763,"x_min":21,"x_max":688,"o":"m 688 982 l 688 311 q 603 74 688 157 q 371 -10 519 -10 q 115 81 210 -10 q 21 343 21 172 l 256 343 q 360 206 256 206 q 450 311 450 206 l 450 982 l 688 982 z "},"K":{"ha":958,"x_min":82,"x_max":940,"o":"m 544 501 l 940 0 l 653 0 l 319 440 l 319 0 l 82 0 l 82 982 l 319 982 l 319 550 l 656 982 l 940 982 l 544 501 z "},"L":{"ha":664,"x_min":82,"x_max":636,"o":"m 319 182 l 636 182 l 636 0 l 82 0 l 82 982 l 319 982 l 319 182 z "},"M":{"ha":1268,"x_min":82,"x_max":1186,"o":"m 1186 975 l 1186 0 l 949 0 l 949 610 l 738 0 l 532 0 l 319 611 l 319 0 l 82 0 l 82 975 l 372 975 l 638 296 l 897 975 l 1186 975 z "},"N":{"ha":1036,"x_min":82,"x_max":954,"o":"m 954 0 l 717 0 l 319 603 l 319 0 l 82 0 l 82 982 l 319 982 l 717 374 l 717 982 l 954 982 l 954 0 z "},"O":{"ha":1096,"x_min":53,"x_max":1044,"o":"m 549 997 q 801 933 688 997 q 979 753 914 868 q 1044 494 1044 639 q 978 235 1044 350 q 799 55 913 119 q 549 -10 686 -10 q 298 55 411 -10 q 119 235 185 119 q 53 494 53 350 q 119 753 53 639 q 298 933 185 868 q 549 997 411 997 m 549 776 q 363 701 432 776 q 294 494 294 625 q 363 289 294 365 q 549 213 432 213 q 733 289 664 213 q 803 494 803 365 q 734 700 803 624 q 549 776 665 776 z "},"P":{"ha":860,"x_min":82,"x_max":825,"o":"m 319 344 l 319 0 l 82 0 l 82 982 l 467 982 q 733 895 642 982 q 825 661 825 808 q 784 498 825 569 q 663 385 743 426 q 467 344 582 344 l 319 344 m 440 535 q 583 661 583 535 q 440 790 583 790 l 319 790 l 319 535 l 440 535 z "},"Q":{"ha":1096,"x_min":53,"x_max":1068,"o":"m 783 -172 l 656 1 q 549 -10 600 -10 q 298 55 411 -10 q 119 235 185 119 q 53 494 53 350 q 119 753 53 639 q 298 933 185 868 q 549 997 411 997 q 801 933 688 997 q 979 753 914 868 q 1044 494 1044 639 q 992 261 1044 367 q 849 88 940 156 l 1068 -172 l 783 -172 m 294 494 q 363 289 294 365 q 549 213 432 213 q 733 289 664 213 q 803 494 803 365 q 734 700 803 624 q 549 776 665 776 q 363 701 432 776 q 294 494 294 625 z "},"R":{"ha":883,"x_min":82,"x_max":849,"o":"m 586 0 l 374 371 l 319 371 l 319 0 l 82 0 l 82 982 l 488 982 q 685 942 604 982 q 806 831 765 901 q 846 671 846 761 q 787 489 846 564 q 615 386 728 414 l 849 0 l 586 0 m 319 533 l 467 533 q 571 565 538 533 q 604 657 604 596 q 570 749 604 715 q 467 782 536 782 l 319 782 l 319 533 z "},"S":{"ha":838,"x_min":53,"x_max":788,"o":"m 788 276 q 748 133 788 199 q 631 29 708 68 q 444 -10 554 -10 q 172 71 279 -10 q 56 296 65 151 l 308 296 q 348 208 314 240 q 435 176 382 176 q 507 201 481 176 q 533 268 533 226 q 509 331 533 306 q 449 372 485 356 q 349 410 413 388 q 197 472 256 442 q 95 560 138 501 q 53 714 53 619 q 97 865 53 801 q 220 963 142 929 q 400 997 299 997 q 660 919 564 997 q 769 706 757 842 l 513 706 q 477 783 506 754 q 400 811 449 811 q 333 789 358 811 q 307 724 307 767 q 330 665 307 689 q 388 625 353 640 q 488 586 422 610 q 642 523 582 554 q 744 432 701 492 q 788 276 788 372 z "},"T":{"ha":806,"x_min":18,"x_max":788,"o":"m 788 982 l 788 793 l 521 793 l 521 0 l 282 0 l 282 793 l 18 793 l 18 982 l 788 982 z "},"U":{"ha":968,"x_min":76,"x_max":892,"o":"m 313 982 l 313 415 q 356 267 313 318 q 483 215 400 215 q 610 267 567 215 q 654 415 654 318 l 654 982 l 892 982 l 892 415 q 838 181 892 276 q 690 38 783 86 q 478 -10 596 -10 q 269 38 360 -10 q 128 181 179 85 q 76 415 76 276 l 76 982 l 313 982 z "},"V":{"ha":1010,"x_min":11,"x_max":1000,"o":"m 265 982 l 506 243 l 746 982 l 1000 982 l 658 0 l 351 0 l 11 982 l 265 982 z "},"W":{"ha":1460,"x_min":43,"x_max":1417,"o":"m 1417 982 l 1182 0 l 888 0 l 731 657 l 572 0 l 278 0 l 43 982 l 301 982 l 428 271 l 600 982 l 860 982 l 1032 271 l 1160 982 l 1417 982 z "},"X":{"ha":969,"x_min":11,"x_max":960,"o":"m 678 0 l 471 306 l 293 0 l 21 0 l 335 506 l 11 982 l 293 982 l 494 686 l 668 982 l 939 982 l 629 488 l 960 0 l 678 0 z "},"Y":{"ha":940,"x_min":11,"x_max":931,"o":"m 931 982 l 590 326 l 590 0 l 351 0 l 351 326 l 11 982 l 283 982 l 472 582 l 661 982 l 931 982 z "},"Z":{"ha":825,"x_min":64,"x_max":761,"o":"m 328 192 l 761 192 l 761 0 l 64 0 l 64 181 l 490 792 l 69 792 l 69 982 l 758 982 l 758 801 l 328 192 z "},"[":{"ha":632,"x_min":129,"x_max":560,"o":"m 560 1319 l 560 1128 l 353 1128 l 353 -69 l 560 -69 l 560 -261 l 129 -261 l 129 1319 l 560 1319 z "},"\\":{"ha":1079,"x_min":219,"x_max":819,"o":"m 592 -261 l 219 1319 l 447 1319 l 819 -261 l 592 -261 z "},"]":{"ha":628,"x_min":71,"x_max":501,"o":"m 71 -261 l 71 -69 l 278 -69 l 278 1128 l 71 1128 l 71 1319 l 501 1319 l 501 -261 l 71 -261 z "},"^":{"ha":982,"x_min":40,"x_max":942,"o":"m 276 229 l 40 229 l 376 978 l 607 978 l 942 229 l 706 229 l 492 706 l 276 229 z "},"_":{"ha":981,"x_min":65,"x_max":925,"o":"m 925 -54 l 925 -286 l 65 -286 l 65 -54 l 925 -54 z "},"`":{"ha":431,"x_min":25,"x_max":360,"o":"m 360 992 l 360 831 l 25 974 l 25 1153 l 360 992 z "},"a":{"ha":942,"x_min":42,"x_max":860,"o":"m 376 785 q 529 744 465 785 q 624 635 593 704 l 624 775 l 860 775 l 860 0 l 624 0 l 624 140 q 529 31 593 71 q 376 -10 465 -10 q 205 38 281 -10 q 85 176 129 86 q 42 388 42 267 q 85 599 42 510 q 205 737 129 689 q 376 785 281 785 m 453 576 q 330 526 376 576 q 283 388 283 476 q 330 249 283 299 q 453 199 376 199 q 576 250 528 199 q 624 388 624 301 q 576 526 624 475 q 453 576 528 576 z "},"b":{"ha":942,"x_min":82,"x_max":900,"o":"m 565 785 q 737 737 661 785 q 856 599 813 689 q 900 388 900 510 q 856 176 900 267 q 737 38 813 86 q 565 -10 661 -10 q 413 31 476 -10 q 319 140 349 71 l 319 0 l 82 0 l 82 1028 l 319 1028 l 319 635 q 413 744 349 704 q 565 785 476 785 m 489 576 q 366 526 414 576 q 318 388 318 475 q 366 250 318 301 q 489 199 414 199 q 612 249 565 199 q 658 388 658 299 q 612 526 658 476 q 489 576 565 576 z "},"c":{"ha":853,"x_min":42,"x_max":811,"o":"m 432 785 q 683 702 582 785 q 811 475 785 619 l 560 475 q 514 553 549 525 q 426 581 479 581 q 324 531 364 581 q 283 388 283 482 q 324 244 283 293 q 426 194 364 194 q 514 222 479 194 q 560 300 549 250 l 811 300 q 683 73 785 156 q 432 -10 582 -10 q 230 38 318 -10 q 92 176 142 86 q 42 388 42 267 q 91 599 42 510 q 229 737 140 689 q 432 785 318 785 z "},"d":{"ha":942,"x_min":42,"x_max":860,"o":"m 376 785 q 529 744 465 785 q 622 635 593 704 l 622 1028 l 860 1028 l 860 0 l 622 0 l 622 140 q 529 31 593 71 q 376 -10 465 -10 q 205 38 281 -10 q 85 176 129 86 q 42 388 42 267 q 85 599 42 510 q 205 737 129 689 q 376 785 281 785 m 453 576 q 330 526 376 576 q 283 388 283 476 q 330 249 283 299 q 453 199 376 199 q 576 250 528 199 q 624 388 624 301 q 576 526 624 475 q 453 576 528 576 z "},"e":{"ha":860,"x_min":42,"x_max":818,"o":"m 818 408 q 811 344 818 379 l 274 344 q 318 219 278 257 q 421 181 358 181 q 508 207 474 181 q 554 275 543 233 l 806 275 q 739 128 790 193 q 608 27 688 64 q 432 -10 529 -10 q 230 38 318 -10 q 92 176 142 86 q 42 388 42 267 q 91 599 42 510 q 229 737 140 689 q 432 785 318 785 q 635 738 547 785 q 770 605 722 690 q 818 408 818 519 m 578 444 q 537 559 579 521 q 432 597 494 597 q 324 558 367 597 q 275 444 281 519 l 578 444 z "},"f":{"ha":511,"x_min":18,"x_max":489,"o":"m 463 881 q 378 856 404 881 q 349 775 351 831 l 489 775 l 489 575 l 349 575 l 349 0 l 111 0 l 111 575 l 18 575 l 18 775 l 111 775 l 111 783 q 195 1006 111 928 q 439 1085 279 1085 q 489 1083 472 1085 l 489 879 l 463 881 z "},"g":{"ha":942,"x_min":42,"x_max":860,"o":"m 376 785 q 529 744 465 785 q 624 635 593 704 l 624 775 l 860 775 l 860 4 q 818 -191 860 -104 q 690 -329 776 -278 q 476 -381 604 -381 q 197 -298 301 -381 q 71 -74 92 -215 l 306 -74 q 356 -147 317 -121 q 460 -174 396 -174 q 578 -131 533 -174 q 624 4 624 -89 l 624 140 q 529 31 593 71 q 376 -10 465 -10 q 205 38 281 -10 q 85 176 129 86 q 42 388 42 267 q 85 599 42 510 q 205 737 129 689 q 376 785 281 785 m 453 576 q 330 526 376 576 q 283 388 283 476 q 330 249 283 299 q 453 199 376 199 q 576 250 528 199 q 624 388 624 301 q 576 526 624 475 q 453 576 528 576 z "},"h":{"ha":939,"x_min":82,"x_max":864,"o":"m 574 783 q 785 694 707 783 q 864 450 864 606 l 864 0 l 626 0 l 626 422 q 585 544 626 500 q 476 588 544 588 q 362 542 404 588 q 319 411 319 496 l 319 0 l 82 0 l 82 1028 l 319 1028 l 319 633 q 419 743 353 703 q 574 783 485 783 z "},"i":{"ha":401,"x_min":60,"x_max":343,"o":"m 60 993 q 99 1083 60 1047 q 201 1118 138 1118 q 304 1083 265 1118 q 343 993 343 1047 q 304 905 343 940 q 201 869 265 869 q 99 905 138 869 q 60 993 60 940 m 319 775 l 319 0 l 82 0 l 82 775 l 319 775 z "},"j":{"ha":403,"x_min":-44,"x_max":344,"o":"m 203 869 q 100 905 139 869 q 61 993 61 940 q 100 1083 61 1047 q 203 1118 139 1118 q 306 1083 267 1118 q 344 993 344 1047 q 306 905 344 940 q 203 869 267 869 m -44 -165 l 14 -165 q 68 -149 51 -165 q 85 -96 85 -133 l 85 775 l 324 775 l 324 -93 q 46 -369 324 -369 l -44 -369 l -44 -165 z "},"k":{"ha":842,"x_min":82,"x_max":838,"o":"m 551 0 l 319 329 l 319 0 l 82 0 l 82 1028 l 319 1028 l 319 464 l 551 775 l 831 775 l 518 388 l 838 0 l 551 0 z "},"l":{"ha":401,"x_min":82,"x_max":319,"o":"m 319 1028 l 319 0 l 82 0 l 82 1028 l 319 1028 z "},"m":{"ha":1469,"x_min":82,"x_max":1393,"o":"m 1086 783 q 1311 695 1229 783 q 1393 450 1393 607 l 1393 0 l 1157 0 l 1157 422 q 1117 537 1157 496 q 1010 578 1078 578 q 898 534 939 578 q 857 411 857 490 l 857 0 l 619 0 l 619 422 q 581 537 619 496 q 474 578 542 578 q 361 535 403 578 q 319 411 319 492 l 319 0 l 82 0 l 82 775 l 319 775 l 319 643 q 413 746 350 708 q 561 783 476 783 q 718 742 650 783 q 821 625 786 701 q 931 740 861 697 q 1086 783 1001 783 z "},"n":{"ha":939,"x_min":82,"x_max":864,"o":"m 574 783 q 785 694 707 783 q 864 450 864 606 l 864 0 l 626 0 l 626 422 q 585 544 626 500 q 476 588 544 588 q 362 542 404 588 q 319 411 319 496 l 319 0 l 82 0 l 82 775 l 319 775 l 319 633 q 419 743 353 703 q 574 783 485 783 z "},"o":{"ha":888,"x_min":42,"x_max":846,"o":"m 444 785 q 651 737 560 785 q 794 599 742 689 q 846 388 846 508 q 794 176 846 267 q 651 38 742 86 q 444 -10 560 -10 q 238 38 329 -10 q 94 176 146 86 q 42 388 42 267 q 94 599 42 508 q 238 737 146 689 q 444 785 329 785 m 444 579 q 330 530 376 579 q 283 388 283 481 q 330 246 283 294 q 444 197 376 197 q 558 246 513 197 q 604 388 604 294 q 558 530 604 481 q 444 579 513 579 z "},"p":{"ha":942,"x_min":82,"x_max":900,"o":"m 565 785 q 737 737 661 785 q 856 599 813 689 q 900 388 900 510 q 856 176 900 267 q 737 38 813 86 q 565 -10 661 -10 q 413 31 476 -10 q 319 140 349 71 l 319 -369 l 82 -369 l 82 775 l 319 775 l 319 635 q 413 744 349 704 q 565 785 476 785 m 489 576 q 366 526 414 576 q 318 388 318 475 q 366 250 318 301 q 489 199 414 199 q 612 249 565 199 q 658 388 658 299 q 612 526 658 476 q 489 576 565 576 z "},"q":{"ha":942,"x_min":42,"x_max":860,"o":"m 393 782 q 624 663 549 782 l 624 775 l 860 775 l 860 -369 l 624 -369 l 624 125 q 393 -8 543 -8 q 216 41 296 -8 q 89 179 136 90 q 42 383 42 268 q 89 590 42 499 q 217 731 136 681 q 393 782 297 782 m 453 575 q 333 526 383 575 q 283 383 283 476 q 333 245 283 292 q 453 199 382 199 q 573 248 522 199 q 624 388 624 297 q 573 526 624 478 q 453 575 522 575 z "},"r":{"ha":604,"x_min":82,"x_max":586,"o":"m 319 629 q 434 742 364 700 q 586 783 504 783 l 586 529 l 518 529 q 372 489 424 529 q 319 353 319 449 l 319 0 l 82 0 l 82 775 l 319 775 l 319 629 z "},"s":{"ha":771,"x_min":53,"x_max":721,"o":"m 364 785 q 599 711 511 785 q 710 517 688 638 l 488 517 q 444 591 478 564 q 358 618 410 618 q 297 601 318 618 q 276 551 276 583 q 315 497 276 515 q 435 461 353 479 q 581 419 524 440 q 679 349 638 397 q 721 218 721 300 q 685 100 721 151 q 581 19 649 49 q 419 -10 513 -10 q 168 60 263 -10 q 53 258 74 129 l 282 258 q 324 182 288 208 q 419 156 361 156 q 481 174 460 156 q 501 224 501 193 q 463 281 501 264 q 339 318 425 299 q 197 357 253 336 q 101 424 142 378 q 61 551 61 471 q 140 720 61 656 q 364 785 219 785 z "},"t":{"ha":572,"x_min":22,"x_max":521,"o":"m 521 204 l 521 0 l 414 0 q 202 67 278 0 q 126 290 126 135 l 126 575 l 22 575 l 22 775 l 126 775 l 126 965 l 364 965 l 364 775 l 519 775 l 519 575 l 364 575 l 364 286 q 383 222 364 240 q 446 204 401 204 l 521 204 z "},"u":{"ha":935,"x_min":71,"x_max":853,"o":"m 853 775 l 853 0 l 614 0 l 614 140 q 515 32 581 72 q 361 -8 449 -8 q 149 81 228 -8 q 71 325 71 169 l 71 775 l 307 775 l 307 354 q 348 231 307 275 q 458 188 389 188 q 572 233 531 188 q 614 364 614 279 l 614 775 l 853 775 z "},"v":{"ha":878,"x_min":17,"x_max":861,"o":"m 440 232 l 608 775 l 861 775 l 586 0 l 292 0 l 17 775 l 269 775 l 440 232 z "},"w":{"ha":1219,"x_min":6,"x_max":1215,"o":"m 1215 775 l 1017 0 l 751 0 l 611 519 l 469 0 l 204 0 l 6 775 l 243 775 l 346 217 l 490 775 l 743 775 l 892 215 l 994 775 l 1215 775 z "},"x":{"ha":840,"x_min":8,"x_max":833,"o":"m 567 0 l 408 221 l 279 0 l 18 0 l 275 404 l 8 775 l 275 775 l 432 557 l 561 775 l 822 775 l 560 381 l 833 0 l 567 0 z "},"y":{"ha":881,"x_min":-4,"x_max":883,"o":"m 261 775 l 447 300 l 621 775 l 883 775 l 400 -369 l 139 -369 l 321 29 l -4 775 l 261 775 z "},"z":{"ha":681,"x_min":32,"x_max":650,"o":"m 292 199 l 650 199 l 650 0 l 32 0 l 32 188 l 365 578 l 38 578 l 38 775 l 636 775 l 636 588 l 292 199 z "},"{":{"ha":636,"x_min":74,"x_max":590,"o":"m 275 515 q 429 325 429 486 q 417 200 429 272 q 403 54 403 111 q 456 -164 403 -78 q 590 -283 510 -250 l 590 -301 l 368 -301 q 292 -244 333 -285 q 217 -126 250 -203 q 185 60 185 -49 q 199 203 185 114 q 211 331 211 278 q 180 427 211 386 q 74 475 149 468 l 74 558 q 211 703 211 574 q 199 831 211 756 q 185 974 185 919 q 217 1159 185 1082 q 292 1277 250 1236 q 368 1335 333 1318 l 590 1335 l 590 1317 q 456 1197 510 1283 q 403 979 403 1111 q 417 836 403 922 q 429 710 429 761 q 392 581 429 629 q 275 518 354 533 l 275 515 z "},"|":{"ha":339,"x_min":50,"x_max":289,"o":"m 289 -181 l 50 -181 l 50 1133 l 289 1133 l 289 -181 z "},"}":{"ha":615,"x_min":51,"x_max":568,"o":"m 367 518 q 250 576 288 533 q 213 689 213 618 q 225 815 213 740 q 239 958 239 901 q 213 1119 239 1044 q 144 1244 188 1193 q 51 1317 101 1296 l 51 1335 l 274 1335 q 350 1277 308 1318 q 424 1159 392 1236 q 457 974 457 1082 q 443 831 457 919 q 429 703 429 747 q 462 603 429 646 q 568 558 494 561 l 568 475 q 462 431 494 474 q 429 331 429 388 q 443 203 429 286 q 457 60 457 114 q 424 -126 457 -49 q 350 -244 392 -203 q 274 -301 308 -285 l 51 -301 l 51 -283 q 144 -211 101 -262 q 213 -85 188 -160 q 239 75 239 -11 q 225 221 239 132 q 213 346 213 293 q 367 515 213 486 l 367 518 z "},"~":{"ha":883,"x_min":35,"x_max":849,"o":"m 311 592 q 394 578 357 592 q 476 538 432 564 q 535 508 511 518 q 585 499 560 499 q 642 522 622 499 q 669 593 663 544 l 849 593 q 753 363 825 438 q 572 288 681 288 q 492 301 528 288 q 407 340 456 314 q 347 371 369 361 q 299 381 324 381 q 242 358 263 381 q 213 286 221 335 l 35 286 q 131 517 60 442 q 311 592 203 592 z "}," ":{"ha":278,"x_min":0,"x_max":0,"o":""},"¡":{"ha":560,"x_min":147,"x_max":407,"o":"m 407 -247 l 378 432 l 176 432 l 147 -247 l 407 -247 m 401 546 l 401 783 l 154 783 l 154 546 l 401 546 z "},"¢":{"ha":807,"x_min":42,"x_max":765,"o":"m 418 192 q 501 217 464 192 q 547 288 539 243 l 765 288 q 672 90 756 165 q 464 3 588 15 l 464 -119 l 361 -119 l 361 3 q 127 110 213 18 q 42 358 42 201 q 128 606 42 514 q 361 713 214 697 l 361 831 l 464 831 l 464 713 q 672 626 588 700 q 765 428 756 551 l 547 428 q 499 500 535 475 q 418 525 464 525 q 310 481 350 525 q 269 357 269 438 q 310 235 269 278 q 418 192 350 192 z "},"£":{"ha":894,"x_min":50,"x_max":815,"o":"m 433 392 q 410 282 433 340 q 336 179 388 224 l 815 179 l 815 -7 l 104 -7 l 75 108 q 176 232 144 167 q 208 392 208 297 l 208 400 l 50 400 l 50 558 l 167 558 q 135 753 135 668 q 176 910 135 843 q 294 1014 218 978 q 467 1050 369 1050 q 715 963 625 1050 q 815 735 804 875 l 596 735 q 559 823 590 789 q 475 857 528 857 q 392 823 422 857 q 363 726 363 789 q 371 660 363 693 q 400 558 379 626 l 642 558 l 642 400 l 433 400 l 433 392 z "},"¤":{"ha":803,"x_min":88,"x_max":714,"o":"m 693 526 q 642 371 693 438 l 714 299 l 626 210 l 539 297 q 404 272 481 272 q 264 299 331 272 l 176 210 l 88 299 l 164 374 q 114 526 114 439 q 165 679 114 617 l 88 756 l 176 844 l 269 751 q 404 775 329 775 q 535 753 478 775 l 626 844 l 714 756 l 639 682 q 693 526 693 619 m 404 411 q 479 440 449 411 q 510 524 510 468 q 479 609 510 579 q 404 639 449 639 q 328 610 358 639 q 299 524 299 581 q 328 440 299 468 q 404 411 358 411 z "},"¥":{"ha":956,"x_min":19,"x_max":939,"o":"m 736 592 l 875 592 l 875 435 l 654 435 l 617 363 l 875 363 l 875 206 l 599 206 l 599 0 l 360 0 l 360 206 l 82 206 l 82 363 l 342 363 l 304 435 l 82 435 l 82 592 l 222 592 l 19 982 l 292 982 l 481 544 l 669 982 l 939 982 l 736 592 z "},"¦":{"ha":517,"x_min":139,"x_max":378,"o":"m 139 1133 l 378 1133 l 378 564 l 139 564 l 139 1133 m 378 -181 l 139 -181 l 139 392 l 378 392 l 378 -181 z "},"§":{"ha":817,"x_min":43,"x_max":775,"o":"m 618 151 q 699 58 671 110 q 726 -51 726 6 q 643 -228 726 -161 q 411 -296 560 -296 q 185 -220 268 -296 q 89 -19 101 -144 l 324 -19 q 417 -128 332 -128 q 467 -112 449 -128 q 486 -64 486 -96 q 466 -8 486 -33 q 401 42 446 17 q 271 104 356 68 q 103 211 163 150 q 43 358 43 272 q 80 483 43 428 q 199 565 117 538 q 118 659 146 607 q 90 769 90 711 q 174 945 90 878 q 407 1013 257 1013 q 633 938 550 1013 q 728 736 715 863 l 493 736 q 467 817 490 789 q 401 844 443 844 q 350 828 369 844 q 331 781 331 813 q 351 724 331 749 q 416 675 371 700 q 546 614 461 650 q 715 503 656 564 q 775 358 775 443 q 618 151 775 215 m 408 250 q 492 281 461 250 q 522 358 522 313 q 492 436 522 406 q 410 467 463 467 q 327 436 357 467 q 297 358 297 406 q 327 280 297 310 q 408 250 357 250 z "},"¨":{"ha":546,"x_min":32,"x_max":513,"o":"m 32 963 q 60 1035 32 1006 q 132 1064 89 1064 q 203 1035 175 1064 q 232 963 232 1006 q 203 892 232 921 q 132 864 175 864 q 60 892 89 864 q 32 963 32 921 m 314 963 q 342 1035 314 1006 q 413 1064 371 1064 q 484 1035 456 1064 q 513 963 513 1006 q 484 892 513 921 q 413 864 456 864 q 342 892 371 864 q 314 963 314 921 z "},"©":{"ha":1082,"x_min":53,"x_max":1031,"o":"m 542 994 q 288 931 399 994 q 115 754 176 868 q 53 496 53 640 q 115 236 53 350 q 288 58 176 122 q 542 -6 399 -6 q 796 58 685 -6 q 969 236 907 122 q 1031 496 1031 350 q 969 754 1031 640 q 796 931 907 868 q 542 994 685 994 m 542 919 q 758 867 665 919 q 901 718 851 814 q 951 496 951 622 q 901 272 951 369 q 758 122 851 175 q 542 68 665 68 q 324 122 417 68 q 182 272 232 175 q 132 496 132 369 q 182 718 132 622 q 324 867 232 814 q 542 919 417 919 m 547 807 q 738 742 657 807 q 839 565 819 676 l 639 565 q 601 626 628 604 q 536 649 574 649 q 454 609 486 649 q 422 494 422 569 q 454 379 422 419 q 536 339 486 339 q 601 362 574 339 q 639 422 628 385 l 839 422 q 738 247 819 313 q 547 182 657 182 q 387 219 457 182 q 277 328 317 257 q 238 494 238 399 q 277 661 238 590 q 387 769 317 732 q 547 807 457 807 z "},"ª":{"ha":651,"x_min":35,"x_max":610,"o":"m 263 988 q 365 964 325 988 q 432 894 406 940 l 432 982 l 610 982 l 610 493 l 432 493 l 432 579 q 365 508 406 532 q 264 485 325 485 q 99 551 163 485 q 35 736 35 618 q 99 920 35 853 q 263 988 163 988 m 324 846 q 249 816 279 846 q 218 735 218 786 q 248 656 218 683 q 324 628 278 628 q 401 657 371 628 q 432 738 432 686 q 401 817 432 788 q 324 846 371 846 z "},"«":{"ha":774,"x_min":63,"x_max":715,"o":"m 181 167 l 63 410 l 181 653 l 399 653 l 279 410 l 399 167 l 181 167 m 496 167 l 379 410 l 496 653 l 715 653 l 594 410 l 715 167 l 496 167 z "},"¬":{"ha":1074,"x_min":43,"x_max":990,"o":"m 990 614 l 990 250 l 753 250 l 753 435 l 43 435 l 43 614 l 990 614 z "},"­":{"ha":754,"x_min":8,"x_max":621,"o":"m 621 586 l 621 389 l 8 389 l 8 586 l 621 586 z "},"®":{"ha":1126,"x_min":53,"x_max":1075,"o":"m 564 994 q 830 931 714 994 q 1010 755 946 868 q 1075 496 1075 642 q 1010 236 1075 350 q 830 58 946 122 q 564 -6 714 -6 q 298 58 414 -6 q 117 236 182 122 q 53 496 53 350 q 117 755 53 642 q 298 931 182 868 q 564 994 414 994 m 564 71 q 792 124 694 71 q 943 273 890 176 q 996 496 996 369 q 943 720 996 624 q 793 869 890 817 q 564 921 696 921 q 334 869 432 921 q 184 720 236 817 q 132 496 132 624 q 185 272 132 368 q 335 124 238 176 q 564 71 432 71 m 817 622 q 782 515 817 561 q 679 451 747 469 l 825 208 l 664 208 l 531 442 l 503 442 l 503 208 l 356 208 l 356 803 l 597 803 q 762 751 707 803 q 817 622 817 699 m 503 535 l 583 535 q 665 601 665 535 q 583 669 665 669 l 503 669 l 503 535 z "},"¯":{"ha":606,"x_min":25,"x_max":581,"o":"m 581 1036 l 581 876 l 25 876 l 25 1036 l 581 1036 z "},"°":{"ha":640,"x_min":35,"x_max":606,"o":"m 321 985 q 528 918 451 985 q 606 736 606 851 q 530 551 606 619 q 325 482 454 482 q 115 551 196 482 q 35 736 35 621 q 113 918 35 851 q 321 985 190 985 m 322 858 q 248 827 278 858 q 218 733 218 796 q 249 642 218 674 q 325 610 281 610 q 396 642 368 610 q 424 733 424 674 q 394 827 424 796 q 322 858 365 858 z "},"±":{"ha":779,"x_min":35,"x_max":744,"o":"m 504 494 l 504 347 l 744 347 l 744 132 l 35 132 l 35 347 l 275 347 l 275 494 l 35 494 l 35 710 l 275 710 l 275 876 l 504 876 l 504 710 l 744 710 l 744 494 l 504 494 z "},"²":{"ha":544,"x_min":56,"x_max":507,"o":"m 238 625 l 500 625 l 500 489 l 64 489 l 64 619 l 244 732 q 319 832 319 781 q 310 859 319 850 q 283 868 300 868 q 232 800 239 868 l 56 800 q 128 939 63 885 q 306 993 193 993 q 457 950 407 993 q 507 846 507 907 q 465 754 507 794 q 329 671 424 714 l 238 625 z "},"³":{"ha":525,"x_min":28,"x_max":492,"o":"m 272 993 q 426 953 369 993 q 482 849 482 914 q 381 743 482 761 l 381 738 q 465 696 439 724 q 492 624 492 668 q 434 522 492 558 q 275 485 376 485 q 92 528 149 485 q 28 657 36 572 l 214 657 q 227 619 215 629 q 260 608 239 608 q 306 656 306 608 q 244 708 306 708 l 192 708 l 192 771 l 236 771 q 294 825 294 771 q 283 858 294 846 q 251 869 272 869 q 204 817 211 869 l 35 817 q 95 942 39 892 q 272 993 151 993 z "},"´":{"ha":383,"x_min":25,"x_max":360,"o":"m 360 974 l 25 831 l 25 992 l 360 1153 l 360 974 z "},"µ":{"ha":997,"x_min":108,"x_max":890,"o":"m 890 775 l 890 0 l 651 0 l 651 132 q 558 29 621 67 q 413 -8 496 -8 q 344 8 376 -8 l 344 -369 l 108 -369 l 108 775 l 344 775 l 344 368 q 387 242 344 286 q 500 199 429 199 q 610 242 569 199 q 651 365 651 285 l 651 775 l 890 775 z "},"¶":{"ha":981,"x_min":31,"x_max":872,"o":"m 872 0 l 682 0 l 682 796 l 583 796 l 583 0 l 393 0 l 393 379 l 361 379 q 174 420 249 379 q 65 528 100 461 q 31 676 31 596 q 65 825 31 757 q 174 934 100 893 q 361 975 249 975 l 872 975 l 872 0 z "},"·":{"ha":360,"x_min":56,"x_max":301,"o":"m 301 557 l 301 319 l 56 319 l 56 557 l 301 557 z "},"¸":{"ha":444,"x_min":25,"x_max":419,"o":"m 240 -60 q 365 -95 310 -57 q 419 -214 419 -133 q 363 -333 419 -294 q 226 -371 307 -371 l 25 -371 l 25 -246 l 201 -246 q 260 -207 260 -246 q 245 -179 260 -189 q 201 -169 231 -169 l 100 -169 l 100 10 l 240 10 l 240 -60 z "},"¹":{"ha":350,"x_min":35,"x_max":300,"o":"m 35 839 l 35 978 l 300 978 l 300 489 l 122 489 l 122 839 l 35 839 z "},"º":{"ha":633,"x_min":35,"x_max":599,"o":"m 317 985 q 465 953 401 985 q 564 863 529 921 q 599 733 599 806 q 564 604 599 661 q 465 514 529 547 q 317 481 401 481 q 168 514 232 481 q 69 605 104 547 q 35 733 35 663 q 69 863 35 806 q 168 953 104 921 q 317 985 232 985 m 317 847 q 244 818 272 847 q 215 733 215 789 q 244 649 215 679 q 317 619 272 619 q 390 649 361 619 q 418 733 418 679 q 390 818 418 789 q 317 847 361 847 z "},"»":{"ha":774,"x_min":69,"x_max":722,"o":"m 192 410 l 69 653 l 290 653 l 406 410 l 290 167 l 69 167 l 192 410 m 507 410 l 386 653 l 606 653 l 722 410 l 606 167 l 386 167 l 507 410 z "},"¼":{"ha":1093,"x_min":68,"x_max":1057,"o":"m 892 982 l 368 0 l 135 0 l 660 982 l 892 982 m 68 839 l 68 978 l 333 978 l 333 489 l 156 489 l 156 839 l 68 839 m 1057 88 l 1001 88 l 1001 0 l 822 0 l 822 88 l 551 88 l 551 181 l 760 489 l 1001 489 l 1001 186 l 1057 186 l 1057 88 m 832 368 l 719 190 l 832 190 l 832 368 z "},"½":{"ha":1172,"x_min":69,"x_max":1082,"o":"m 896 985 l 361 0 l 129 0 l 664 985 l 896 985 m 157 839 l 69 839 l 69 978 l 335 978 l 335 489 l 157 489 l 157 839 m 813 135 l 1075 135 l 1075 -1 l 639 -1 l 639 129 l 819 242 q 894 342 894 290 q 885 369 894 360 q 858 378 875 378 q 807 310 814 378 l 631 310 q 703 449 638 394 q 881 503 768 503 q 1032 460 982 503 q 1082 356 1082 417 q 1040 264 1082 304 q 904 181 999 224 l 813 135 z "},"¾":{"ha":1251,"x_min":89,"x_max":1222,"o":"m 333 993 q 487 953 431 993 q 543 849 543 914 q 442 743 543 761 l 442 738 q 526 696 500 724 q 553 624 553 668 q 495 522 553 558 q 336 485 438 485 q 153 528 210 485 q 89 657 97 572 l 275 657 q 288 619 276 629 q 321 608 300 608 q 367 656 367 608 q 306 708 367 708 l 253 708 l 253 771 l 297 771 q 356 825 356 771 q 344 858 356 846 q 313 869 333 869 q 265 817 272 869 l 96 817 q 156 942 100 892 q 333 993 213 993 m 1047 985 l 542 0 l 310 0 l 814 985 l 1047 985 m 1222 88 l 1167 88 l 1167 0 l 989 0 l 989 88 l 717 88 l 717 181 l 904 489 l 1167 489 l 1167 186 l 1222 186 l 1222 88 m 999 389 l 885 186 l 999 186 l 999 389 z "},"¿":{"ha":721,"x_min":99,"x_max":763,"o":"m 421 -269 q 186 -194 274 -269 q 99 24 99 -118 q 184 231 99 156 q 413 308 269 306 l 413 432 l 636 432 l 636 156 l 543 156 q 388 127 443 156 q 332 25 332 99 q 358 -49 332 -22 q 429 -75 385 -75 q 508 -45 479 -75 q 536 31 536 -15 l 760 31 q 724 -122 763 -53 q 608 -230 686 -190 q 421 -269 531 -269 m 400 546 l 400 783 l 647 783 l 647 546 l 400 546 z "},"À":{"ha":1014,"x_min":11,"x_max":1004,"o":"m 690 179 l 322 179 l 261 0 l 11 0 l 371 975 l 644 975 l 1004 0 l 751 0 l 690 179 m 629 360 l 507 721 l 383 360 l 629 360 m 640 1199 l 640 1038 l 306 1181 l 306 1360 l 640 1199 z "},"Á":{"ha":1014,"x_min":11,"x_max":1004,"o":"m 690 179 l 322 179 l 261 0 l 11 0 l 371 975 l 644 975 l 1004 0 l 751 0 l 690 179 m 629 360 l 507 721 l 383 360 l 629 360 m 707 1181 l 372 1038 l 372 1199 l 707 1360 l 707 1181 z "},"Â":{"ha":1014,"x_min":11,"x_max":1004,"o":"m 690 179 l 322 179 l 261 0 l 11 0 l 371 975 l 644 975 l 1004 0 l 751 0 l 690 179 m 629 360 l 507 721 l 383 360 l 629 360 m 508 1158 l 293 1039 l 293 1196 l 508 1313 l 724 1196 l 724 1039 l 508 1158 z "},"Ã":{"ha":1014,"x_min":11,"x_max":1004,"o":"m 690 179 l 322 179 l 261 0 l 11 0 l 371 975 l 644 975 l 1004 0 l 751 0 l 690 179 m 629 360 l 507 721 l 383 360 l 629 360 m 417 1261 q 472 1251 447 1261 q 528 1224 497 1242 q 572 1202 557 1208 q 604 1196 588 1196 q 665 1261 656 1196 l 785 1261 q 596 1056 751 1056 q 538 1065 564 1056 q 481 1093 513 1075 q 440 1113 456 1107 q 408 1119 425 1119 q 347 1054 357 1119 l 228 1054 q 417 1261 263 1261 z "},"Ä":{"ha":1014,"x_min":11,"x_max":1004,"o":"m 690 179 l 322 179 l 261 0 l 11 0 l 371 975 l 644 975 l 1004 0 l 751 0 l 690 179 m 629 360 l 507 721 l 383 360 l 629 360 m 267 1169 q 295 1242 267 1213 q 367 1271 324 1271 q 438 1242 410 1271 q 467 1169 467 1213 q 438 1099 467 1128 q 367 1071 410 1071 q 295 1099 324 1071 q 267 1169 267 1128 m 549 1169 q 577 1242 549 1213 q 647 1271 606 1271 q 719 1242 690 1271 q 747 1169 747 1213 q 719 1099 747 1128 q 647 1071 690 1071 q 577 1099 606 1071 q 549 1169 549 1128 z "},"Å":{"ha":1014,"x_min":11,"x_max":1004,"o":"m 690 179 l 322 179 l 261 0 l 11 0 l 371 975 l 644 975 l 1004 0 l 751 0 l 690 179 m 629 360 l 507 721 l 383 360 l 629 360 m 507 1376 q 628 1330 579 1376 q 676 1207 676 1283 q 628 1085 676 1131 q 507 1039 579 1039 q 387 1085 435 1039 q 339 1207 339 1131 q 387 1331 339 1285 q 507 1376 435 1376 m 507 1281 q 456 1260 476 1281 q 435 1207 435 1240 q 456 1153 435 1174 q 507 1133 476 1133 q 559 1153 539 1133 q 579 1207 579 1174 q 559 1260 579 1240 q 507 1281 539 1281 z "},"Æ":{"ha":1318,"x_min":4,"x_max":1265,"o":"m 903 793 l 903 592 l 1224 592 l 1224 411 l 903 411 l 903 190 l 1265 190 l 1265 0 l 664 0 l 664 168 l 347 168 l 263 0 l 4 0 l 507 982 l 1265 982 l 1265 793 l 903 793 m 664 349 l 664 792 l 439 349 l 664 349 z "},"Ç":{"ha":1051,"x_min":53,"x_max":1000,"o":"m 531 992 q 841 893 718 992 q 1000 626 964 794 l 749 626 q 663 733 721 694 q 526 772 606 772 q 358 696 422 772 q 294 492 294 619 q 358 288 294 364 q 526 213 422 213 q 663 251 606 213 q 749 357 721 290 l 1000 357 q 841 91 964 190 q 531 -8 718 -8 q 279 55 388 -8 q 112 232 171 118 q 53 492 53 346 q 112 751 53 638 q 279 928 171 865 q 531 992 388 992 m 603 -60 q 727 -95 672 -57 q 782 -214 782 -133 q 726 -333 782 -294 q 589 -371 669 -371 l 388 -371 l 388 -246 l 564 -246 q 622 -207 622 -246 q 608 -179 622 -189 q 564 -169 593 -169 l 463 -169 l 463 10 l 603 10 l 603 -60 z "},"È":{"ha":746,"x_min":82,"x_max":693,"o":"m 319 793 l 319 588 l 651 588 l 651 408 l 319 408 l 319 190 l 693 190 l 693 0 l 82 0 l 82 982 l 693 982 l 693 793 l 319 793 m 521 1199 l 521 1038 l 186 1181 l 186 1360 l 521 1199 z "},"É":{"ha":746,"x_min":82,"x_max":693,"o":"m 319 793 l 319 588 l 651 588 l 651 408 l 319 408 l 319 190 l 693 190 l 693 0 l 82 0 l 82 982 l 693 982 l 693 793 l 319 793 m 588 1181 l 253 1038 l 253 1199 l 588 1360 l 588 1181 z "},"Ê":{"ha":746,"x_min":82,"x_max":693,"o":"m 319 793 l 319 588 l 651 588 l 651 408 l 319 408 l 319 190 l 693 190 l 693 0 l 82 0 l 82 982 l 693 982 l 693 793 l 319 793 m 389 1158 l 174 1039 l 174 1196 l 389 1313 l 604 1196 l 604 1039 l 389 1158 z "},"Ë":{"ha":746,"x_min":82,"x_max":693,"o":"m 319 793 l 319 588 l 651 588 l 651 408 l 319 408 l 319 190 l 693 190 l 693 0 l 82 0 l 82 982 l 693 982 l 693 793 l 319 793 m 147 1169 q 176 1242 147 1213 q 247 1271 204 1271 q 319 1242 290 1271 q 347 1169 347 1213 q 319 1099 347 1128 q 247 1071 290 1071 q 176 1099 204 1071 q 147 1169 147 1128 m 429 1169 q 458 1242 429 1213 q 528 1271 486 1271 q 599 1242 571 1271 q 628 1169 628 1213 q 599 1099 628 1128 q 528 1071 571 1071 q 458 1099 486 1071 q 429 1169 429 1128 z "},"Ì":{"ha":401,"x_min":0,"x_max":335,"o":"m 319 982 l 319 0 l 82 0 l 82 982 l 319 982 m 335 1199 l 335 1038 l 0 1181 l 0 1360 l 335 1199 z "},"Í":{"ha":401,"x_min":67,"x_max":401,"o":"m 319 982 l 319 0 l 82 0 l 82 982 l 319 982 m 401 1181 l 67 1038 l 67 1199 l 401 1360 l 401 1181 z "},"Î":{"ha":401,"x_min":-14,"x_max":417,"o":"m 319 982 l 319 0 l 82 0 l 82 982 l 319 982 m 201 1158 l -14 1039 l -14 1196 l 201 1313 l 417 1196 l 417 1039 l 201 1158 z "},"Ï":{"ha":401,"x_min":-39,"x_max":442,"o":"m 319 982 l 319 0 l 82 0 l 82 982 l 319 982 m -39 1169 q -10 1242 -39 1213 q 61 1271 18 1271 q 133 1242 104 1271 q 161 1169 161 1213 q 133 1099 161 1128 q 61 1071 104 1071 q -10 1099 18 1071 q -39 1169 -39 1128 m 243 1169 q 272 1242 243 1213 q 342 1271 300 1271 q 413 1242 385 1271 q 442 1169 442 1213 q 413 1099 442 1128 q 342 1071 385 1071 q 272 1099 300 1071 q 243 1169 243 1128 z "},"Ð":{"ha":1032,"x_min":4,"x_max":979,"o":"m 467 982 q 740 921 625 982 q 917 749 856 860 q 979 493 979 638 q 917 237 979 349 q 740 63 856 125 q 467 0 624 0 l 96 0 l 96 399 l 4 399 l 4 588 l 96 588 l 96 982 l 467 982 m 446 213 q 662 286 585 213 q 739 493 739 360 q 662 700 739 626 q 446 774 585 774 l 333 774 l 333 588 l 550 588 l 550 399 l 333 399 l 333 213 l 446 213 z "},"Ñ":{"ha":1036,"x_min":82,"x_max":954,"o":"m 954 0 l 717 0 l 319 603 l 319 0 l 82 0 l 82 982 l 319 982 l 717 374 l 717 982 l 954 982 l 954 0 m 428 1261 q 483 1251 458 1261 q 539 1224 508 1242 q 583 1202 568 1208 q 615 1196 599 1196 q 676 1261 667 1196 l 796 1261 q 607 1056 763 1056 q 549 1065 575 1056 q 492 1093 524 1075 q 451 1113 467 1107 q 419 1119 436 1119 q 358 1054 368 1119 l 239 1054 q 428 1261 274 1261 z "},"Ò":{"ha":1096,"x_min":53,"x_max":1044,"o":"m 549 997 q 801 933 688 997 q 979 753 914 868 q 1044 494 1044 639 q 978 235 1044 350 q 799 55 913 119 q 549 -10 686 -10 q 298 55 411 -10 q 119 235 185 119 q 53 494 53 350 q 119 753 53 639 q 298 933 185 868 q 549 997 411 997 m 549 776 q 363 701 432 776 q 294 494 294 625 q 363 289 294 365 q 549 213 432 213 q 733 289 664 213 q 803 494 803 365 q 734 700 803 624 q 549 776 665 776 m 682 1199 l 682 1038 l 347 1181 l 347 1360 l 682 1199 z "},"Ó":{"ha":1096,"x_min":53,"x_max":1044,"o":"m 549 997 q 801 933 688 997 q 979 753 914 868 q 1044 494 1044 639 q 978 235 1044 350 q 799 55 913 119 q 549 -10 686 -10 q 298 55 411 -10 q 119 235 185 119 q 53 494 53 350 q 119 753 53 639 q 298 933 185 868 q 549 997 411 997 m 549 776 q 363 701 432 776 q 294 494 294 625 q 363 289 294 365 q 549 213 432 213 q 733 289 664 213 q 803 494 803 365 q 734 700 803 624 q 549 776 665 776 m 749 1181 l 414 1038 l 414 1199 l 749 1360 l 749 1181 z "},"Ô":{"ha":1096,"x_min":53,"x_max":1044,"o":"m 549 997 q 801 933 688 997 q 979 753 914 868 q 1044 494 1044 639 q 978 235 1044 350 q 799 55 913 119 q 549 -10 686 -10 q 298 55 411 -10 q 119 235 185 119 q 53 494 53 350 q 119 753 53 639 q 298 933 185 868 q 549 997 411 997 m 549 776 q 363 701 432 776 q 294 494 294 625 q 363 289 294 365 q 549 213 432 213 q 733 289 664 213 q 803 494 803 365 q 734 700 803 624 q 549 776 665 776 m 550 1158 l 335 1039 l 335 1196 l 550 1313 l 765 1196 l 765 1039 l 550 1158 z "},"Õ":{"ha":1096,"x_min":53,"x_max":1044,"o":"m 549 997 q 801 933 688 997 q 979 753 914 868 q 1044 494 1044 639 q 978 235 1044 350 q 799 55 913 119 q 549 -10 686 -10 q 298 55 411 -10 q 119 235 185 119 q 53 494 53 350 q 119 753 53 639 q 298 933 185 868 q 549 997 411 997 m 549 776 q 363 701 432 776 q 294 494 294 625 q 363 289 294 365 q 549 213 432 213 q 733 289 664 213 q 803 494 803 365 q 734 700 803 624 q 549 776 665 776 m 458 1261 q 514 1251 489 1261 q 569 1224 539 1242 q 614 1202 599 1208 q 646 1196 629 1196 q 707 1261 697 1196 l 826 1261 q 638 1056 793 1056 q 580 1065 606 1056 q 522 1093 554 1075 q 482 1113 497 1107 q 450 1119 467 1119 q 389 1054 399 1119 l 269 1054 q 458 1261 304 1261 z "},"Ö":{"ha":1096,"x_min":53,"x_max":1044,"o":"m 549 997 q 801 933 688 997 q 979 753 914 868 q 1044 494 1044 639 q 978 235 1044 350 q 799 55 913 119 q 549 -10 686 -10 q 298 55 411 -10 q 119 235 185 119 q 53 494 53 350 q 119 753 53 639 q 298 933 185 868 q 549 997 411 997 m 549 776 q 363 701 432 776 q 294 494 294 625 q 363 289 294 365 q 549 213 432 213 q 733 289 664 213 q 803 494 803 365 q 734 700 803 624 q 549 776 665 776 m 308 1169 q 337 1242 308 1213 q 408 1271 365 1271 q 480 1242 451 1271 q 508 1169 508 1213 q 480 1099 508 1128 q 408 1071 451 1071 q 337 1099 365 1071 q 308 1169 308 1128 m 590 1169 q 619 1242 590 1213 q 689 1271 647 1271 q 760 1242 732 1271 q 789 1169 789 1213 q 760 1099 789 1128 q 689 1071 732 1071 q 619 1099 647 1071 q 590 1169 590 1128 z "},"×":{"ha":768,"x_min":35,"x_max":733,"o":"m 575 146 l 381 340 l 189 147 l 35 300 l 226 493 l 39 681 l 197 838 l 383 651 l 567 836 l 722 685 l 538 497 l 733 301 l 575 146 z "},"Ø":{"ha":1096,"x_min":40,"x_max":1056,"o":"m 919 835 q 1011 682 979 769 q 1043 494 1043 594 q 977 235 1043 350 q 798 55 911 119 q 547 -10 685 -10 q 386 15 463 -10 q 247 88 310 40 l 169 1 l 40 1 l 176 153 q 84 307 117 219 q 51 494 51 394 q 117 753 51 639 q 297 933 183 868 q 547 997 410 997 q 710 972 633 997 q 849 900 786 947 l 926 986 l 1056 986 l 919 835 m 293 494 q 333 328 293 396 l 697 732 q 547 776 636 776 q 362 701 431 776 q 293 494 293 625 m 801 494 q 761 660 801 592 l 399 256 q 547 213 461 213 q 732 289 663 213 q 801 494 801 365 z "},"Ù":{"ha":968,"x_min":76,"x_max":892,"o":"m 313 982 l 313 415 q 356 267 313 318 q 483 215 400 215 q 610 267 567 215 q 654 415 654 318 l 654 982 l 892 982 l 892 415 q 838 181 892 276 q 690 38 783 86 q 478 -10 596 -10 q 269 38 360 -10 q 128 181 179 85 q 76 415 76 276 l 76 982 l 313 982 m 617 1199 l 617 1038 l 282 1181 l 282 1360 l 617 1199 z "},"Ú":{"ha":968,"x_min":76,"x_max":892,"o":"m 313 982 l 313 415 q 356 267 313 318 q 483 215 400 215 q 610 267 567 215 q 654 415 654 318 l 654 982 l 892 982 l 892 415 q 838 181 892 276 q 690 38 783 86 q 478 -10 596 -10 q 269 38 360 -10 q 128 181 179 85 q 76 415 76 276 l 76 982 l 313 982 m 683 1181 l 349 1038 l 349 1199 l 683 1360 l 683 1181 z "},"Û":{"ha":968,"x_min":76,"x_max":892,"o":"m 313 982 l 313 415 q 356 267 313 318 q 483 215 400 215 q 610 267 567 215 q 654 415 654 318 l 654 982 l 892 982 l 892 415 q 838 181 892 276 q 690 38 783 86 q 478 -10 596 -10 q 269 38 360 -10 q 128 181 179 85 q 76 415 76 276 l 76 982 l 313 982 m 485 1158 l 269 1039 l 269 1196 l 485 1313 l 700 1196 l 700 1039 l 485 1158 z "},"Ü":{"ha":968,"x_min":76,"x_max":892,"o":"m 313 982 l 313 415 q 356 267 313 318 q 483 215 400 215 q 610 267 567 215 q 654 415 654 318 l 654 982 l 892 982 l 892 415 q 838 181 892 276 q 690 38 783 86 q 478 -10 596 -10 q 269 38 360 -10 q 128 181 179 85 q 76 415 76 276 l 76 982 l 313 982 m 243 1169 q 272 1242 243 1213 q 343 1271 300 1271 q 415 1242 386 1271 q 443 1169 443 1213 q 415 1099 443 1128 q 343 1071 386 1071 q 272 1099 300 1071 q 243 1169 243 1128 m 525 1169 q 553 1242 525 1213 q 624 1271 582 1271 q 695 1242 667 1271 q 724 1169 724 1213 q 695 1099 724 1128 q 624 1071 667 1071 q 553 1099 582 1071 q 525 1169 525 1128 z "},"Ý":{"ha":940,"x_min":11,"x_max":931,"o":"m 931 982 l 590 326 l 590 0 l 351 0 l 351 326 l 11 982 l 283 982 l 472 582 l 661 982 l 931 982 m 671 1181 l 336 1038 l 336 1199 l 671 1360 l 671 1181 z "},"Þ":{"ha":860,"x_min":82,"x_max":825,"o":"m 319 186 l 319 0 l 82 0 l 82 982 l 318 982 l 318 803 l 467 803 q 733 718 642 803 q 825 492 825 633 q 784 333 825 403 q 663 225 743 264 q 467 186 582 186 l 319 186 m 440 365 q 583 492 583 365 q 440 621 583 621 l 319 621 l 319 365 l 440 365 z "},"ß":{"ha":1010,"x_min":82,"x_max":985,"o":"m 774 560 q 936 426 888 496 q 985 256 985 357 q 949 120 985 181 q 849 24 914 60 q 696 -11 783 -11 q 469 67 547 -11 q 390 285 392 146 l 585 285 q 612 219 589 242 q 674 196 635 196 q 734 219 714 196 q 754 275 754 242 q 733 338 754 311 q 658 396 713 365 l 451 511 l 451 604 l 479 621 q 524 663 510 639 q 538 717 538 686 q 510 794 538 764 q 433 825 482 825 q 350 792 382 825 q 318 700 318 760 l 319 0 l 82 0 l 82 650 q 461 1042 82 1042 q 635 1010 563 1042 q 744 924 707 978 q 781 804 781 869 q 753 701 781 744 q 663 624 726 657 l 774 560 z "},"à":{"ha":942,"x_min":42,"x_max":860,"o":"m 376 785 q 529 744 465 785 q 624 635 593 704 l 624 775 l 860 775 l 860 0 l 624 0 l 624 140 q 529 31 593 71 q 376 -10 465 -10 q 205 38 281 -10 q 85 176 129 86 q 42 388 42 267 q 85 599 42 510 q 205 737 129 689 q 376 785 281 785 m 453 576 q 330 526 376 576 q 283 388 283 476 q 330 249 283 299 q 453 199 376 199 q 576 250 528 199 q 624 388 624 301 q 576 526 624 475 q 453 576 528 576 m 585 992 l 585 831 l 250 974 l 250 1153 l 585 992 z "},"á":{"ha":942,"x_min":42,"x_max":860,"o":"m 376 785 q 529 744 465 785 q 624 635 593 704 l 624 775 l 860 775 l 860 0 l 624 0 l 624 140 q 529 31 593 71 q 376 -10 465 -10 q 205 38 281 -10 q 85 176 129 86 q 42 388 42 267 q 85 599 42 510 q 205 737 129 689 q 376 785 281 785 m 453 576 q 330 526 376 576 q 283 388 283 476 q 330 249 283 299 q 453 199 376 199 q 576 250 528 199 q 624 388 624 301 q 576 526 624 475 q 453 576 528 576 m 651 974 l 317 831 l 317 992 l 651 1153 l 651 974 z "},"â":{"ha":942,"x_min":42,"x_max":860,"o":"m 376 785 q 529 744 465 785 q 624 635 593 704 l 624 775 l 860 775 l 860 0 l 624 0 l 624 140 q 529 31 593 71 q 376 -10 465 -10 q 205 38 281 -10 q 85 176 129 86 q 42 388 42 267 q 85 599 42 510 q 205 737 129 689 q 376 785 281 785 m 453 576 q 330 526 376 576 q 283 388 283 476 q 330 249 283 299 q 453 199 376 199 q 576 250 528 199 q 624 388 624 301 q 576 526 624 475 q 453 576 528 576 m 453 951 l 238 832 l 238 989 l 453 1106 l 668 989 l 668 832 l 453 951 z "},"ã":{"ha":942,"x_min":42,"x_max":860,"o":"m 376 785 q 529 744 465 785 q 624 635 593 704 l 624 775 l 860 775 l 860 0 l 624 0 l 624 140 q 529 31 593 71 q 376 -10 465 -10 q 205 38 281 -10 q 85 176 129 86 q 42 388 42 267 q 85 599 42 510 q 205 737 129 689 q 376 785 281 785 m 453 576 q 330 526 376 576 q 283 388 283 476 q 330 249 283 299 q 453 199 376 199 q 576 250 528 199 q 624 388 624 301 q 576 526 624 475 q 453 576 528 576 m 361 1054 q 417 1044 392 1054 q 472 1017 442 1035 q 517 995 501 1001 q 549 989 532 989 q 610 1054 600 989 l 729 1054 q 540 849 696 849 q 483 858 508 849 q 425 886 457 868 q 385 906 400 900 q 353 913 369 913 q 292 847 301 913 l 172 847 q 361 1054 207 1054 z "},"ä":{"ha":942,"x_min":42,"x_max":860,"o":"m 376 785 q 529 744 465 785 q 624 635 593 704 l 624 775 l 860 775 l 860 0 l 624 0 l 624 140 q 529 31 593 71 q 376 -10 465 -10 q 205 38 281 -10 q 85 176 129 86 q 42 388 42 267 q 85 599 42 510 q 205 737 129 689 q 376 785 281 785 m 453 576 q 330 526 376 576 q 283 388 283 476 q 330 249 283 299 q 453 199 376 199 q 576 250 528 199 q 624 388 624 301 q 576 526 624 475 q 453 576 528 576 m 211 963 q 240 1035 211 1006 q 311 1064 268 1064 q 383 1035 354 1064 q 411 963 411 1006 q 383 892 411 921 q 311 864 354 864 q 240 892 268 864 q 211 963 211 921 m 493 963 q 522 1035 493 1006 q 592 1064 550 1064 q 663 1035 635 1064 q 692 963 692 1006 q 663 892 692 921 q 592 864 635 864 q 522 892 550 864 q 493 963 493 921 z "},"å":{"ha":942,"x_min":42,"x_max":860,"o":"m 376 785 q 529 744 465 785 q 624 635 593 704 l 624 775 l 860 775 l 860 0 l 624 0 l 624 140 q 529 31 593 71 q 376 -10 465 -10 q 205 38 281 -10 q 85 176 129 86 q 42 388 42 267 q 85 599 42 510 q 205 737 129 689 q 376 785 281 785 m 453 576 q 330 526 376 576 q 283 388 283 476 q 330 249 283 299 q 453 199 376 199 q 576 250 528 199 q 624 388 624 301 q 576 526 624 475 q 453 576 528 576 m 451 1169 q 572 1123 524 1169 q 621 1000 621 1076 q 572 878 621 924 q 451 832 524 832 q 331 878 379 832 q 283 1000 283 924 q 331 1124 283 1078 q 451 1169 379 1169 m 451 1074 q 400 1053 421 1074 q 379 1000 379 1033 q 400 947 379 967 q 451 926 421 926 q 503 947 483 926 q 524 1000 524 967 q 503 1053 524 1033 q 451 1074 483 1074 z "},"æ":{"ha":1492,"x_min":42,"x_max":1450,"o":"m 1450 408 q 1444 344 1450 372 l 868 344 q 920 218 875 258 q 1035 178 965 178 q 1135 203 1096 178 q 1186 275 1174 229 l 1438 275 q 1328 69 1414 149 q 1117 -10 1242 -10 q 956 30 1024 -10 q 860 142 889 69 l 860 0 l 624 0 l 624 140 q 529 31 593 71 q 376 -10 465 -10 q 205 38 281 -10 q 85 176 129 86 q 42 388 42 267 q 85 599 42 510 q 205 737 129 689 q 376 785 281 785 q 529 744 465 785 q 624 635 593 704 l 624 775 l 860 775 l 860 635 q 956 745 888 706 q 1117 785 1024 785 q 1292 738 1217 785 q 1408 605 1367 690 q 1450 408 1450 519 m 1210 444 q 1164 558 1213 519 q 1042 597 1115 597 q 924 560 972 597 q 868 444 876 524 l 1210 444 m 453 199 q 576 250 528 199 q 624 388 624 301 q 576 526 624 475 q 453 576 528 576 q 330 526 376 576 q 283 388 283 476 q 330 249 283 299 q 453 199 376 199 z "},"ç":{"ha":853,"x_min":42,"x_max":811,"o":"m 432 785 q 683 702 582 785 q 811 475 785 619 l 560 475 q 514 553 549 525 q 426 581 479 581 q 324 531 364 581 q 283 388 283 482 q 324 244 283 293 q 426 194 364 194 q 514 222 479 194 q 560 300 549 250 l 811 300 q 683 73 785 156 q 432 -10 582 -10 q 230 38 318 -10 q 92 176 142 86 q 42 388 42 267 q 91 599 42 510 q 229 737 140 689 q 432 785 318 785 m 463 -60 q 587 -95 532 -57 q 642 -214 642 -133 q 585 -333 642 -294 q 449 -371 529 -371 l 247 -371 l 247 -246 l 424 -246 q 482 -207 482 -246 q 467 -179 482 -189 q 424 -169 453 -169 l 322 -169 l 322 10 l 463 10 l 463 -60 z "},"è":{"ha":860,"x_min":42,"x_max":818,"o":"m 818 408 q 811 344 818 379 l 274 344 q 318 219 278 257 q 421 181 358 181 q 508 207 474 181 q 554 275 543 233 l 806 275 q 739 128 790 193 q 608 27 688 64 q 432 -10 529 -10 q 230 38 318 -10 q 92 176 142 86 q 42 388 42 267 q 91 599 42 510 q 229 737 140 689 q 432 785 318 785 q 635 738 547 785 q 770 605 722 690 q 818 408 818 519 m 578 444 q 537 559 579 521 q 432 597 494 597 q 324 558 367 597 q 275 444 281 519 l 578 444 m 564 992 l 564 831 l 229 974 l 229 1153 l 564 992 z "},"é":{"ha":860,"x_min":42,"x_max":818,"o":"m 818 408 q 811 344 818 379 l 274 344 q 318 219 278 257 q 421 181 358 181 q 508 207 474 181 q 554 275 543 233 l 806 275 q 739 128 790 193 q 608 27 688 64 q 432 -10 529 -10 q 230 38 318 -10 q 92 176 142 86 q 42 388 42 267 q 91 599 42 510 q 229 737 140 689 q 432 785 318 785 q 635 738 547 785 q 770 605 722 690 q 818 408 818 519 m 578 444 q 537 559 579 521 q 432 597 494 597 q 324 558 367 597 q 275 444 281 519 l 578 444 m 631 974 l 296 831 l 296 992 l 631 1153 l 631 974 z "},"ê":{"ha":860,"x_min":42,"x_max":818,"o":"m 818 408 q 811 344 818 379 l 274 344 q 318 219 278 257 q 421 181 358 181 q 508 207 474 181 q 554 275 543 233 l 806 275 q 739 128 790 193 q 608 27 688 64 q 432 -10 529 -10 q 230 38 318 -10 q 92 176 142 86 q 42 388 42 267 q 91 599 42 510 q 229 737 140 689 q 432 785 318 785 q 635 738 547 785 q 770 605 722 690 q 818 408 818 519 m 578 444 q 537 559 579 521 q 432 597 494 597 q 324 558 367 597 q 275 444 281 519 l 578 444 m 432 951 l 217 832 l 217 989 l 432 1106 l 647 989 l 647 832 l 432 951 z "},"ë":{"ha":860,"x_min":42,"x_max":818,"o":"m 818 408 q 811 344 818 379 l 274 344 q 318 219 278 257 q 421 181 358 181 q 508 207 474 181 q 554 275 543 233 l 806 275 q 739 128 790 193 q 608 27 688 64 q 432 -10 529 -10 q 230 38 318 -10 q 92 176 142 86 q 42 388 42 267 q 91 599 42 510 q 229 737 140 689 q 432 785 318 785 q 635 738 547 785 q 770 605 722 690 q 818 408 818 519 m 578 444 q 537 559 579 521 q 432 597 494 597 q 324 558 367 597 q 275 444 281 519 l 578 444 m 190 963 q 219 1035 190 1006 q 290 1064 247 1064 q 362 1035 333 1064 q 390 963 390 1006 q 362 892 390 921 q 290 864 333 864 q 219 892 247 864 q 190 963 190 921 m 472 963 q 501 1035 472 1006 q 571 1064 529 1064 q 642 1035 614 1064 q 671 963 671 1006 q 642 892 671 921 q 571 864 614 864 q 501 892 529 864 q 472 963 472 921 z "},"ì":{"ha":454,"x_min":26,"x_max":361,"o":"m 346 775 l 346 0 l 108 0 l 108 775 l 346 775 m 361 992 l 361 831 l 26 974 l 26 1153 l 361 992 z "},"í":{"ha":454,"x_min":92,"x_max":426,"o":"m 346 775 l 346 0 l 108 0 l 108 775 l 346 775 m 426 974 l 92 831 l 92 992 l 426 1153 l 426 974 z "},"î":{"ha":454,"x_min":13,"x_max":443,"o":"m 346 775 l 346 0 l 108 0 l 108 775 l 346 775 m 228 951 l 13 832 l 13 989 l 228 1106 l 443 989 l 443 832 l 228 951 z "},"ï":{"ha":454,"x_min":-14,"x_max":467,"o":"m 346 775 l 346 0 l 108 0 l 108 775 l 346 775 m -14 963 q 15 1035 -14 1006 q 86 1064 43 1064 q 158 1035 129 1064 q 186 963 186 1006 q 158 892 186 921 q 86 864 129 864 q 15 892 43 864 q -14 963 -14 921 m 268 963 q 297 1035 268 1006 q 367 1064 325 1064 q 438 1035 410 1064 q 467 963 467 1006 q 438 892 467 921 q 367 864 410 864 q 297 892 325 864 q 268 963 268 921 z "},"ð":{"ha":894,"x_min":42,"x_max":853,"o":"m 676 921 q 806 690 760 814 q 853 438 853 567 q 800 195 853 296 q 657 43 747 94 q 454 -8 567 -8 q 246 42 340 -8 q 97 183 151 92 q 42 396 42 275 q 92 601 42 514 q 229 736 142 689 q 426 783 317 783 q 519 764 475 783 q 594 706 564 744 q 513 871 564 794 l 363 825 l 363 907 l 461 938 q 369 1028 417 988 l 578 1028 l 621 986 l 744 1024 l 744 942 l 676 921 m 454 197 q 565 246 521 197 q 610 388 610 294 q 563 530 610 482 q 450 578 515 578 q 333 531 381 578 q 285 393 285 485 q 335 248 285 299 q 454 197 385 197 z "},"ñ":{"ha":939,"x_min":82,"x_max":864,"o":"m 574 783 q 785 694 707 783 q 864 450 864 606 l 864 0 l 626 0 l 626 422 q 585 544 626 500 q 476 588 544 588 q 362 542 404 588 q 319 411 319 496 l 319 0 l 82 0 l 82 775 l 319 775 l 319 633 q 419 743 353 703 q 574 783 485 783 m 382 1054 q 438 1044 413 1054 q 493 1017 463 1035 q 538 995 522 1001 q 569 989 553 989 q 631 1054 621 989 l 750 1054 q 561 849 717 849 q 503 858 529 849 q 446 886 478 868 q 406 906 421 900 q 374 913 390 913 q 313 847 322 913 l 193 847 q 382 1054 228 1054 z "},"ò":{"ha":888,"x_min":42,"x_max":846,"o":"m 444 785 q 651 737 560 785 q 794 599 742 689 q 846 388 846 508 q 794 176 846 267 q 651 38 742 86 q 444 -10 560 -10 q 238 38 329 -10 q 94 176 146 86 q 42 388 42 267 q 94 599 42 508 q 238 737 146 689 q 444 785 329 785 m 444 579 q 330 530 376 579 q 283 388 283 481 q 330 246 283 294 q 444 197 376 197 q 558 246 513 197 q 604 388 604 294 q 558 530 604 481 q 444 579 513 579 m 578 992 l 578 831 l 243 974 l 243 1153 l 578 992 z "},"ó":{"ha":888,"x_min":42,"x_max":846,"o":"m 444 785 q 651 737 560 785 q 794 599 742 689 q 846 388 846 508 q 794 176 846 267 q 651 38 742 86 q 444 -10 560 -10 q 238 38 329 -10 q 94 176 146 86 q 42 388 42 267 q 94 599 42 508 q 238 737 146 689 q 444 785 329 785 m 444 579 q 330 530 376 579 q 283 388 283 481 q 330 246 283 294 q 444 197 376 197 q 558 246 513 197 q 604 388 604 294 q 558 530 604 481 q 444 579 513 579 m 643 974 l 308 831 l 308 992 l 643 1153 l 643 974 z "},"ô":{"ha":888,"x_min":42,"x_max":846,"o":"m 444 785 q 651 737 560 785 q 794 599 742 689 q 846 388 846 508 q 794 176 846 267 q 651 38 742 86 q 444 -10 560 -10 q 238 38 329 -10 q 94 176 146 86 q 42 388 42 267 q 94 599 42 508 q 238 737 146 689 q 444 785 329 785 m 444 579 q 330 530 376 579 q 283 388 283 481 q 330 246 283 294 q 444 197 376 197 q 558 246 513 197 q 604 388 604 294 q 558 530 604 481 q 444 579 513 579 m 444 951 l 229 832 l 229 989 l 444 1106 l 660 989 l 660 832 l 444 951 z "},"õ":{"ha":888,"x_min":42,"x_max":846,"o":"m 444 785 q 651 737 560 785 q 794 599 742 689 q 846 388 846 508 q 794 176 846 267 q 651 38 742 86 q 444 -10 560 -10 q 238 38 329 -10 q 94 176 146 86 q 42 388 42 267 q 94 599 42 508 q 238 737 146 689 q 444 785 329 785 m 444 579 q 330 530 376 579 q 283 388 283 481 q 330 246 283 294 q 444 197 376 197 q 558 246 513 197 q 604 388 604 294 q 558 530 604 481 q 444 579 513 579 m 354 1054 q 410 1044 385 1054 q 465 1017 435 1035 q 510 995 494 1001 q 542 989 525 989 q 603 1054 593 989 l 722 1054 q 533 849 689 849 q 476 858 501 849 q 418 886 450 868 q 378 906 393 900 q 346 913 363 913 q 285 847 294 913 l 165 847 q 354 1054 200 1054 z "},"ö":{"ha":888,"x_min":42,"x_max":846,"o":"m 444 785 q 651 737 560 785 q 794 599 742 689 q 846 388 846 508 q 794 176 846 267 q 651 38 742 86 q 444 -10 560 -10 q 238 38 329 -10 q 94 176 146 86 q 42 388 42 267 q 94 599 42 508 q 238 737 146 689 q 444 785 329 785 m 444 579 q 330 530 376 579 q 283 388 283 481 q 330 246 283 294 q 444 197 376 197 q 558 246 513 197 q 604 388 604 294 q 558 530 604 481 q 444 579 513 579 m 204 963 q 233 1035 204 1006 q 304 1064 261 1064 q 376 1035 347 1064 q 404 963 404 1006 q 376 892 404 921 q 304 864 347 864 q 233 892 261 864 q 204 963 204 921 m 486 963 q 515 1035 486 1006 q 585 1064 543 1064 q 656 1035 628 1064 q 685 963 685 1006 q 656 892 685 921 q 585 864 628 864 q 515 892 543 864 q 486 963 486 921 z "},"÷":{"ha":779,"x_min":35,"x_max":744,"o":"m 511 924 l 511 686 l 265 686 l 265 924 l 511 924 m 744 594 l 744 379 l 35 379 l 35 594 l 744 594 m 511 289 l 511 50 l 265 50 l 265 289 l 511 289 z "},"ø":{"ha":872,"x_min":24,"x_max":849,"o":"m 743 660 q 838 388 838 553 q 785 176 838 267 q 642 38 733 86 q 436 -10 551 -10 q 194 60 296 -10 l 139 0 l 24 0 l 129 115 q 33 388 33 225 q 85 599 33 508 q 229 737 138 689 q 436 785 321 785 q 679 715 578 785 l 733 775 l 849 775 l 743 660 m 275 388 q 292 293 275 331 l 528 550 q 436 579 489 579 q 322 530 368 579 q 275 388 275 481 m 596 388 q 579 481 596 443 l 344 225 q 436 197 382 197 q 550 246 504 197 q 596 388 596 294 z "},"ù":{"ha":935,"x_min":71,"x_max":853,"o":"m 853 775 l 853 0 l 614 0 l 614 140 q 515 32 581 72 q 361 -8 449 -8 q 149 81 228 -8 q 71 325 71 169 l 71 775 l 307 775 l 307 354 q 348 231 307 275 q 458 188 389 188 q 572 233 531 188 q 614 364 614 279 l 614 775 l 853 775 m 594 992 l 594 831 l 260 974 l 260 1153 l 594 992 z "},"ú":{"ha":935,"x_min":71,"x_max":853,"o":"m 853 775 l 853 0 l 614 0 l 614 140 q 515 32 581 72 q 361 -8 449 -8 q 149 81 228 -8 q 71 325 71 169 l 71 775 l 307 775 l 307 354 q 348 231 307 275 q 458 188 389 188 q 572 233 531 188 q 614 364 614 279 l 614 775 l 853 775 m 661 974 l 326 831 l 326 992 l 661 1153 l 661 974 z "},"û":{"ha":935,"x_min":71,"x_max":853,"o":"m 853 775 l 853 0 l 614 0 l 614 140 q 515 32 581 72 q 361 -8 449 -8 q 149 81 228 -8 q 71 325 71 169 l 71 775 l 307 775 l 307 354 q 348 231 307 275 q 458 188 389 188 q 572 233 531 188 q 614 364 614 279 l 614 775 l 853 775 m 463 951 l 247 832 l 247 989 l 463 1106 l 678 989 l 678 832 l 463 951 z "},"ü":{"ha":935,"x_min":71,"x_max":853,"o":"m 853 775 l 853 0 l 614 0 l 614 140 q 515 32 581 72 q 361 -8 449 -8 q 149 81 228 -8 q 71 325 71 169 l 71 775 l 307 775 l 307 354 q 348 231 307 275 q 458 188 389 188 q 572 233 531 188 q 614 364 614 279 l 614 775 l 853 775 m 221 963 q 249 1035 221 1006 q 321 1064 278 1064 q 392 1035 364 1064 q 421 963 421 1006 q 392 892 421 921 q 321 864 364 864 q 249 892 278 864 q 221 963 221 921 m 503 963 q 531 1035 503 1006 q 601 1064 560 1064 q 673 1035 644 1064 q 701 963 701 1006 q 673 892 701 921 q 601 864 644 864 q 531 892 560 864 q 503 963 503 921 z "},"ý":{"ha":881,"x_min":-4,"x_max":883,"o":"m 261 775 l 447 300 l 621 775 l 883 775 l 400 -369 l 139 -369 l 321 29 l -4 775 l 261 775 m 639 974 l 304 831 l 304 992 l 639 1153 l 639 974 z "},"þ":{"ha":942,"x_min":82,"x_max":900,"o":"m 549 782 q 726 731 646 782 q 853 590 807 681 q 900 383 900 500 q 853 179 900 268 q 726 41 807 90 q 549 -8 646 -8 q 319 125 399 -8 l 319 -369 l 82 -369 l 82 1028 l 319 1028 l 319 663 q 549 782 394 782 m 490 575 q 370 526 421 575 q 319 388 319 478 q 370 247 319 296 q 490 199 421 199 q 609 245 560 199 q 658 383 658 292 q 609 525 658 475 q 490 575 560 575 z "},"ÿ":{"ha":881,"x_min":-4,"x_max":883,"o":"m 261 775 l 447 300 l 621 775 l 883 775 l 400 -369 l 139 -369 l 321 29 l -4 775 l 261 775 m 200 963 q 228 1035 200 1006 q 300 1064 257 1064 q 372 1035 343 1064 q 400 963 400 1006 q 372 892 400 921 q 300 864 343 864 q 228 892 257 864 q 200 963 200 921 m 482 963 q 510 1035 482 1006 q 581 1064 539 1064 q 652 1035 624 1064 q 681 963 681 1006 q 652 892 681 921 q 581 864 624 864 q 510 892 539 864 q 482 963 482 921 z "},"Ā":{"ha":1014,"x_min":11,"x_max":1004,"o":"m 690 179 l 322 179 l 261 0 l 11 0 l 371 975 l 644 975 l 1004 0 l 751 0 l 690 179 m 629 360 l 507 721 l 383 360 l 629 360 m 785 1243 l 785 1083 l 229 1083 l 229 1243 l 785 1243 z "},"ā":{"ha":942,"x_min":42,"x_max":860,"o":"m 376 785 q 529 744 465 785 q 624 635 593 704 l 624 775 l 860 775 l 860 0 l 624 0 l 624 140 q 529 31 593 71 q 376 -10 465 -10 q 205 38 281 -10 q 85 176 129 86 q 42 388 42 267 q 85 599 42 510 q 205 737 129 689 q 376 785 281 785 m 453 576 q 330 526 376 576 q 283 388 283 476 q 330 249 283 299 q 453 199 376 199 q 576 250 528 199 q 624 388 624 301 q 576 526 624 475 q 453 576 528 576 m 729 1036 l 729 876 l 174 876 l 174 1036 l 729 1036 z "},"Ă":{"ha":1014,"x_min":11,"x_max":1004,"o":"m 690 179 l 322 179 l 261 0 l 11 0 l 371 975 l 644 975 l 1004 0 l 751 0 l 690 179 m 629 360 l 507 721 l 383 360 l 629 360 m 507 1046 q 335 1111 400 1046 q 271 1293 271 1176 l 271 1313 l 385 1313 q 414 1241 385 1265 q 507 1217 443 1217 q 600 1241 571 1217 q 629 1313 629 1265 l 744 1313 l 744 1293 q 679 1111 744 1176 q 507 1046 614 1046 z "},"ă":{"ha":942,"x_min":42,"x_max":860,"o":"m 376 785 q 529 744 465 785 q 624 635 593 704 l 624 775 l 860 775 l 860 0 l 624 0 l 624 140 q 529 31 593 71 q 376 -10 465 -10 q 205 38 281 -10 q 85 176 129 86 q 42 388 42 267 q 85 599 42 510 q 205 737 129 689 q 376 785 281 785 m 453 576 q 330 526 376 576 q 283 388 283 476 q 330 249 283 299 q 453 199 376 199 q 576 250 528 199 q 624 388 624 301 q 576 526 624 475 q 453 576 528 576 m 451 839 q 280 904 344 839 q 215 1086 215 969 l 215 1106 l 329 1106 q 358 1034 329 1058 q 451 1010 388 1010 q 544 1034 515 1010 q 574 1106 574 1058 l 689 1106 l 689 1086 q 624 904 689 969 q 451 839 558 839 z "},"Ą":{"ha":1014,"x_min":11,"x_max":1058,"o":"m 1058 -169 l 1058 -294 l 860 -294 q 721 -256 778 -294 q 664 -135 664 -217 q 751 3 664 -42 l 692 179 l 322 179 l 261 0 l 11 0 l 371 975 l 644 975 l 997 15 l 997 -85 l 883 -85 q 840 -96 856 -85 q 824 -126 824 -107 q 840 -158 824 -147 q 883 -169 856 -169 l 1058 -169 m 631 360 l 507 721 l 383 360 l 631 360 z "},"ą":{"ha":942,"x_min":42,"x_max":921,"o":"m 376 785 q 529 744 465 785 q 624 635 593 704 l 624 775 l 860 775 l 860 0 l 624 0 l 624 140 q 529 31 593 71 q 376 -10 465 -10 q 205 38 281 -10 q 85 176 129 86 q 42 388 42 267 q 85 599 42 510 q 205 737 129 689 q 376 785 281 785 m 453 576 q 330 526 376 576 q 283 388 283 476 q 330 249 283 299 q 453 199 376 199 q 576 250 528 199 q 624 388 624 301 q 576 526 624 475 q 453 576 528 576 m 861 28 l 861 -83 l 747 -83 q 703 -94 719 -83 q 686 -125 686 -106 q 702 -157 686 -146 q 747 -168 718 -168 l 921 -168 l 921 -293 l 722 -293 q 584 -253 642 -293 q 526 -133 526 -214 q 580 -12 526 -53 q 701 28 633 28 l 861 28 z "},"Ć":{"ha":1051,"x_min":53,"x_max":1000,"o":"m 531 992 q 841 893 718 992 q 1000 626 964 794 l 749 626 q 663 733 721 694 q 526 772 606 772 q 358 696 422 772 q 294 492 294 619 q 358 288 294 364 q 526 213 422 213 q 663 251 606 213 q 749 357 721 290 l 1000 357 q 841 91 964 190 q 531 -8 718 -8 q 279 55 388 -8 q 112 232 171 118 q 53 492 53 346 q 112 751 53 638 q 279 928 171 865 q 531 992 388 992 m 725 1181 l 390 1038 l 390 1199 l 725 1360 l 725 1181 z "},"ć":{"ha":853,"x_min":42,"x_max":811,"o":"m 432 785 q 683 702 582 785 q 811 475 785 619 l 560 475 q 514 553 549 525 q 426 581 479 581 q 324 531 364 581 q 283 388 283 482 q 324 244 283 293 q 426 194 364 194 q 514 222 479 194 q 560 300 549 250 l 811 300 q 683 73 785 156 q 432 -10 582 -10 q 230 38 318 -10 q 92 176 142 86 q 42 388 42 267 q 91 599 42 510 q 229 737 140 689 q 432 785 318 785 m 626 974 l 292 831 l 292 992 l 626 1153 l 626 974 z "},"Ċ":{"ha":1051,"x_min":53,"x_max":1000,"o":"m 531 992 q 841 893 718 992 q 1000 626 964 794 l 749 626 q 663 733 721 694 q 526 772 606 772 q 358 696 422 772 q 294 492 294 619 q 358 288 294 364 q 526 213 422 213 q 663 251 606 213 q 749 357 721 290 l 1000 357 q 841 91 964 190 q 531 -8 718 -8 q 279 55 388 -8 q 112 232 171 118 q 53 492 53 346 q 112 751 53 638 q 279 928 171 865 q 531 992 388 992 m 425 1169 q 454 1242 425 1213 q 525 1271 483 1271 q 597 1242 568 1271 q 625 1169 625 1213 q 597 1099 625 1128 q 525 1071 568 1071 q 454 1099 483 1071 q 425 1169 425 1128 z "},"ċ":{"ha":853,"x_min":42,"x_max":811,"o":"m 432 785 q 683 702 582 785 q 811 475 785 619 l 560 475 q 514 553 549 525 q 426 581 479 581 q 324 531 364 581 q 283 388 283 482 q 324 244 283 293 q 426 194 364 194 q 514 222 479 194 q 560 300 549 250 l 811 300 q 683 73 785 156 q 432 -10 582 -10 q 230 38 318 -10 q 92 176 142 86 q 42 388 42 267 q 91 599 42 510 q 229 737 140 689 q 432 785 318 785 m 325 963 q 354 1035 325 1006 q 425 1064 383 1064 q 497 1035 468 1064 q 525 963 525 1006 q 497 892 525 921 q 425 864 468 864 q 354 892 383 864 q 325 963 325 921 z "},"Č":{"ha":1051,"x_min":53,"x_max":1000,"o":"m 531 992 q 841 893 718 992 q 1000 626 964 794 l 749 626 q 663 733 721 694 q 526 772 606 772 q 358 696 422 772 q 294 492 294 619 q 358 288 294 364 q 526 213 422 213 q 663 251 606 213 q 749 357 721 290 l 1000 357 q 841 91 964 190 q 531 -8 718 -8 q 279 55 388 -8 q 112 232 171 118 q 53 492 53 346 q 112 751 53 638 q 279 928 171 865 q 531 992 388 992 m 742 1154 l 526 1038 l 311 1154 l 311 1311 l 526 1192 l 742 1311 l 742 1154 z "},"č":{"ha":853,"x_min":42,"x_max":811,"o":"m 432 785 q 683 702 582 785 q 811 475 785 619 l 560 475 q 514 553 549 525 q 426 581 479 581 q 324 531 364 581 q 283 388 283 482 q 324 244 283 293 q 426 194 364 194 q 514 222 479 194 q 560 300 549 250 l 811 300 q 683 73 785 156 q 432 -10 582 -10 q 230 38 318 -10 q 92 176 142 86 q 42 388 42 267 q 91 599 42 510 q 229 737 140 689 q 432 785 318 785 m 643 947 l 428 831 l 213 947 l 213 1104 l 428 985 l 643 1104 l 643 947 z "},"Ď":{"ha":1018,"x_min":82,"x_max":965,"o":"m 965 493 q 903 237 965 349 q 726 63 842 125 q 453 0 610 0 l 82 0 l 82 982 l 453 982 q 726 921 611 982 q 903 749 842 860 q 965 493 965 638 m 432 213 q 648 286 571 213 q 725 493 725 360 q 648 700 725 626 q 432 774 571 774 l 319 774 l 319 213 l 432 213 m 740 1154 l 525 1038 l 310 1154 l 310 1311 l 525 1192 l 740 1311 l 740 1154 z "},"ď":{"ha":1151,"x_min":42,"x_max":1153,"o":"m 376 785 q 529 744 465 785 q 622 635 593 704 l 622 1028 l 860 1028 l 860 0 l 622 0 l 622 140 q 529 31 593 71 q 376 -10 465 -10 q 205 38 281 -10 q 85 176 129 86 q 42 388 42 267 q 85 599 42 510 q 205 737 129 689 q 376 785 281 785 m 1124 1028 q 1153 864 1153 940 q 1103 710 1153 768 q 957 653 1053 653 l 957 742 q 1031 835 1031 742 l 1031 857 l 942 857 l 942 1028 l 1124 1028 m 453 576 q 330 526 376 576 q 283 388 283 476 q 330 249 283 299 q 453 199 376 199 q 576 250 528 199 q 624 388 624 301 q 576 526 624 475 q 453 576 528 576 z "},"Đ":{"ha":1032,"x_min":4,"x_max":979,"o":"m 467 982 q 740 921 625 982 q 917 749 856 860 q 979 493 979 638 q 917 237 979 349 q 740 63 856 125 q 467 0 624 0 l 96 0 l 96 399 l 4 399 l 4 588 l 96 588 l 96 982 l 467 982 m 446 213 q 662 286 585 213 q 739 493 739 360 q 662 700 739 626 q 446 774 585 774 l 333 774 l 333 588 l 550 588 l 550 399 l 333 399 l 333 213 l 446 213 z "},"đ":{"ha":964,"x_min":42,"x_max":950,"o":"m 950 843 l 860 843 l 860 0 l 622 0 l 622 140 q 529 31 593 71 q 376 -10 465 -10 q 205 38 281 -10 q 85 176 129 86 q 42 388 42 267 q 85 599 42 510 q 205 737 129 689 q 376 785 281 785 q 529 744 465 785 q 622 635 593 704 l 622 843 l 489 843 l 489 949 l 622 949 l 622 1028 l 860 1028 l 860 949 l 950 949 l 950 843 m 453 199 q 576 250 528 199 q 624 388 624 301 q 576 526 624 475 q 453 576 528 576 q 330 526 376 576 q 283 388 283 476 q 330 249 283 299 q 453 199 376 199 z "},"Ē":{"ha":746,"x_min":82,"x_max":693,"o":"m 319 793 l 319 588 l 651 588 l 651 408 l 319 408 l 319 190 l 693 190 l 693 0 l 82 0 l 82 982 l 693 982 l 693 793 l 319 793 m 667 1243 l 667 1083 l 111 1083 l 111 1243 l 667 1243 z "},"ē":{"ha":860,"x_min":42,"x_max":818,"o":"m 818 408 q 811 344 818 379 l 274 344 q 318 219 278 257 q 421 181 358 181 q 508 207 474 181 q 554 275 543 233 l 806 275 q 739 128 790 193 q 608 27 688 64 q 432 -10 529 -10 q 230 38 318 -10 q 92 176 142 86 q 42 388 42 267 q 91 599 42 510 q 229 737 140 689 q 432 785 318 785 q 635 738 547 785 q 770 605 722 690 q 818 408 818 519 m 578 444 q 537 559 579 521 q 432 597 494 597 q 324 558 367 597 q 275 444 281 519 l 578 444 m 708 1036 l 708 876 l 153 876 l 153 1036 l 708 1036 z "},"Ĕ":{"ha":746,"x_min":82,"x_max":693,"o":"m 319 793 l 319 588 l 651 588 l 651 408 l 319 408 l 319 190 l 693 190 l 693 0 l 82 0 l 82 982 l 693 982 l 693 793 l 319 793 m 388 1046 q 216 1111 281 1046 q 151 1293 151 1176 l 151 1313 l 265 1313 q 294 1241 265 1265 q 388 1217 324 1217 q 481 1241 451 1217 q 510 1313 510 1265 l 625 1313 l 625 1293 q 560 1111 625 1176 q 388 1046 494 1046 z "},"ĕ":{"ha":860,"x_min":42,"x_max":818,"o":"m 818 408 q 811 344 818 379 l 274 344 q 318 219 278 257 q 421 181 358 181 q 508 207 474 181 q 554 275 543 233 l 806 275 q 739 128 790 193 q 608 27 688 64 q 432 -10 529 -10 q 230 38 318 -10 q 92 176 142 86 q 42 388 42 267 q 91 599 42 510 q 229 737 140 689 q 432 785 318 785 q 635 738 547 785 q 770 605 722 690 q 818 408 818 519 m 578 444 q 537 559 579 521 q 432 597 494 597 q 324 558 367 597 q 275 444 281 519 l 578 444 m 431 839 q 259 904 324 839 q 194 1086 194 969 l 194 1106 l 308 1106 q 338 1034 308 1058 q 431 1010 367 1010 q 524 1034 494 1010 q 553 1106 553 1058 l 668 1106 l 668 1086 q 603 904 668 969 q 431 839 538 839 z "},"Ė":{"ha":746,"x_min":82,"x_max":693,"o":"m 319 793 l 319 588 l 651 588 l 651 408 l 319 408 l 319 190 l 693 190 l 693 0 l 82 0 l 82 982 l 693 982 l 693 793 l 319 793 m 288 1169 q 317 1242 288 1213 q 388 1271 346 1271 q 459 1242 431 1271 q 488 1169 488 1213 q 459 1099 488 1128 q 388 1071 431 1071 q 317 1099 346 1071 q 288 1169 288 1128 z "},"ė":{"ha":860,"x_min":42,"x_max":818,"o":"m 818 408 q 811 344 818 379 l 274 344 q 318 219 278 257 q 421 181 358 181 q 508 207 474 181 q 554 275 543 233 l 806 275 q 739 128 790 193 q 608 27 688 64 q 432 -10 529 -10 q 230 38 318 -10 q 92 176 142 86 q 42 388 42 267 q 91 599 42 510 q 229 737 140 689 q 432 785 318 785 q 635 738 547 785 q 770 605 722 690 q 818 408 818 519 m 578 444 q 537 559 579 521 q 432 597 494 597 q 324 558 367 597 q 275 444 281 519 l 578 444 m 329 963 q 358 1035 329 1006 q 429 1064 388 1064 q 501 1035 472 1064 q 529 963 529 1006 q 501 892 529 921 q 429 864 472 864 q 358 892 388 864 q 329 963 329 921 z "},"Ę":{"ha":746,"x_min":82,"x_max":707,"o":"m 319 793 l 319 588 l 651 588 l 651 408 l 319 408 l 319 190 l 693 190 l 693 0 l 82 0 l 82 982 l 693 982 l 693 793 l 319 793 m 647 106 l 647 -6 l 533 -6 q 489 -17 506 -6 q 472 -47 472 -28 q 488 -79 472 -68 q 533 -90 504 -90 l 707 -90 l 707 -215 l 508 -215 q 370 -176 428 -215 q 313 -56 313 -136 q 366 65 313 25 q 488 106 419 106 l 647 106 z "},"ę":{"ha":860,"x_min":42,"x_max":818,"o":"m 818 408 q 811 344 818 379 l 274 344 q 320 220 278 260 q 422 181 363 181 q 508 207 474 181 q 554 275 543 233 l 806 275 q 712 99 786 172 q 528 1 638 25 q 497 -29 497 -6 q 515 -60 497 -49 q 568 -71 533 -71 l 722 -71 l 722 -196 l 533 -196 q 395 -156 453 -196 q 338 -36 338 -117 l 338 1 q 122 129 203 28 q 42 388 42 231 q 91 599 42 510 q 229 737 140 689 q 432 785 318 785 q 635 738 547 785 q 770 605 722 690 q 818 408 818 519 m 578 444 q 537 559 579 521 q 432 597 494 597 q 324 558 367 597 q 275 444 281 519 l 578 444 z "},"Ě":{"ha":746,"x_min":82,"x_max":693,"o":"m 319 793 l 319 588 l 651 588 l 651 408 l 319 408 l 319 190 l 693 190 l 693 0 l 82 0 l 82 982 l 693 982 l 693 793 l 319 793 m 604 1154 l 389 1038 l 174 1154 l 174 1311 l 389 1192 l 604 1311 l 604 1154 z "},"ě":{"ha":860,"x_min":42,"x_max":818,"o":"m 818 408 q 811 344 818 379 l 274 344 q 318 219 278 257 q 421 181 358 181 q 508 207 474 181 q 554 275 543 233 l 806 275 q 739 128 790 193 q 608 27 688 64 q 432 -10 529 -10 q 230 38 318 -10 q 92 176 142 86 q 42 388 42 267 q 91 599 42 510 q 229 737 140 689 q 432 785 318 785 q 635 738 547 785 q 770 605 722 690 q 818 408 818 519 m 578 444 q 537 559 579 521 q 432 597 494 597 q 324 558 367 597 q 275 444 281 519 l 578 444 m 647 947 l 432 831 l 217 947 l 217 1104 l 432 985 l 647 1104 l 647 947 z "},"Ğ":{"ha":1058,"x_min":53,"x_max":1007,"o":"m 542 992 q 846 901 726 992 q 994 657 965 811 l 743 657 q 667 741 718 710 q 543 772 615 772 q 363 697 431 772 q 294 492 294 621 q 366 276 294 351 q 569 201 438 201 q 718 248 654 201 q 808 381 782 294 l 508 381 l 508 551 l 1007 551 l 1007 317 q 918 157 979 231 q 762 38 857 83 q 544 -8 667 -8 q 285 55 396 -8 q 113 232 174 118 q 53 492 53 346 q 113 751 53 638 q 284 928 174 865 q 542 992 394 992 m 529 1046 q 358 1111 422 1046 q 293 1293 293 1176 l 293 1313 l 407 1313 q 436 1241 407 1265 q 529 1217 465 1217 q 622 1241 593 1217 q 651 1313 651 1265 l 767 1313 l 767 1293 q 701 1111 767 1176 q 529 1046 636 1046 z "},"ğ":{"ha":942,"x_min":42,"x_max":860,"o":"m 376 785 q 529 744 465 785 q 624 635 593 704 l 624 775 l 860 775 l 860 4 q 818 -191 860 -104 q 690 -329 776 -278 q 476 -381 604 -381 q 197 -298 301 -381 q 71 -74 92 -215 l 306 -74 q 356 -147 317 -121 q 460 -174 396 -174 q 578 -131 533 -174 q 624 4 624 -89 l 624 140 q 529 31 593 71 q 376 -10 465 -10 q 205 38 281 -10 q 85 176 129 86 q 42 388 42 267 q 85 599 42 510 q 205 737 129 689 q 376 785 281 785 m 453 576 q 330 526 376 576 q 283 388 283 476 q 330 249 283 299 q 453 199 376 199 q 576 250 528 199 q 624 388 624 301 q 576 526 624 475 q 453 576 528 576 m 451 839 q 280 904 344 839 q 215 1086 215 969 l 215 1106 l 329 1106 q 358 1034 329 1058 q 451 1010 388 1010 q 544 1034 515 1010 q 574 1106 574 1058 l 689 1106 l 689 1086 q 624 904 689 969 q 451 839 558 839 z "},"Ġ":{"ha":1058,"x_min":53,"x_max":1007,"o":"m 542 992 q 846 901 726 992 q 994 657 965 811 l 743 657 q 667 741 718 710 q 543 772 615 772 q 363 697 431 772 q 294 492 294 621 q 366 276 294 351 q 569 201 438 201 q 718 248 654 201 q 808 381 782 294 l 508 381 l 508 551 l 1007 551 l 1007 317 q 918 157 979 231 q 762 38 857 83 q 544 -8 667 -8 q 285 55 396 -8 q 113 232 174 118 q 53 492 53 346 q 113 751 53 638 q 284 928 174 865 q 542 992 394 992 m 429 1169 q 458 1242 429 1213 q 529 1271 488 1271 q 601 1242 572 1271 q 629 1169 629 1213 q 601 1099 629 1128 q 529 1071 572 1071 q 458 1099 488 1071 q 429 1169 429 1128 z "},"ġ":{"ha":942,"x_min":42,"x_max":860,"o":"m 376 785 q 529 744 465 785 q 624 635 593 704 l 624 775 l 860 775 l 860 4 q 818 -191 860 -104 q 690 -329 776 -278 q 476 -381 604 -381 q 197 -298 301 -381 q 71 -74 92 -215 l 306 -74 q 356 -147 317 -121 q 460 -174 396 -174 q 578 -131 533 -174 q 624 4 624 -89 l 624 140 q 529 31 593 71 q 376 -10 465 -10 q 205 38 281 -10 q 85 176 129 86 q 42 388 42 267 q 85 599 42 510 q 205 737 129 689 q 376 785 281 785 m 453 576 q 330 526 376 576 q 283 388 283 476 q 330 249 283 299 q 453 199 376 199 q 576 250 528 199 q 624 388 624 301 q 576 526 624 475 q 453 576 528 576 m 350 963 q 379 1035 350 1006 q 450 1064 408 1064 q 522 1035 493 1064 q 550 963 550 1006 q 522 892 550 921 q 450 864 493 864 q 379 892 408 864 q 350 963 350 921 z "},"Ģ":{"ha":1063,"x_min":53,"x_max":1007,"o":"m 542 992 q 846 901 726 992 q 994 657 965 811 l 743 657 q 667 741 718 710 q 543 772 615 772 q 363 697 431 772 q 294 492 294 621 q 366 276 294 351 q 569 201 438 201 q 718 248 654 201 q 808 381 782 294 l 508 381 l 508 551 l 1007 551 l 1007 317 q 918 157 979 231 q 762 38 857 83 q 544 -8 667 -8 q 285 55 396 -8 q 113 232 174 118 q 53 492 53 346 q 113 751 53 638 q 284 928 174 865 q 542 992 394 992 m 622 -57 q 650 -208 650 -137 q 600 -364 650 -306 q 456 -422 550 -422 l 456 -335 q 528 -237 528 -335 l 528 -224 l 442 -224 l 442 -57 l 622 -57 z "},"ģ":{"ha":942,"x_min":42,"x_max":860,"o":"m 396 831 q 368 994 368 914 q 417 1148 368 1090 q 563 1206 467 1206 l 563 1117 q 490 1024 490 1117 l 490 1001 l 578 1001 l 578 831 l 396 831 m 376 785 q 529 744 465 785 q 624 635 593 704 l 624 775 l 860 775 l 860 4 q 818 -191 860 -104 q 690 -329 776 -278 q 476 -381 604 -381 q 197 -298 301 -381 q 71 -74 92 -215 l 306 -74 q 356 -147 317 -121 q 460 -174 396 -174 q 578 -131 533 -174 q 624 4 624 -89 l 624 140 q 529 31 593 71 q 376 -10 465 -10 q 205 38 281 -10 q 85 176 129 86 q 42 388 42 267 q 85 599 42 510 q 205 737 129 689 q 376 785 281 785 m 453 576 q 330 526 376 576 q 283 388 283 476 q 330 249 283 299 q 453 199 376 199 q 576 250 528 199 q 624 388 624 301 q 576 526 624 475 q 453 576 528 576 z "},"Ĩ":{"ha":401,"x_min":-78,"x_max":479,"o":"m 319 982 l 319 0 l 82 0 l 82 982 l 319 982 m 111 1261 q 167 1251 142 1261 q 222 1224 192 1242 q 267 1202 251 1208 q 299 1196 282 1196 q 360 1261 350 1196 l 479 1261 q 290 1056 446 1056 q 233 1065 258 1056 q 175 1093 207 1075 q 135 1113 150 1107 q 103 1119 119 1119 q 42 1054 51 1119 l -78 1054 q 111 1261 -43 1261 z "},"ĩ":{"ha":454,"x_min":-51,"x_max":506,"o":"m 346 775 l 346 0 l 108 0 l 108 775 l 346 775 m 138 1054 q 193 1044 168 1054 q 249 1017 218 1035 q 293 995 278 1001 q 325 989 308 989 q 386 1054 376 989 l 506 1054 q 317 849 472 849 q 259 858 285 849 q 201 886 233 868 q 161 906 176 900 q 129 913 146 913 q 68 847 78 913 l -51 847 q 138 1054 -17 1054 z "},"Ī":{"ha":401,"x_min":-76,"x_max":479,"o":"m 319 982 l 319 0 l 82 0 l 82 982 l 319 982 m 479 1243 l 479 1083 l -76 1083 l -76 1243 l 479 1243 z "},"ī":{"ha":454,"x_min":-50,"x_max":506,"o":"m 346 775 l 346 0 l 108 0 l 108 775 l 346 775 m 506 1036 l 506 876 l -50 876 l -50 1036 l 506 1036 z "},"Ĭ":{"ha":401,"x_min":-36,"x_max":438,"o":"m 319 982 l 319 0 l 82 0 l 82 982 l 319 982 m 200 1046 q 28 1111 93 1046 q -36 1293 -36 1176 l -36 1313 l 78 1313 q 107 1241 78 1265 q 200 1217 136 1217 q 293 1241 264 1217 q 322 1313 322 1265 l 438 1313 l 438 1293 q 372 1111 438 1176 q 200 1046 307 1046 z "},"ĭ":{"ha":454,"x_min":-10,"x_max":464,"o":"m 346 775 l 346 0 l 108 0 l 108 775 l 346 775 m 226 839 q 55 904 119 839 q -10 1086 -10 969 l -10 1106 l 104 1106 q 133 1034 104 1058 q 226 1010 163 1010 q 319 1034 290 1010 q 349 1106 349 1058 l 464 1106 l 464 1086 q 399 904 464 969 q 226 839 333 839 z "},"Į":{"ha":401,"x_min":-14,"x_max":381,"o":"m 319 982 l 319 0 l 82 0 l 82 982 l 319 982 m 321 28 l 321 -83 l 207 -83 q 163 -94 179 -83 q 146 -125 146 -106 q 162 -157 146 -146 q 207 -168 178 -168 l 381 -168 l 381 -293 l 182 -293 q 44 -253 101 -293 q -14 -133 -14 -214 q 40 -12 -14 -53 q 161 28 93 28 l 321 28 z "},"į":{"ha":401,"x_min":-14,"x_max":381,"o":"m 60 993 q 99 1083 60 1047 q 201 1118 138 1118 q 304 1083 265 1118 q 343 993 343 1047 q 304 905 343 940 q 201 869 265 869 q 99 905 138 869 q 60 993 60 940 m 319 775 l 319 0 l 82 0 l 82 775 l 319 775 m 321 28 l 321 -83 l 207 -83 q 163 -94 179 -83 q 146 -125 146 -106 q 162 -157 146 -146 q 207 -168 178 -168 l 381 -168 l 381 -293 l 182 -293 q 44 -253 101 -293 q -14 -133 -14 -214 q 40 -12 -14 -53 q 161 28 93 28 l 321 28 z "},"İ":{"ha":401,"x_min":82,"x_max":319,"o":"m 319 982 l 319 0 l 82 0 l 82 982 l 319 982 m 100 1169 q 129 1242 100 1213 q 200 1271 158 1271 q 272 1242 243 1271 q 300 1169 300 1213 q 272 1099 300 1128 q 200 1071 243 1071 q 129 1099 158 1071 q 100 1169 100 1128 z "},"ı":{"ha":454,"x_min":108,"x_max":346,"o":"m 346 775 l 346 0 l 108 0 l 108 775 l 346 775 z "},"Ķ":{"ha":1003,"x_min":82,"x_max":940,"o":"m 544 501 l 940 0 l 653 0 l 319 440 l 319 0 l 82 0 l 82 982 l 319 982 l 319 550 l 656 982 l 940 982 l 544 501 m 588 -57 q 615 -208 615 -132 q 565 -364 615 -306 q 421 -422 515 -422 l 421 -335 q 493 -237 493 -335 l 493 -224 l 408 -224 l 408 -57 l 588 -57 z "},"ķ":{"ha":842,"x_min":82,"x_max":838,"o":"m 838 0 l 551 0 l 319 329 l 319 0 l 82 0 l 82 1028 l 319 1028 l 319 464 l 551 775 l 831 775 l 518 388 l 838 0 m 515 -57 q 542 -208 542 -135 q 492 -364 542 -306 q 349 -422 443 -422 l 349 -335 q 402 -310 383 -335 q 421 -237 421 -286 l 421 -224 l 335 -224 l 335 -57 l 515 -57 z "},"Ĺ":{"ha":664,"x_min":82,"x_max":636,"o":"m 319 182 l 636 182 l 636 0 l 82 0 l 82 982 l 319 982 l 319 182 m 510 1181 l 175 1038 l 175 1199 l 510 1360 l 510 1181 z "},"ĺ":{"ha":401,"x_min":82,"x_max":417,"o":"m 319 1028 l 319 0 l 82 0 l 82 1028 l 319 1028 m 417 1200 l 82 1057 l 82 1218 l 417 1379 l 417 1200 z "},"Ļ":{"ha":669,"x_min":82,"x_max":636,"o":"m 319 182 l 636 182 l 636 0 l 82 0 l 82 982 l 319 982 l 319 182 m 471 -57 q 499 -208 499 -132 q 449 -364 499 -306 q 304 -422 400 -422 l 304 -335 q 376 -237 376 -335 l 376 -224 l 290 -224 l 290 -57 l 471 -57 z "},"ļ":{"ha":401,"x_min":82,"x_max":321,"o":"m 319 1028 l 319 0 l 82 0 l 82 1028 l 319 1028 m 294 -57 q 321 -208 321 -129 q 272 -364 321 -306 q 128 -422 222 -422 l 128 -335 q 181 -310 163 -335 q 200 -237 200 -286 l 200 -224 l 114 -224 l 114 -57 l 294 -57 z "},"Ľ":{"ha":739,"x_min":82,"x_max":675,"o":"m 319 182 l 636 182 l 636 0 l 82 0 l 82 982 l 319 982 l 319 182 m 647 982 q 675 818 675 899 q 626 665 675 722 q 481 607 576 607 l 481 696 q 553 789 553 696 l 553 811 l 465 811 l 465 982 l 647 982 z "},"ľ":{"ha":604,"x_min":82,"x_max":604,"o":"m 319 1028 l 319 0 l 82 0 l 82 1028 l 319 1028 m 576 1028 q 604 864 604 950 q 555 710 604 768 q 410 653 506 653 l 410 742 q 483 835 483 742 l 483 857 l 394 857 l 394 1028 l 576 1028 z "},"Ŀ":{"ha":664,"x_min":82,"x_max":636,"o":"m 319 182 l 636 182 l 636 0 l 82 0 l 82 982 l 319 982 l 319 182 m 436 490 q 465 563 436 533 q 536 592 494 592 q 608 563 579 592 q 636 490 636 533 q 608 420 636 449 q 536 392 579 392 q 465 420 494 392 q 436 490 436 449 z "},"ŀ":{"ha":476,"x_min":82,"x_max":539,"o":"m 319 1028 l 319 0 l 82 0 l 82 1028 l 319 1028 m 339 513 q 368 585 339 556 q 439 614 397 614 q 510 585 482 614 q 539 513 539 556 q 510 442 539 471 q 439 414 482 414 q 368 442 397 414 q 339 513 339 471 z "},"Ł":{"ha":688,"x_min":14,"x_max":660,"o":"m 660 182 l 660 0 l 104 0 l 104 367 l 14 339 l 14 571 l 104 600 l 104 982 l 343 982 l 343 675 l 476 718 l 476 485 l 343 443 l 343 182 l 660 182 z "},"ł":{"ha":461,"x_min":14,"x_max":447,"o":"m 447 515 l 350 485 l 350 0 l 111 0 l 111 407 l 14 376 l 14 608 l 111 639 l 111 1028 l 350 1028 l 350 717 l 447 747 l 447 515 z "},"Ń":{"ha":1036,"x_min":82,"x_max":954,"o":"m 954 0 l 717 0 l 319 603 l 319 0 l 82 0 l 82 982 l 319 982 l 717 374 l 717 982 l 954 982 l 954 0 m 718 1181 l 383 1038 l 383 1199 l 718 1360 l 718 1181 z "},"ń":{"ha":939,"x_min":82,"x_max":864,"o":"m 574 783 q 785 694 707 783 q 864 450 864 606 l 864 0 l 626 0 l 626 422 q 585 544 626 500 q 476 588 544 588 q 362 542 404 588 q 319 411 319 496 l 319 0 l 82 0 l 82 775 l 319 775 l 319 633 q 419 743 353 703 q 574 783 485 783 m 672 974 l 338 831 l 338 992 l 672 1153 l 672 974 z "},"Ņ":{"ha":1089,"x_min":82,"x_max":954,"o":"m 954 0 l 717 0 l 319 603 l 319 0 l 82 0 l 82 982 l 319 982 l 717 374 l 717 982 l 954 982 l 954 0 m 632 -57 q 660 -208 660 -137 q 610 -364 660 -306 q 465 -422 560 -422 l 465 -335 q 538 -237 538 -335 l 538 -224 l 451 -224 l 451 -57 l 632 -57 z "},"ņ":{"ha":939,"x_min":82,"x_max":864,"o":"m 574 783 q 785 694 707 783 q 864 450 864 606 l 864 0 l 626 0 l 626 422 q 585 544 626 500 q 476 588 544 588 q 362 542 404 588 q 319 411 319 496 l 319 0 l 82 0 l 82 775 l 319 775 l 319 633 q 419 743 353 703 q 574 783 485 783 m 585 -57 q 613 -208 613 -132 q 563 -364 613 -306 q 418 -422 513 -422 l 418 -335 q 490 -237 490 -335 l 490 -224 l 406 -224 l 406 -57 l 585 -57 z "},"Ň":{"ha":1036,"x_min":82,"x_max":954,"o":"m 954 0 l 717 0 l 319 603 l 319 0 l 82 0 l 82 982 l 319 982 l 717 374 l 717 982 l 954 982 l 954 0 m 735 1154 l 519 1038 l 304 1154 l 304 1311 l 519 1192 l 735 1311 l 735 1154 z "},"ň":{"ha":939,"x_min":82,"x_max":864,"o":"m 574 783 q 785 694 707 783 q 864 450 864 606 l 864 0 l 626 0 l 626 422 q 585 544 626 500 q 476 588 544 588 q 362 542 404 588 q 319 411 319 496 l 319 0 l 82 0 l 82 775 l 319 775 l 319 633 q 419 743 353 703 q 574 783 485 783 m 689 947 l 474 831 l 258 947 l 258 1104 l 474 985 l 689 1104 l 689 947 z "},"Ō":{"ha":1096,"x_min":53,"x_max":1044,"o":"m 549 997 q 801 933 688 997 q 979 753 914 868 q 1044 494 1044 639 q 978 235 1044 350 q 799 55 913 119 q 549 -10 686 -10 q 298 55 411 -10 q 119 235 185 119 q 53 494 53 350 q 119 753 53 639 q 298 933 185 868 q 549 997 411 997 m 549 776 q 363 701 432 776 q 294 494 294 625 q 363 289 294 365 q 549 213 432 213 q 733 289 664 213 q 803 494 803 365 q 734 700 803 624 q 549 776 665 776 m 826 1243 l 826 1083 l 271 1083 l 271 1243 l 826 1243 z "},"ō":{"ha":888,"x_min":42,"x_max":846,"o":"m 444 785 q 651 737 560 785 q 794 599 742 689 q 846 388 846 508 q 794 176 846 267 q 651 38 742 86 q 444 -10 560 -10 q 238 38 329 -10 q 94 176 146 86 q 42 388 42 267 q 94 599 42 508 q 238 737 146 689 q 444 785 329 785 m 444 579 q 330 530 376 579 q 283 388 283 481 q 330 246 283 294 q 444 197 376 197 q 558 246 513 197 q 604 388 604 294 q 558 530 604 481 q 444 579 513 579 m 722 1036 l 722 876 l 167 876 l 167 1036 l 722 1036 z "},"Ŏ":{"ha":1096,"x_min":53,"x_max":1044,"o":"m 549 997 q 801 933 688 997 q 979 753 914 868 q 1044 494 1044 639 q 978 235 1044 350 q 799 55 913 119 q 549 -10 686 -10 q 298 55 411 -10 q 119 235 185 119 q 53 494 53 350 q 119 753 53 639 q 298 933 185 868 q 549 997 411 997 m 549 776 q 363 701 432 776 q 294 494 294 625 q 363 289 294 365 q 549 213 432 213 q 733 289 664 213 q 803 494 803 365 q 734 700 803 624 q 549 776 665 776 m 549 1046 q 377 1111 442 1046 q 313 1293 313 1176 l 313 1313 l 426 1313 q 456 1241 426 1265 q 549 1217 485 1217 q 642 1241 613 1217 q 671 1313 671 1265 l 786 1313 l 786 1293 q 721 1111 786 1176 q 549 1046 656 1046 z "},"ŏ":{"ha":888,"x_min":42,"x_max":846,"o":"m 444 785 q 651 737 560 785 q 794 599 742 689 q 846 388 846 508 q 794 176 846 267 q 651 38 742 86 q 444 -10 560 -10 q 238 38 329 -10 q 94 176 146 86 q 42 388 42 267 q 94 599 42 508 q 238 737 146 689 q 444 785 329 785 m 444 579 q 330 530 376 579 q 283 388 283 481 q 330 246 283 294 q 444 197 376 197 q 558 246 513 197 q 604 388 604 294 q 558 530 604 481 q 444 579 513 579 m 443 839 q 272 904 336 839 q 207 1086 207 969 l 207 1106 l 321 1106 q 350 1034 321 1058 q 443 1010 379 1010 q 536 1034 507 1010 q 565 1106 565 1058 l 681 1106 l 681 1086 q 615 904 681 969 q 443 839 550 839 z "},"Ő":{"ha":1096,"x_min":53,"x_max":1044,"o":"m 549 997 q 801 933 688 997 q 979 753 914 868 q 1044 494 1044 639 q 978 235 1044 350 q 799 55 913 119 q 549 -10 686 -10 q 298 55 411 -10 q 119 235 185 119 q 53 494 53 350 q 119 753 53 639 q 298 933 185 868 q 549 997 411 997 m 549 776 q 363 701 432 776 q 294 494 294 625 q 363 289 294 365 q 549 213 432 213 q 733 289 664 213 q 803 494 803 365 q 734 700 803 624 q 549 776 665 776 m 474 1042 l 329 1042 l 433 1332 l 615 1332 l 474 1042 m 742 1042 l 597 1042 l 729 1332 l 911 1332 l 742 1042 z "},"ő":{"ha":888,"x_min":42,"x_max":846,"o":"m 444 785 q 651 737 560 785 q 794 599 742 689 q 846 388 846 508 q 794 176 846 267 q 651 38 742 86 q 444 -10 560 -10 q 238 38 329 -10 q 94 176 146 86 q 42 388 42 267 q 94 599 42 508 q 238 737 146 689 q 444 785 329 785 m 444 579 q 330 530 376 579 q 283 388 283 481 q 330 246 283 294 q 444 197 376 197 q 558 246 513 197 q 604 388 604 294 q 558 530 604 481 q 444 579 513 579 m 381 835 l 236 835 l 340 1125 l 522 1125 l 381 835 m 649 835 l 504 835 l 636 1125 l 818 1125 l 649 835 z "},"Œ":{"ha":1476,"x_min":53,"x_max":1424,"o":"m 1051 588 l 1382 588 l 1382 408 l 1051 408 l 1051 190 l 1424 190 l 1424 0 l 813 0 l 813 122 q 696 23 771 58 q 532 -15 621 -12 q 285 49 394 -15 q 114 228 175 114 q 53 490 53 343 q 114 753 53 638 q 285 933 175 868 q 532 997 394 997 q 694 960 619 997 q 813 860 769 924 l 813 982 l 1424 982 l 1424 793 l 1051 793 l 1051 588 m 549 204 q 733 282 664 204 q 803 490 803 360 q 734 699 803 622 q 549 776 665 776 q 363 699 432 776 q 294 490 294 622 q 363 281 294 358 q 549 204 432 204 z "},"œ":{"ha":1458,"x_min":42,"x_max":1390,"o":"m 1390 408 q 1383 344 1390 379 l 846 344 q 890 219 850 257 q 993 181 931 181 q 1079 207 1044 181 q 1126 275 1114 233 l 1378 275 q 1310 128 1363 193 q 1179 27 1258 64 q 1004 -10 1100 -10 q 844 23 917 -10 q 726 115 772 56 q 606 23 679 56 q 444 -10 532 -10 q 238 38 329 -10 q 94 176 146 86 q 42 388 42 267 q 94 599 42 508 q 238 737 146 689 q 444 785 329 785 q 606 752 533 785 q 726 660 679 719 q 844 753 772 721 q 1004 785 915 785 q 1207 738 1119 785 q 1342 605 1294 690 q 1390 408 1390 519 m 1150 444 q 1109 559 1151 521 q 1004 597 1067 597 q 896 558 939 597 q 847 444 853 519 l 1150 444 m 444 197 q 558 246 513 197 q 604 388 604 294 q 558 530 604 481 q 444 579 513 579 q 330 530 376 579 q 283 388 283 481 q 330 246 283 294 q 444 197 376 197 z "},"Ŕ":{"ha":883,"x_min":82,"x_max":849,"o":"m 586 0 l 374 371 l 319 371 l 319 0 l 82 0 l 82 982 l 488 982 q 685 942 604 982 q 806 831 765 901 q 846 671 846 761 q 787 489 846 564 q 615 386 728 414 l 849 0 l 586 0 m 319 533 l 467 533 q 571 565 538 533 q 604 657 604 596 q 570 749 604 715 q 467 782 536 782 l 319 782 l 319 533 m 665 1181 l 331 1038 l 331 1199 l 665 1360 l 665 1181 z "},"ŕ":{"ha":604,"x_min":82,"x_max":586,"o":"m 319 629 q 434 742 364 700 q 586 783 504 783 l 586 529 l 518 529 q 372 489 424 529 q 319 353 319 449 l 319 0 l 82 0 l 82 775 l 319 775 l 319 629 m 533 974 l 199 831 l 199 992 l 533 1153 l 533 974 z "},"Ŗ":{"ha":917,"x_min":82,"x_max":849,"o":"m 849 0 l 586 0 l 374 371 l 319 371 l 319 0 l 82 0 l 82 982 l 488 982 q 685 942 604 982 q 806 831 765 901 q 846 671 846 761 q 787 489 846 564 q 615 386 728 414 l 849 0 m 319 533 l 467 533 q 571 565 538 533 q 604 657 604 596 q 570 749 604 715 q 467 782 536 782 l 319 782 l 319 533 m 544 -57 q 572 -208 572 -137 q 522 -364 572 -306 q 378 -422 472 -422 l 378 -335 q 450 -237 450 -335 l 450 -224 l 364 -224 l 364 -57 l 544 -57 z "},"ŗ":{"ha":604,"x_min":82,"x_max":586,"o":"m 319 629 q 434 742 364 700 q 586 783 504 783 l 586 529 l 518 529 q 372 489 424 529 q 319 353 319 449 l 319 0 l 82 0 l 82 775 l 319 775 l 319 629 m 288 -57 q 314 -208 314 -135 q 265 -364 314 -306 q 121 -422 215 -422 l 121 -335 q 174 -310 156 -335 q 193 -237 193 -286 l 193 -224 l 107 -224 l 107 -57 l 288 -57 z "},"Ř":{"ha":883,"x_min":82,"x_max":849,"o":"m 586 0 l 374 371 l 319 371 l 319 0 l 82 0 l 82 982 l 488 982 q 685 942 604 982 q 806 831 765 901 q 846 671 846 761 q 787 489 846 564 q 615 386 728 414 l 849 0 l 586 0 m 319 533 l 467 533 q 571 565 538 533 q 604 657 604 596 q 570 749 604 715 q 467 782 536 782 l 319 782 l 319 533 m 682 1154 l 467 1038 l 251 1154 l 251 1311 l 467 1192 l 682 1311 l 682 1154 z "},"ř":{"ha":604,"x_min":82,"x_max":586,"o":"m 319 629 q 434 742 364 700 q 586 783 504 783 l 586 529 l 518 529 q 372 489 424 529 q 319 353 319 449 l 319 0 l 82 0 l 82 775 l 319 775 l 319 629 m 550 947 l 335 831 l 119 947 l 119 1104 l 335 985 l 550 1104 l 550 947 z "},"Ś":{"ha":838,"x_min":53,"x_max":788,"o":"m 788 276 q 748 133 788 199 q 631 29 708 68 q 444 -10 554 -10 q 172 71 279 -10 q 56 296 65 151 l 308 296 q 348 208 314 240 q 435 176 382 176 q 507 201 481 176 q 533 268 533 226 q 509 331 533 306 q 449 372 485 356 q 349 410 413 388 q 197 472 256 442 q 95 560 138 501 q 53 714 53 619 q 97 865 53 801 q 220 963 142 929 q 400 997 299 997 q 660 919 564 997 q 769 706 757 842 l 513 706 q 477 783 506 754 q 400 811 449 811 q 333 789 358 811 q 307 724 307 767 q 330 665 307 689 q 388 625 353 640 q 488 586 422 610 q 642 523 582 554 q 744 432 701 492 q 788 276 788 372 m 619 1181 l 285 1038 l 285 1199 l 619 1360 l 619 1181 z "},"ś":{"ha":771,"x_min":53,"x_max":721,"o":"m 364 785 q 599 711 511 785 q 710 517 688 638 l 488 517 q 444 591 478 564 q 358 618 410 618 q 297 601 318 618 q 276 551 276 583 q 315 497 276 515 q 435 461 353 479 q 581 419 524 440 q 679 349 638 397 q 721 218 721 300 q 685 100 721 151 q 581 19 649 49 q 419 -10 513 -10 q 168 60 263 -10 q 53 258 74 129 l 282 258 q 324 182 288 208 q 419 156 361 156 q 481 174 460 156 q 501 224 501 193 q 463 281 501 264 q 339 318 425 299 q 197 357 253 336 q 101 424 142 378 q 61 551 61 471 q 140 720 61 656 q 364 785 219 785 m 588 974 l 253 831 l 253 992 l 588 1153 l 588 974 z "},"Ş":{"ha":838,"x_min":53,"x_max":788,"o":"m 788 276 q 748 133 788 199 q 631 29 708 68 q 444 -10 554 -10 q 172 71 279 -10 q 56 296 65 151 l 308 296 q 348 208 314 240 q 435 176 382 176 q 507 201 481 176 q 533 268 533 226 q 509 331 533 306 q 449 372 485 356 q 349 410 413 388 q 197 472 256 442 q 95 560 138 501 q 53 714 53 619 q 97 865 53 801 q 220 963 142 929 q 400 997 299 997 q 660 919 564 997 q 769 706 757 842 l 513 706 q 477 783 506 754 q 400 811 449 811 q 333 789 358 811 q 307 724 307 767 q 330 665 307 689 q 388 625 353 640 q 488 586 422 610 q 642 523 582 554 q 744 432 701 492 q 788 276 788 372 m 506 -60 q 630 -95 575 -57 q 685 -214 685 -133 q 628 -333 685 -294 q 492 -371 572 -371 l 290 -371 l 290 -246 l 467 -246 q 525 -207 525 -246 q 510 -179 525 -189 q 467 -169 496 -169 l 365 -169 l 365 10 l 506 10 l 506 -60 z "},"ş":{"ha":771,"x_min":53,"x_max":721,"o":"m 364 785 q 599 711 511 785 q 710 517 688 638 l 488 517 q 444 591 478 564 q 358 618 410 618 q 297 601 318 618 q 276 551 276 583 q 315 497 276 515 q 435 461 353 479 q 581 419 524 440 q 679 349 638 397 q 721 218 721 300 q 685 100 721 151 q 581 19 649 49 q 419 -10 513 -10 q 168 60 263 -10 q 53 258 74 129 l 282 258 q 324 182 288 208 q 419 156 361 156 q 481 174 460 156 q 501 224 501 193 q 463 281 501 264 q 339 318 425 299 q 197 357 253 336 q 101 424 142 378 q 61 551 61 471 q 140 720 61 656 q 364 785 219 785 m 465 -60 q 590 -95 535 -57 q 644 -214 644 -133 q 588 -333 644 -294 q 451 -371 532 -371 l 250 -371 l 250 -246 l 426 -246 q 485 -207 485 -246 q 470 -179 485 -189 q 426 -169 456 -169 l 325 -169 l 325 10 l 465 10 l 465 -60 z "},"Š":{"ha":838,"x_min":53,"x_max":788,"o":"m 788 276 q 748 133 788 199 q 631 29 708 68 q 444 -10 554 -10 q 172 71 279 -10 q 56 296 65 151 l 308 296 q 348 208 314 240 q 435 176 382 176 q 507 201 481 176 q 533 268 533 226 q 509 331 533 306 q 449 372 485 356 q 349 410 413 388 q 197 472 256 442 q 95 560 138 501 q 53 714 53 619 q 97 865 53 801 q 220 963 142 929 q 400 997 299 997 q 660 919 564 997 q 769 706 757 842 l 513 706 q 477 783 506 754 q 400 811 449 811 q 333 789 358 811 q 307 724 307 767 q 330 665 307 689 q 388 625 353 640 q 488 586 422 610 q 642 523 582 554 q 744 432 701 492 q 788 276 788 372 m 636 1154 l 421 1038 l 206 1154 l 206 1311 l 421 1192 l 636 1311 l 636 1154 z "},"š":{"ha":771,"x_min":53,"x_max":721,"o":"m 364 785 q 599 711 511 785 q 710 517 688 638 l 488 517 q 444 591 478 564 q 358 618 410 618 q 297 601 318 618 q 276 551 276 583 q 315 497 276 515 q 435 461 353 479 q 581 419 524 440 q 679 349 638 397 q 721 218 721 300 q 685 100 721 151 q 581 19 649 49 q 419 -10 513 -10 q 168 60 263 -10 q 53 258 74 129 l 282 258 q 324 182 288 208 q 419 156 361 156 q 481 174 460 156 q 501 224 501 193 q 463 281 501 264 q 339 318 425 299 q 197 357 253 336 q 101 424 142 378 q 61 551 61 471 q 140 720 61 656 q 364 785 219 785 m 604 947 l 389 831 l 174 947 l 174 1104 l 389 985 l 604 1104 l 604 947 z "},"Ţ":{"ha":806,"x_min":18,"x_max":788,"o":"m 521 793 l 521 6 q 595 -50 572 -18 q 618 -129 618 -82 q 561 -248 618 -210 q 425 -286 504 -286 l 228 -286 l 228 -161 l 404 -161 q 445 -151 433 -161 q 457 -121 457 -140 q 404 -85 457 -85 l 282 -85 l 282 793 l 18 793 l 18 982 l 788 982 l 788 793 l 521 793 z "},"ţ":{"ha":572,"x_min":22,"x_max":582,"o":"m 403 -60 q 527 -95 472 -57 q 582 -214 582 -133 q 526 -333 582 -294 q 389 -371 469 -371 l 186 -371 l 186 -246 l 364 -246 q 422 -207 422 -246 q 408 -179 422 -189 q 364 -169 393 -169 l 263 -169 l 263 28 q 126 290 126 88 l 126 575 l 22 575 l 22 775 l 126 775 l 126 965 l 364 965 l 364 775 l 519 775 l 519 575 l 364 575 l 364 286 q 383 222 364 240 q 446 204 401 204 l 521 204 l 521 0 l 414 0 l 403 0 l 403 -60 z "},"Ť":{"ha":806,"x_min":18,"x_max":788,"o":"m 788 982 l 788 793 l 521 793 l 521 0 l 282 0 l 282 793 l 18 793 l 18 982 l 788 982 m 619 1154 l 404 1038 l 189 1154 l 189 1311 l 404 1192 l 619 1311 l 619 1154 z "},"ť":{"ha":572,"x_min":22,"x_max":633,"o":"m 604 1185 q 633 1031 633 1097 q 584 892 633 943 q 438 840 535 840 l 438 929 q 511 986 511 929 l 511 1014 l 422 1014 l 422 1185 l 604 1185 m 364 286 q 383 222 364 240 q 446 204 401 204 l 521 204 l 521 0 l 414 0 q 202 67 278 0 q 126 290 126 135 l 126 575 l 22 575 l 22 775 l 126 775 l 126 965 l 364 965 l 364 775 l 519 775 l 519 575 l 364 575 l 364 286 z "},"Ũ":{"ha":968,"x_min":76,"x_max":892,"o":"m 313 982 l 313 415 q 356 267 313 318 q 483 215 400 215 q 610 267 567 215 q 654 415 654 318 l 654 982 l 892 982 l 892 415 q 838 181 892 276 q 690 38 783 86 q 478 -10 596 -10 q 269 38 360 -10 q 128 181 179 85 q 76 415 76 276 l 76 982 l 313 982 m 393 1261 q 449 1251 424 1261 q 504 1224 474 1242 q 549 1202 533 1208 q 581 1196 564 1196 q 642 1261 632 1196 l 761 1261 q 572 1056 728 1056 q 515 1065 540 1056 q 457 1093 489 1075 q 417 1113 432 1107 q 385 1119 401 1119 q 324 1054 333 1119 l 204 1054 q 393 1261 239 1261 z "},"ũ":{"ha":935,"x_min":71,"x_max":853,"o":"m 853 775 l 853 0 l 614 0 l 614 140 q 515 32 581 72 q 361 -8 449 -8 q 149 81 228 -8 q 71 325 71 169 l 71 775 l 307 775 l 307 354 q 348 231 307 275 q 458 188 389 188 q 572 233 531 188 q 614 364 614 279 l 614 775 l 853 775 m 371 1054 q 426 1044 401 1054 q 482 1017 451 1035 q 526 995 511 1001 q 558 989 542 989 q 619 1054 610 989 l 739 1054 q 550 849 706 849 q 492 858 518 849 q 435 886 467 868 q 394 906 410 900 q 363 913 379 913 q 301 847 311 913 l 182 847 q 371 1054 217 1054 z "},"Ū":{"ha":968,"x_min":76,"x_max":892,"o":"m 313 982 l 313 415 q 356 267 313 318 q 483 215 400 215 q 610 267 567 215 q 654 415 654 318 l 654 982 l 892 982 l 892 415 q 838 181 892 276 q 690 38 783 86 q 478 -10 596 -10 q 269 38 360 -10 q 128 181 179 85 q 76 415 76 276 l 76 982 l 313 982 m 763 1243 l 763 1083 l 207 1083 l 207 1243 l 763 1243 z "},"ū":{"ha":935,"x_min":71,"x_max":853,"o":"m 853 775 l 853 0 l 614 0 l 614 140 q 515 32 581 72 q 361 -8 449 -8 q 149 81 228 -8 q 71 325 71 169 l 71 775 l 307 775 l 307 354 q 348 231 307 275 q 458 188 389 188 q 572 233 531 188 q 614 364 614 279 l 614 775 l 853 775 m 740 1036 l 740 876 l 185 876 l 185 1036 l 740 1036 z "},"Ŭ":{"ha":968,"x_min":76,"x_max":892,"o":"m 313 982 l 313 415 q 356 267 313 318 q 483 215 400 215 q 610 267 567 215 q 654 415 654 318 l 654 982 l 892 982 l 892 415 q 838 181 892 276 q 690 38 783 86 q 478 -10 596 -10 q 269 38 360 -10 q 128 181 179 85 q 76 415 76 276 l 76 982 l 313 982 m 483 1046 q 312 1111 376 1046 q 247 1293 247 1176 l 247 1313 l 361 1313 q 390 1241 361 1265 q 483 1217 419 1217 q 576 1241 547 1217 q 606 1313 606 1265 l 721 1313 l 721 1293 q 656 1111 721 1176 q 483 1046 590 1046 z "},"ŭ":{"ha":935,"x_min":71,"x_max":853,"o":"m 853 775 l 853 0 l 614 0 l 614 140 q 515 32 581 72 q 361 -8 449 -8 q 149 81 228 -8 q 71 325 71 169 l 71 775 l 307 775 l 307 354 q 348 231 307 275 q 458 188 389 188 q 572 233 531 188 q 614 364 614 279 l 614 775 l 853 775 m 461 839 q 290 904 354 839 q 225 1086 225 969 l 225 1106 l 339 1106 q 368 1034 339 1058 q 461 1010 397 1010 q 554 1034 525 1010 q 583 1106 583 1058 l 699 1106 l 699 1086 q 633 904 699 969 q 461 839 568 839 z "},"Ů":{"ha":968,"x_min":76,"x_max":892,"o":"m 313 982 l 313 415 q 356 267 313 318 q 483 215 400 215 q 610 267 567 215 q 654 415 654 318 l 654 982 l 892 982 l 892 415 q 838 181 892 276 q 690 38 783 86 q 478 -10 596 -10 q 269 38 360 -10 q 128 181 179 85 q 76 415 76 276 l 76 982 l 313 982 m 483 1376 q 604 1330 556 1376 q 653 1207 653 1283 q 604 1085 653 1131 q 483 1039 556 1039 q 363 1085 411 1039 q 315 1207 315 1131 q 363 1331 315 1285 q 483 1376 411 1376 m 483 1281 q 432 1260 453 1281 q 411 1207 411 1240 q 432 1153 411 1174 q 483 1133 453 1133 q 535 1153 515 1133 q 556 1207 556 1174 q 535 1260 556 1240 q 483 1281 515 1281 z "},"ů":{"ha":935,"x_min":71,"x_max":853,"o":"m 853 775 l 853 0 l 614 0 l 614 140 q 515 32 581 72 q 361 -8 449 -8 q 149 81 228 -8 q 71 325 71 169 l 71 775 l 307 775 l 307 354 q 348 231 307 275 q 458 188 389 188 q 572 233 531 188 q 614 364 614 279 l 614 775 l 853 775 m 461 1169 q 582 1123 533 1169 q 631 1000 631 1076 q 582 878 631 924 q 461 832 533 832 q 341 878 389 832 q 293 1000 293 924 q 341 1124 293 1078 q 461 1169 389 1169 m 461 1074 q 410 1053 431 1074 q 389 1000 389 1033 q 410 947 389 967 q 461 926 431 926 q 513 947 493 926 q 533 1000 533 967 q 513 1053 533 1033 q 461 1074 493 1074 z "},"Ű":{"ha":968,"x_min":76,"x_max":892,"o":"m 313 982 l 313 415 q 356 267 313 318 q 483 215 400 215 q 610 267 567 215 q 654 415 654 318 l 654 982 l 892 982 l 892 415 q 838 181 892 276 q 690 38 783 86 q 478 -10 596 -10 q 269 38 360 -10 q 128 181 179 85 q 76 415 76 276 l 76 982 l 313 982 m 347 1042 l 203 1042 l 307 1332 l 489 1332 l 347 1042 m 615 1042 l 471 1042 l 603 1332 l 785 1332 l 615 1042 z "},"ű":{"ha":935,"x_min":71,"x_max":853,"o":"m 853 775 l 853 0 l 614 0 l 614 140 q 515 32 581 72 q 361 -8 449 -8 q 149 81 228 -8 q 71 325 71 169 l 71 775 l 307 775 l 307 354 q 348 231 307 275 q 458 188 389 188 q 572 233 531 188 q 614 364 614 279 l 614 775 l 853 775 m 325 835 l 181 835 l 285 1125 l 467 1125 l 325 835 m 593 835 l 449 835 l 581 1125 l 763 1125 l 593 835 z "},"Ų":{"ha":1018,"x_min":101,"x_max":918,"o":"m 574 -208 q 449 -165 501 -208 q 396 -42 396 -121 q 414 -1 396 -15 q 189 135 276 28 q 101 415 101 242 l 101 982 l 339 982 l 339 415 q 382 267 339 318 q 510 215 425 215 q 636 265 592 215 q 681 415 681 315 l 681 982 l 918 982 l 918 415 q 877 215 918 300 q 768 78 836 129 q 619 8 700 26 q 557 -43 557 -6 q 619 -85 557 -85 l 781 -85 l 781 -208 l 574 -208 z "},"ų":{"ha":935,"x_min":71,"x_max":913,"o":"m 853 775 l 853 0 l 614 0 l 614 140 q 515 32 581 72 q 361 -8 449 -8 q 149 81 228 -8 q 71 325 71 169 l 71 775 l 307 775 l 307 354 q 348 231 307 275 q 458 188 389 188 q 572 233 531 188 q 614 364 614 279 l 614 775 l 853 775 m 853 28 l 853 -83 l 739 -83 q 694 -94 711 -83 q 678 -125 678 -106 q 694 -157 678 -146 q 739 -168 710 -168 l 913 -168 l 913 -293 l 714 -293 q 576 -253 633 -293 q 518 -133 518 -214 q 572 -12 518 -53 q 693 28 625 28 l 853 28 z "},"Ŵ":{"ha":1460,"x_min":43,"x_max":1417,"o":"m 1417 982 l 1182 0 l 888 0 l 731 657 l 572 0 l 278 0 l 43 982 l 301 982 l 428 271 l 600 982 l 860 982 l 1032 271 l 1160 982 l 1417 982 m 732 1158 l 517 1039 l 517 1196 l 732 1313 l 947 1196 l 947 1039 l 732 1158 z "},"ŵ":{"ha":1219,"x_min":6,"x_max":1215,"o":"m 1215 775 l 1017 0 l 751 0 l 611 519 l 469 0 l 204 0 l 6 775 l 243 775 l 346 217 l 490 775 l 743 775 l 892 215 l 994 775 l 1215 775 m 611 951 l 396 832 l 396 989 l 611 1106 l 826 989 l 826 832 l 611 951 z "},"Ŷ":{"ha":940,"x_min":11,"x_max":931,"o":"m 931 982 l 590 326 l 590 0 l 351 0 l 351 326 l 11 982 l 283 982 l 472 582 l 661 982 l 931 982 m 472 1158 l 257 1039 l 257 1196 l 472 1313 l 688 1196 l 688 1039 l 472 1158 z "},"ŷ":{"ha":881,"x_min":-4,"x_max":883,"o":"m 261 775 l 447 300 l 621 775 l 883 775 l 400 -369 l 139 -369 l 321 29 l -4 775 l 261 775 m 440 951 l 225 832 l 225 989 l 440 1106 l 656 989 l 656 832 l 440 951 z "},"Ÿ":{"ha":940,"x_min":11,"x_max":931,"o":"m 931 982 l 590 326 l 590 0 l 351 0 l 351 326 l 11 982 l 283 982 l 472 582 l 661 982 l 931 982 m 231 1169 q 259 1242 231 1213 q 331 1271 288 1271 q 402 1242 374 1271 q 431 1169 431 1213 q 402 1099 431 1128 q 331 1071 374 1071 q 259 1099 288 1071 q 231 1169 231 1128 m 513 1169 q 541 1242 513 1213 q 611 1271 569 1271 q 683 1242 654 1271 q 711 1169 711 1213 q 683 1099 711 1128 q 611 1071 654 1071 q 541 1099 569 1071 q 513 1169 513 1128 z "},"Ź":{"ha":825,"x_min":64,"x_max":761,"o":"m 328 192 l 761 192 l 761 0 l 64 0 l 64 181 l 490 792 l 69 792 l 69 982 l 758 982 l 758 801 l 328 192 m 613 1181 l 278 1038 l 278 1199 l 613 1360 l 613 1181 z "},"ź":{"ha":681,"x_min":32,"x_max":650,"o":"m 292 199 l 650 199 l 650 0 l 32 0 l 32 188 l 365 578 l 38 578 l 38 775 l 636 775 l 636 588 l 292 199 m 540 974 l 206 831 l 206 992 l 540 1153 l 540 974 z "},"Ż":{"ha":825,"x_min":64,"x_max":761,"o":"m 328 192 l 761 192 l 761 0 l 64 0 l 64 181 l 490 792 l 69 792 l 69 982 l 758 982 l 758 801 l 328 192 m 313 1169 q 342 1242 313 1213 q 413 1271 371 1271 q 484 1242 456 1271 q 513 1169 513 1213 q 484 1099 513 1128 q 413 1071 456 1071 q 342 1099 371 1071 q 313 1169 313 1128 z "},"ż":{"ha":681,"x_min":32,"x_max":650,"o":"m 292 199 l 650 199 l 650 0 l 32 0 l 32 188 l 365 578 l 38 578 l 38 775 l 636 775 l 636 588 l 292 199 m 240 963 q 269 1035 240 1006 q 340 1064 299 1064 q 412 1035 383 1064 q 440 963 440 1006 q 412 892 440 921 q 340 864 383 864 q 269 892 299 864 q 240 963 240 921 z "},"Ž":{"ha":825,"x_min":64,"x_max":761,"o":"m 328 192 l 761 192 l 761 0 l 64 0 l 64 181 l 490 792 l 69 792 l 69 982 l 758 982 l 758 801 l 328 192 m 629 1154 l 414 1038 l 199 1154 l 199 1311 l 414 1192 l 629 1311 l 629 1154 z "},"ž":{"ha":681,"x_min":32,"x_max":650,"o":"m 292 199 l 650 199 l 650 0 l 32 0 l 32 188 l 365 578 l 38 578 l 38 775 l 636 775 l 636 588 l 292 199 m 557 947 l 342 831 l 126 947 l 126 1104 l 342 985 l 557 1104 l 557 947 z "},"ƒ":{"ha":469,"x_min":-82,"x_max":513,"o":"m 492 885 q 408 866 438 885 q 375 804 379 847 l 372 775 l 490 775 l 471 576 l 351 576 l 278 -114 q 181 -312 263 -254 q -37 -371 99 -371 l -82 -371 l -62 -167 l -14 -167 q 24 -154 11 -167 q 40 -114 36 -142 l 114 576 l 42 576 l 61 775 l 135 775 l 138 804 q 246 1019 154 951 q 513 1088 338 1088 l 492 885 z "},"Ǽ":{"ha":1318,"x_min":4,"x_max":1265,"o":"m 903 793 l 903 592 l 1224 592 l 1224 411 l 903 411 l 903 190 l 1265 190 l 1265 0 l 664 0 l 664 168 l 347 168 l 263 0 l 4 0 l 507 982 l 1265 982 l 1265 793 l 903 793 m 664 349 l 664 792 l 439 349 l 664 349 m 856 1181 l 521 1038 l 521 1199 l 856 1360 l 856 1181 z "},"ǽ":{"ha":1492,"x_min":42,"x_max":1450,"o":"m 1450 408 q 1444 344 1450 372 l 868 344 q 920 218 875 258 q 1035 178 965 178 q 1135 203 1096 178 q 1186 275 1174 229 l 1438 275 q 1328 69 1414 149 q 1117 -10 1242 -10 q 956 30 1024 -10 q 860 142 889 69 l 860 0 l 624 0 l 624 140 q 529 31 593 71 q 376 -10 465 -10 q 205 38 281 -10 q 85 176 129 86 q 42 388 42 267 q 85 599 42 510 q 205 737 129 689 q 376 785 281 785 q 529 744 465 785 q 624 635 593 704 l 624 775 l 860 775 l 860 635 q 956 745 888 706 q 1117 785 1024 785 q 1292 738 1217 785 q 1408 605 1367 690 q 1450 408 1450 519 m 1210 444 q 1164 558 1213 519 q 1042 597 1115 597 q 924 560 972 597 q 868 444 876 524 l 1210 444 m 453 199 q 576 250 528 199 q 624 388 624 301 q 576 526 624 475 q 453 576 528 576 q 330 526 376 576 q 283 388 283 476 q 330 249 283 299 q 453 199 376 199 m 946 974 l 611 831 l 611 992 l 946 1153 l 946 974 z "},"Ș":{"ha":900,"x_min":53,"x_max":788,"o":"m 788 276 q 748 133 788 199 q 631 29 708 68 q 444 -10 554 -10 q 172 71 279 -10 q 56 296 65 151 l 308 296 q 348 208 314 240 q 435 176 382 176 q 507 201 481 176 q 533 268 533 226 q 509 331 533 306 q 449 372 485 356 q 349 410 413 388 q 197 472 256 442 q 95 560 138 501 q 53 714 53 619 q 97 865 53 801 q 220 963 142 929 q 400 997 299 997 q 660 919 564 997 q 769 706 757 842 l 513 706 q 477 783 506 754 q 400 811 449 811 q 333 789 358 811 q 307 724 307 767 q 330 665 307 689 q 388 625 353 640 q 488 586 422 610 q 642 523 582 554 q 744 432 701 492 q 788 276 788 372 m 547 -57 q 575 -208 575 -132 q 525 -364 575 -306 q 381 -422 475 -422 l 381 -335 q 453 -237 453 -335 l 453 -224 l 367 -224 l 367 -57 l 547 -57 z "},"ș":{"ha":771,"x_min":53,"x_max":721,"o":"m 364 785 q 599 711 511 785 q 710 517 688 638 l 488 517 q 444 591 478 564 q 358 618 410 618 q 297 601 318 618 q 276 551 276 583 q 315 497 276 515 q 435 461 353 479 q 581 419 524 440 q 679 349 638 397 q 721 218 721 300 q 685 100 721 151 q 581 19 649 49 q 419 -10 513 -10 q 168 60 263 -10 q 53 258 74 129 l 282 258 q 324 182 288 208 q 419 156 361 156 q 481 174 460 156 q 501 224 501 193 q 463 281 501 264 q 339 318 425 299 q 197 357 253 336 q 101 424 142 378 q 61 551 61 471 q 140 720 61 656 q 364 785 219 785 m 479 -57 q 506 -208 506 -129 q 456 -364 506 -306 q 313 -422 407 -422 l 313 -335 q 385 -237 385 -335 l 385 -224 l 299 -224 l 299 -57 l 479 -57 z "},"Ț":{"ha":806,"x_min":18,"x_max":788,"o":"m 788 982 l 788 793 l 521 793 l 521 0 l 282 0 l 282 793 l 18 793 l 18 982 l 788 982 m 490 -57 q 518 -208 518 -132 q 468 -364 518 -306 q 324 -422 418 -422 l 324 -335 q 396 -237 396 -335 l 396 -224 l 311 -224 l 311 -57 l 490 -57 z "},"ț":{"ha":572,"x_min":22,"x_max":521,"o":"m 521 204 l 521 0 l 414 0 q 202 67 278 0 q 126 290 126 135 l 126 575 l 22 575 l 22 775 l 126 775 l 126 965 l 364 965 l 364 775 l 519 775 l 519 575 l 364 575 l 364 286 q 383 222 364 240 q 446 204 401 204 l 521 204 m 394 -57 q 422 -208 422 -132 q 373 -364 422 -306 q 228 -422 324 -422 l 228 -335 q 300 -237 300 -335 l 300 -224 l 215 -224 l 215 -57 l 394 -57 z "},"ʼ":{"ha":335,"x_min":64,"x_max":272,"o":"m 246 1169 q 272 1006 272 1090 q 223 852 272 910 q 79 794 174 794 l 79 883 q 151 976 151 883 l 151 999 l 64 999 l 64 1169 l 246 1169 z "},"ˆ":{"ha":479,"x_min":25,"x_max":456,"o":"m 240 951 l 25 832 l 25 989 l 240 1106 l 456 989 l 456 832 l 240 951 z "},"ˇ":{"ha":479,"x_min":25,"x_max":456,"o":"m 456 947 l 240 831 l 25 947 l 25 1104 l 240 985 l 456 1104 l 456 947 z "},"ˉ":{"ha":606,"x_min":25,"x_max":581,"o":"m 581 1036 l 581 876 l 25 876 l 25 1036 l 581 1036 z "},"˘":{"ha":521,"x_min":25,"x_max":499,"o":"m 261 839 q 90 904 154 839 q 25 1086 25 969 l 25 1106 l 139 1106 q 168 1034 139 1058 q 261 1010 197 1010 q 354 1034 325 1010 q 383 1106 383 1058 l 499 1106 l 499 1086 q 433 904 499 969 q 261 839 368 839 z "},"˙":{"ha":254,"x_min":26,"x_max":226,"o":"m 26 963 q 56 1035 26 1006 q 126 1064 85 1064 q 198 1035 169 1064 q 226 963 226 1006 q 198 892 226 921 q 126 864 169 864 q 56 892 85 864 q 26 963 26 921 z "},"˚":{"ha":385,"x_min":25,"x_max":363,"o":"m 193 1169 q 314 1123 265 1169 q 363 1000 363 1076 q 314 878 363 924 q 193 832 265 832 q 73 878 121 832 q 25 1000 25 924 q 73 1124 25 1078 q 193 1169 121 1169 m 193 1074 q 142 1053 163 1074 q 121 1000 121 1033 q 142 947 121 967 q 193 926 163 926 q 245 947 225 926 q 265 1000 265 967 q 245 1053 265 1033 q 193 1074 225 1074 z "},"˛":{"ha":422,"x_min":14,"x_max":408,"o":"m 349 14 l 349 -97 l 235 -97 q 190 -108 207 -97 q 174 -139 174 -119 q 190 -171 174 -160 q 235 -182 206 -182 l 408 -182 l 408 -307 l 210 -307 q 72 -267 129 -307 q 14 -147 14 -228 q 67 -26 14 -67 q 189 14 121 14 l 349 14 z "},"˜":{"ha":585,"x_min":14,"x_max":571,"o":"m 203 1054 q 258 1044 233 1054 q 314 1017 283 1035 q 358 995 343 1001 q 390 989 374 989 q 451 1054 442 989 l 571 1054 q 382 849 538 849 q 324 858 350 849 q 267 886 299 868 q 226 906 242 900 q 194 913 211 913 q 133 847 143 913 l 14 847 q 203 1054 49 1054 z "},"˝":{"ha":632,"x_min":25,"x_max":607,"o":"m 169 835 l 25 835 l 129 1125 l 311 1125 l 169 835 m 438 835 l 293 835 l 425 1125 l 607 1125 l 438 835 z "},"π":{"ha":988,"x_min":33,"x_max":960,"o":"m 960 775 l 960 596 l 863 596 l 863 0 l 624 0 l 624 596 l 369 596 l 369 0 l 131 0 l 131 596 l 33 596 l 33 775 l 960 775 z "},"Ẁ":{"ha":1460,"x_min":43,"x_max":1417,"o":"m 1417 982 l 1182 0 l 888 0 l 731 657 l 572 0 l 278 0 l 43 982 l 301 982 l 428 271 l 600 982 l 860 982 l 1032 271 l 1160 982 l 1417 982 m 864 1199 l 864 1038 l 529 1181 l 529 1360 l 864 1199 z "},"ẁ":{"ha":1219,"x_min":6,"x_max":1215,"o":"m 1215 775 l 1017 0 l 751 0 l 611 519 l 469 0 l 204 0 l 6 775 l 243 775 l 346 217 l 490 775 l 743 775 l 892 215 l 994 775 l 1215 775 m 744 992 l 744 831 l 410 974 l 410 1153 l 744 992 z "},"Ẃ":{"ha":1460,"x_min":43,"x_max":1417,"o":"m 1417 982 l 1182 0 l 888 0 l 731 657 l 572 0 l 278 0 l 43 982 l 301 982 l 428 271 l 600 982 l 860 982 l 1032 271 l 1160 982 l 1417 982 m 931 1181 l 596 1038 l 596 1199 l 931 1360 l 931 1181 z "},"ẃ":{"ha":1219,"x_min":6,"x_max":1215,"o":"m 1215 775 l 1017 0 l 751 0 l 611 519 l 469 0 l 204 0 l 6 775 l 243 775 l 346 217 l 490 775 l 743 775 l 892 215 l 994 775 l 1215 775 m 810 974 l 475 831 l 475 992 l 810 1153 l 810 974 z "},"Ẅ":{"ha":1460,"x_min":43,"x_max":1417,"o":"m 1417 982 l 1182 0 l 888 0 l 731 657 l 572 0 l 278 0 l 43 982 l 301 982 l 428 271 l 600 982 l 860 982 l 1032 271 l 1160 982 l 1417 982 m 490 1169 q 519 1242 490 1213 q 590 1271 547 1271 q 662 1242 633 1271 q 690 1169 690 1213 q 662 1099 690 1128 q 590 1071 633 1071 q 519 1099 547 1071 q 490 1169 490 1128 m 772 1169 q 801 1242 772 1213 q 871 1271 829 1271 q 942 1242 914 1271 q 971 1169 971 1213 q 942 1099 971 1128 q 871 1071 914 1071 q 801 1099 829 1071 q 772 1169 772 1128 z "},"ẅ":{"ha":1219,"x_min":6,"x_max":1215,"o":"m 1215 775 l 1017 0 l 751 0 l 611 519 l 469 0 l 204 0 l 6 775 l 243 775 l 346 217 l 490 775 l 743 775 l 892 215 l 994 775 l 1215 775 m 371 963 q 399 1035 371 1006 q 471 1064 428 1064 q 542 1035 514 1064 q 571 963 571 1006 q 542 892 571 921 q 471 864 514 864 q 399 892 428 864 q 371 963 371 921 m 653 963 q 681 1035 653 1006 q 751 1064 710 1064 q 823 1035 794 1064 q 851 963 851 1006 q 823 892 851 921 q 751 864 794 864 q 681 892 710 864 q 653 963 653 921 z "},"Ẽ":{"ha":746,"x_min":82,"x_max":693,"o":"m 319 793 l 319 588 l 651 588 l 651 408 l 319 408 l 319 190 l 693 190 l 693 0 l 82 0 l 82 982 l 693 982 l 693 793 l 319 793 m 297 1261 q 353 1251 328 1261 q 408 1224 378 1242 q 453 1202 438 1208 q 485 1196 468 1196 q 546 1261 536 1196 l 665 1261 q 476 1056 632 1056 q 419 1065 444 1056 q 361 1093 393 1075 q 321 1113 336 1107 q 289 1119 306 1119 q 228 1054 238 1119 l 108 1054 q 297 1261 143 1261 z "},"ẽ":{"ha":860,"x_min":42,"x_max":818,"o":"m 818 408 q 811 344 818 379 l 274 344 q 318 219 278 257 q 421 181 358 181 q 508 207 474 181 q 554 275 543 233 l 806 275 q 739 128 790 193 q 608 27 688 64 q 432 -10 529 -10 q 230 38 318 -10 q 92 176 142 86 q 42 388 42 267 q 91 599 42 510 q 229 737 140 689 q 432 785 318 785 q 635 738 547 785 q 770 605 722 690 q 818 408 818 519 m 578 444 q 537 559 579 521 q 432 597 494 597 q 324 558 367 597 q 275 444 281 519 l 578 444 m 340 1054 q 396 1044 371 1054 q 451 1017 421 1035 q 496 995 481 1001 q 528 989 511 989 q 589 1054 579 989 l 708 1054 q 519 849 675 849 q 462 858 488 849 q 404 886 436 868 q 364 906 379 900 q 332 913 349 913 q 271 847 281 913 l 151 847 q 340 1054 186 1054 z "},"Ỳ":{"ha":940,"x_min":11,"x_max":931,"o":"m 931 982 l 590 326 l 590 0 l 351 0 l 351 326 l 11 982 l 283 982 l 472 582 l 661 982 l 931 982 m 604 1199 l 604 1038 l 269 1181 l 269 1360 l 604 1199 z "},"ỳ":{"ha":881,"x_min":-4,"x_max":883,"o":"m 261 775 l 447 300 l 621 775 l 883 775 l 400 -369 l 139 -369 l 321 29 l -4 775 l 261 775 m 574 992 l 574 831 l 239 974 l 239 1153 l 574 992 z "},"Ỹ":{"ha":940,"x_min":11,"x_max":931,"o":"m 931 982 l 590 326 l 590 0 l 351 0 l 351 326 l 11 982 l 283 982 l 472 582 l 661 982 l 931 982 m 381 1261 q 436 1251 411 1261 q 492 1224 461 1242 q 536 1202 521 1208 q 568 1196 551 1196 q 629 1261 619 1196 l 749 1261 q 560 1056 715 1056 q 502 1065 528 1056 q 444 1093 476 1075 q 404 1113 419 1107 q 372 1119 389 1119 q 311 1054 321 1119 l 192 1054 q 381 1261 226 1261 z "},"ỹ":{"ha":881,"x_min":-4,"x_max":883,"o":"m 261 775 l 447 300 l 621 775 l 883 775 l 400 -369 l 139 -369 l 321 29 l -4 775 l 261 775 m 350 1054 q 406 1044 381 1054 q 461 1017 431 1035 q 506 995 490 1001 q 538 989 521 989 q 599 1054 589 989 l 718 1054 q 529 849 685 849 q 472 858 497 849 q 414 886 446 868 q 374 906 389 900 q 342 913 358 913 q 281 847 290 913 l 161 847 q 350 1054 196 1054 z "},"–":{"ha":914,"x_min":71,"x_max":842,"o":"m 842 586 l 842 389 l 71 389 l 71 586 l 842 586 z "},"—":{"ha":1240,"x_min":71,"x_max":1169,"o":"m 1169 586 l 1169 389 l 71 389 l 71 586 l 1169 586 z "},"‘":{"ha":335,"x_min":63,"x_max":274,"o":"m 92 794 q 63 960 63 878 q 113 1112 63 1054 q 258 1169 163 1169 l 258 1082 q 185 988 185 1082 l 185 967 l 274 967 l 274 794 l 92 794 z "},"’":{"ha":335,"x_min":64,"x_max":272,"o":"m 246 1169 q 272 1006 272 1090 q 223 852 272 910 q 79 794 174 794 l 79 883 q 151 976 151 883 l 151 999 l 64 999 l 64 1169 l 246 1169 z "},"‚":{"ha":336,"x_min":39,"x_max":276,"o":"m 235 147 q 276 -28 276 67 q 226 -186 276 -124 q 68 -249 175 -249 l 68 -161 q 123 -144 106 -161 q 140 -81 140 -128 l 140 -67 l 39 -67 l 39 147 l 235 147 z "},"“":{"ha":600,"x_min":63,"x_max":536,"o":"m 92 794 q 63 960 63 878 q 113 1112 63 1054 q 258 1169 163 1169 l 258 1082 q 185 988 185 1082 l 185 967 l 274 967 l 274 794 l 92 794 m 354 794 q 326 960 326 879 q 376 1112 326 1054 q 521 1169 425 1169 l 521 1082 q 449 988 449 1082 l 449 967 l 536 967 l 536 794 l 354 794 z "},"”":{"ha":600,"x_min":64,"x_max":538,"o":"m 246 1169 q 272 1006 272 1090 q 223 852 272 910 q 79 794 174 794 l 79 883 q 151 976 151 883 l 151 999 l 64 999 l 64 1169 l 246 1169 m 508 1169 q 538 1006 538 1082 q 488 852 538 910 q 342 794 438 794 l 342 883 q 415 976 415 883 l 415 999 l 326 999 l 326 1169 l 508 1169 z "},"„":{"ha":600,"x_min":64,"x_max":538,"o":"m 246 171 q 272 7 272 92 q 223 -147 272 -89 q 79 -204 174 -204 l 79 -115 q 151 -22 151 -115 l 151 0 l 64 0 l 64 171 l 246 171 m 508 171 q 538 7 538 83 q 488 -147 538 -89 q 342 -204 438 -204 l 342 -115 q 415 -22 415 -115 l 415 0 l 326 0 l 326 171 l 508 171 z "},"†":{"ha":896,"x_min":64,"x_max":832,"o":"m 832 596 l 543 613 l 567 -369 l 329 -369 l 351 613 l 64 596 l 64 775 l 351 758 l 329 1096 l 567 1096 l 543 758 l 832 775 l 832 596 z "},"‡":{"ha":896,"x_min":63,"x_max":833,"o":"m 543 613 l 543 115 l 833 133 l 833 -49 l 543 -32 l 565 -369 l 328 -369 l 351 -32 l 63 -49 l 63 133 l 351 115 l 351 613 l 63 596 l 63 775 l 351 758 l 328 1096 l 565 1096 l 543 758 l 833 775 l 833 596 l 543 613 z "},"•":{"ha":647,"x_min":115,"x_max":533,"o":"m 115 463 q 143 569 115 521 q 219 646 171 618 q 324 674 267 674 q 430 646 382 674 q 506 569 478 618 q 533 463 533 521 q 506 358 533 406 q 430 283 478 310 q 324 256 382 256 q 219 283 267 256 q 143 358 171 310 q 115 463 115 406 z "},"…":{"ha":1001,"x_min":40,"x_max":960,"o":"m 624 238 l 624 0 l 378 0 l 378 238 l 624 238 m 960 238 l 960 0 l 714 0 l 714 238 l 960 238 m 286 238 l 286 0 l 40 0 l 40 238 l 286 238 z "},"‰":{"ha":1625,"x_min":35,"x_max":1590,"o":"m 268 999 q 434 938 369 999 q 499 765 499 876 q 434 593 499 654 q 268 532 369 532 q 99 593 164 532 q 35 765 35 654 q 99 938 35 876 q 268 999 164 999 m 942 985 l 406 0 l 176 0 l 713 985 l 942 985 m 193 765 q 213 698 193 722 q 265 674 232 674 q 321 698 300 674 q 342 765 342 722 q 321 833 342 808 q 265 857 300 857 q 213 833 232 857 q 193 765 193 808 m 851 454 q 1018 393 954 454 q 1082 221 1082 332 q 1018 48 1082 110 q 851 -14 954 -14 q 685 48 750 -14 q 621 221 621 110 q 685 393 621 332 q 851 454 750 454 m 1360 454 q 1526 393 1463 454 q 1590 221 1590 332 q 1526 48 1590 110 q 1360 -14 1463 -14 q 1192 48 1257 -14 q 1128 221 1128 110 q 1192 393 1128 332 q 1360 454 1257 454 m 778 221 q 797 152 778 176 q 851 128 817 128 q 905 152 885 128 q 925 221 925 176 q 905 288 925 264 q 851 313 885 313 q 797 288 817 313 q 778 221 778 264 m 1286 221 q 1306 152 1286 176 q 1358 128 1325 128 q 1413 152 1393 128 q 1433 221 1433 176 q 1413 288 1433 264 q 1358 313 1393 313 q 1306 288 1325 313 q 1286 221 1286 264 z "},"‹":{"ha":468,"x_min":63,"x_max":399,"o":"m 181 167 l 63 410 l 181 653 l 399 653 l 279 410 l 399 167 l 181 167 z "},"›":{"ha":468,"x_min":69,"x_max":406,"o":"m 192 410 l 69 653 l 290 653 l 406 410 l 290 167 l 69 167 l 192 410 z "},"⁄":{"ha":650,"x_min":-69,"x_max":694,"o":"m 694 985 l 160 0 l -69 0 l 465 985 l 694 985 z "},"€":{"ha":1114,"x_min":22,"x_max":1061,"o":"m 589 213 q 726 251 668 213 q 811 357 783 290 l 1061 357 q 903 91 1026 190 q 593 -8 779 -8 q 294 86 415 -8 q 132 342 172 181 l 22 342 l 22 451 l 115 451 q 114 492 114 465 q 115 531 114 518 l 22 531 l 22 640 l 132 640 q 294 897 172 803 q 593 992 415 992 q 903 893 779 992 q 1061 626 1026 794 l 811 626 q 726 733 783 694 q 589 772 668 772 q 467 738 521 772 q 385 640 414 703 l 629 640 l 629 531 l 357 531 q 356 492 356 518 q 357 451 356 464 l 629 451 l 629 342 l 386 342 q 468 247 415 281 q 589 213 521 213 z "},"₺":{"ha":1121,"x_min":33,"x_max":1088,"o":"m 1088 633 q 1035 266 1088 407 q 866 57 982 125 q 560 -11 750 -11 q 208 28 421 -11 l 208 344 l 33 314 l 33 456 l 208 486 l 208 572 l 33 540 l 33 678 l 208 711 l 208 986 l 450 986 l 450 756 l 639 792 l 639 650 l 450 615 l 450 529 l 643 564 l 643 422 l 450 388 l 450 222 q 558 213 494 213 q 740 267 676 213 q 824 413 803 322 q 846 633 846 503 l 1088 633 z "},"₽":{"ha":943,"x_min":33,"x_max":908,"o":"m 403 385 l 403 294 l 617 294 l 617 117 l 403 117 l 403 0 l 165 0 l 165 117 l 33 117 l 33 294 l 165 294 l 165 385 l 33 385 l 33 568 l 165 568 l 165 982 l 550 982 q 817 901 725 982 q 908 683 908 819 q 816 465 908 546 q 550 385 724 385 l 403 385 m 403 568 l 535 568 q 635 599 603 568 q 667 685 667 629 q 634 770 667 738 q 535 803 601 803 l 403 803 l 403 568 z "},"ℓ":{"ha":447,"x_min":82,"x_max":319,"o":"m 319 1028 l 319 0 l 82 0 l 82 1028 l 319 1028 z "},"™":{"ha":1226,"x_min":42,"x_max":1181,"o":"m 42 982 l 461 982 l 461 843 l 336 843 l 336 496 l 168 496 l 168 843 l 42 843 l 42 982 m 1181 982 l 1181 496 l 1026 496 l 1022 776 l 904 496 l 790 496 l 672 793 l 672 496 l 526 496 l 526 982 l 753 982 l 854 697 l 974 982 l 1181 982 z "},"Ω":{"ha":1100,"x_min":51,"x_max":1049,"o":"m 1049 525 q 900 181 1049 296 l 1042 181 l 1042 0 l 667 0 l 667 188 q 807 492 807 304 q 738 702 807 626 q 550 778 668 778 q 363 701 432 778 q 293 492 293 625 q 433 188 293 307 l 433 0 l 58 0 l 58 181 l 200 181 q 51 525 51 296 q 117 778 51 671 q 297 941 183 885 q 550 997 410 997 q 803 941 690 997 q 983 778 917 885 q 1049 525 1049 671 z "},"℮":{"ha":1039,"x_min":50,"x_max":992,"o":"m 532 -10 q 283 47 393 -10 q 112 211 174 103 q 50 468 50 319 q 105 735 50 617 q 266 922 160 854 q 519 990 372 990 q 772 927 665 990 q 935 759 879 864 q 992 533 992 654 l 992 446 l 314 446 l 314 199 q 532 129 411 129 q 711 167 629 129 q 869 282 793 206 l 950 188 q 532 -10 765 -10 m 724 797 q 519 858 646 858 q 314 789 397 858 l 314 568 l 724 568 l 724 797 z "},"∂":{"ha":853,"x_min":46,"x_max":807,"o":"m 419 776 q 588 669 547 776 q 519 836 571 779 q 360 893 468 893 q 275 886 324 893 l 275 1004 q 443 1028 361 1028 q 714 908 621 1028 q 807 564 807 788 q 756 257 807 386 q 609 58 706 128 q 378 -11 513 -11 q 210 28 286 -11 q 90 149 135 68 q 46 346 46 229 q 94 570 46 472 q 227 722 142 668 q 419 776 313 776 m 443 578 q 328 515 368 578 q 288 347 288 451 q 319 234 288 271 q 399 197 350 197 q 513 264 474 197 q 551 440 551 331 q 522 544 551 510 q 443 578 492 578 z "},"∆":{"ha":1022,"x_min":28,"x_max":994,"o":"m 608 978 l 994 182 l 994 0 l 28 0 l 28 182 l 415 978 l 608 978 m 274 182 l 749 182 l 511 708 l 274 182 z "},"∏":{"ha":1039,"x_min":33,"x_max":1006,"o":"m 1006 985 l 1006 806 l 907 806 l 907 0 l 669 0 l 669 806 l 369 806 l 369 0 l 131 0 l 131 806 l 33 806 l 33 985 l 1006 985 z "},"∑":{"ha":744,"x_min":56,"x_max":707,"o":"m 707 797 l 279 797 l 608 561 l 608 381 l 267 106 l 707 106 l 707 -76 l 56 -76 l 56 201 l 379 464 l 56 703 l 56 978 l 707 978 l 707 797 z "},"−":{"ha":682,"x_min":35,"x_max":647,"o":"m 647 586 l 647 389 l 35 389 l 35 586 l 647 586 z "},"∕":{"ha":540,"x_min":-28,"x_max":575,"o":"m 575 1319 l 201 -261 l -28 -261 l 346 1319 l 575 1319 z "},"∙":{"ha":360,"x_min":56,"x_max":301,"o":"m 301 557 l 301 319 l 56 319 l 56 557 l 301 557 z "},"√":{"ha":1292,"x_min":25,"x_max":1257,"o":"m 1257 1257 l 525 -58 l 414 -58 l 207 313 l 92 246 l 25 356 l 350 547 l 539 210 l 1121 1257 l 1257 1257 z "},"∞":{"ha":1079,"x_min":40,"x_max":1051,"o":"m 796 722 q 984 660 917 722 q 1051 483 1051 597 q 1019 356 1051 410 q 929 272 986 301 q 804 243 872 243 q 651 276 717 243 q 533 365 586 308 q 431 276 492 310 q 294 243 369 243 q 108 306 175 243 q 40 482 40 368 q 73 610 40 556 q 162 694 106 665 q 288 722 218 722 q 439 688 378 722 q 551 592 500 653 q 657 687 594 651 q 796 722 719 722 m 307 399 q 380 417 344 399 q 442 472 415 436 q 374 544 404 519 q 308 568 343 568 q 248 545 271 568 q 225 482 225 522 q 247 421 225 443 q 307 399 269 399 m 782 399 q 844 422 821 399 q 867 483 867 444 q 844 545 867 522 q 783 568 822 568 q 704 545 742 568 q 639 481 667 522 q 706 419 672 440 q 782 399 739 399 z "},"∫":{"ha":407,"x_min":-69,"x_max":476,"o":"m 146 1057 q 241 1253 160 1196 q 454 1310 322 1310 l 476 1310 l 457 1106 l 431 1106 q 382 1057 389 1106 l 261 -114 q 167 -312 247 -254 q -46 -371 86 -371 l -69 -371 l -50 -167 l -22 -167 q 10 -154 0 -167 q 25 -114 21 -142 l 146 1057 z "},"≈":{"ha":883,"x_min":35,"x_max":849,"o":"m 311 472 q 394 458 357 472 q 476 418 432 444 q 535 389 511 399 q 585 379 560 379 q 642 402 622 379 q 669 474 663 425 l 849 474 q 753 243 825 318 q 572 168 681 168 q 492 181 528 168 q 407 221 456 194 q 347 251 369 242 q 299 261 324 261 q 242 238 263 261 q 213 167 221 215 l 35 167 q 131 397 60 322 q 311 472 203 472 m 311 819 q 394 806 357 819 q 476 765 432 792 q 535 736 511 746 q 585 726 560 726 q 642 749 622 726 q 669 821 663 772 l 849 821 q 753 590 825 665 q 572 515 681 515 q 492 528 528 515 q 407 568 456 542 q 347 599 369 589 q 299 608 324 608 q 242 585 263 608 q 213 514 221 563 l 35 514 q 131 744 60 669 q 311 819 203 819 z "},"≠":{"ha":849,"x_min":35,"x_max":814,"o":"m 533 554 l 435 417 l 814 417 l 814 201 l 281 201 l 179 60 l 60 60 l 161 201 l 35 201 l 35 417 l 315 417 l 414 554 l 35 554 l 35 771 l 569 771 l 671 913 l 789 913 l 688 771 l 814 771 l 814 554 l 533 554 z "},"≤":{"ha":649,"x_min":35,"x_max":614,"o":"m 319 281 l 35 536 l 319 794 l 613 794 l 331 538 l 613 281 l 319 281 m 614 182 l 614 -3 l 65 -3 l 65 182 l 614 182 z "},"≥":{"ha":649,"x_min":35,"x_max":614,"o":"m 38 281 l 318 538 l 38 794 l 331 794 l 614 536 l 331 281 l 38 281 m 35 182 l 585 182 l 585 -3 l 35 -3 l 35 182 z "},"◊":{"ha":785,"x_min":28,"x_max":757,"o":"m 757 490 l 393 126 l 28 490 l 394 854 l 757 490 m 258 490 l 393 354 l 529 490 l 394 626 l 258 490 z "},"ﬁ":{"ha":914,"x_min":18,"x_max":833,"o":"m 451 881 q 374 856 397 881 q 349 775 351 831 l 810 775 l 810 0 l 571 0 l 571 575 l 349 575 l 349 0 l 111 0 l 111 575 l 18 575 l 18 775 l 111 775 l 111 783 q 192 1006 111 928 q 429 1085 274 1085 q 475 1083 460 1085 l 475 879 l 451 881 m 692 849 q 588 881 626 849 q 549 968 549 914 q 588 1053 549 1021 q 692 1086 626 1086 q 794 1053 756 1086 q 833 968 833 1021 q 794 882 833 915 q 692 849 756 849 z "},"ﬂ":{"ha":882,"x_min":18,"x_max":807,"o":"m 463 881 q 378 856 404 881 q 349 775 351 831 l 489 775 l 489 575 l 349 575 l 349 0 l 111 0 l 111 575 l 18 575 l 18 775 l 111 775 l 111 783 q 195 1006 111 928 q 439 1085 279 1085 q 489 1083 472 1085 l 489 879 l 463 881 m 807 1028 l 807 0 l 569 0 l 569 1028 l 807 1028 z "}}}
